<svg id="Layer_1" data-name="Layer 1" xmlns="http://www.w3.org/2000/svg" xmlns:xlink="http://www.w3.org/1999/xlink" viewBox="0 0 1239.55 170"><defs><style>.cls-1{fill:url(#linear-gradient);}.cls-2{fill:#4e4e4e;}</style><linearGradient id="linear-gradient" x1="7.99" y1="161.04" x2="299.74" y2="16.93" gradientUnits="userSpaceOnUse"><stop offset="0" stop-color="#007"/><stop offset="1" stop-color="#1062fe"/></linearGradient></defs><path class="cls-1" d="M284.63,8.79l-17.06,86L243.16,8a10.9,10.9,0,0,0-10.51-8H211.5a10.92,10.92,0,0,0-10.71,8.79L183.56,95.63,158.93,8a10.91,10.91,0,0,0-10.51-8H127.49a10.91,10.91,0,0,0-10.71,8.79L99.56,95.63,74.93,8A10.92,10.92,0,0,0,64.41,0H42.69A10.93,10.93,0,0,0,32,8.79L0,170H28.52a10.91,10.91,0,0,0,10.71-8.79L56,76.59,80,162a10.91,10.91,0,0,0,10.51,8h22.8A10.92,10.92,0,0,0,124,161.21l16.45-82.93L164,162a10.92,10.92,0,0,0,10.51,8h22.81a10.92,10.92,0,0,0,10.71-8.79l16.54-83.4L248.25,162a10.93,10.93,0,0,0,10.52,8h22.41a10.92,10.92,0,0,0,10.71-8.79L323.36,2.54l.5-2.54H295.34A10.91,10.91,0,0,0,284.63,8.79Z"/><path class="cls-2" d="M436.34,123.7a2.43,2.43,0,0,1-2.51-2.51V50a2.57,2.57,0,0,1,.71-1.91,2.43,2.43,0,0,1,1.8-.7h5.45a2.65,2.65,0,0,1,2,.65,5.07,5.07,0,0,1,.87,1.09l23,44,23.22-44a5.06,5.06,0,0,1,.81-1.09,2.47,2.47,0,0,1,1.91-.65h5.34A2.43,2.43,0,0,1,501.52,50v71.18a2.46,2.46,0,0,1-.71,1.8,2.59,2.59,0,0,1-1.91.71h-5.34a2.43,2.43,0,0,1-2.51-2.51V67.56l-18.2,35.53a3.56,3.56,0,0,1-1.31,1.69,3.76,3.76,0,0,1-2.18.6H466a3.47,3.47,0,0,1-2.18-.6,4.69,4.69,0,0,1-1.3-1.69L444.18,67.56v53.63a2.41,2.41,0,0,1-2.5,2.51Z"/><path class="cls-2" d="M542.5,123.7a2.24,2.24,0,0,1-2.18-2.18,7.54,7.54,0,0,1,.11-1.2l27-70.53a4.44,4.44,0,0,1,1.2-1.74A3.42,3.42,0,0,1,571,47.4h7.41a3.42,3.42,0,0,1,2.29.65,4.44,4.44,0,0,1,1.2,1.74l26.92,70.53a3.64,3.64,0,0,1,.22,1.2,2.24,2.24,0,0,1-2.18,2.18h-5.56a2.47,2.47,0,0,1-1.91-.66,3.84,3.84,0,0,1-.81-1.2l-6-15.48H556.78l-6,15.48A2.41,2.41,0,0,1,550,123a2.64,2.64,0,0,1-2,.66ZM559.94,97h29.43l-14.72-38.7Z"/><path class="cls-2" d="M643.33,123.7a2.28,2.28,0,0,1-1.59-.66,2,2,0,0,1-.7-1.52,2,2,0,0,1,.16-.82c.11-.26.2-.45.27-.6l25-35.21L642.67,51a3.08,3.08,0,0,1-.33-1.41,2.08,2.08,0,0,1,.66-1.53,2.05,2.05,0,0,1,1.52-.65h6.54a2.84,2.84,0,0,1,1.75.49,5.07,5.07,0,0,1,1.2,1.36L673.19,76.5l19.08-27.25a3.5,3.5,0,0,1,1.14-1.36,2.88,2.88,0,0,1,1.69-.49h6.21a2.22,2.22,0,0,1,2.18,2.18,2.49,2.49,0,0,1-.43,1.41L679.62,85l24.85,35.1a1.29,1.29,0,0,1,.33.6,3.07,3.07,0,0,1,.11.82,2.09,2.09,0,0,1-.65,1.52,2.22,2.22,0,0,1-1.64.66H696a2.72,2.72,0,0,1-1.69-.55,6,6,0,0,1-1.25-1.31L672.76,93.61l-20.17,28.23a6.59,6.59,0,0,1-1.2,1.31,2.47,2.47,0,0,1-1.63.55Z"/><path class="cls-2" d="M757,123.7a3.13,3.13,0,0,1-2.23-.77,4.15,4.15,0,0,1-1.15-2.18l-14.06-70a3.31,3.31,0,0,1-.11-.76v-.43a2.08,2.08,0,0,1,.66-1.53,2.05,2.05,0,0,1,1.52-.65h5.67c1.53,0,2.4.61,2.62,1.85L761,105.49l11.78-38.58a4.47,4.47,0,0,1,1.14-1.8,3.16,3.16,0,0,1,2.34-.82h4a3.13,3.13,0,0,1,2.4.82,3.9,3.9,0,0,1,1,1.8l11.88,38.58,11-56.24c.21-1.24,1.12-1.85,2.72-1.85H815a2.09,2.09,0,0,1,1.53.65,2.11,2.11,0,0,1,.65,1.53c0,.07,0,.21,0,.43a4.26,4.26,0,0,0-.06.76l-14.06,70a4.15,4.15,0,0,1-1.15,2.18,3.13,3.13,0,0,1-2.23.77h-4.25a3.51,3.51,0,0,1-2.4-.77,3.92,3.92,0,0,1-1.2-2L778.27,79.44,764.86,121a5,5,0,0,1-1.25,2,3.33,3.33,0,0,1-2.35.77Z"/><path class="cls-2" d="M861.22,123.7a2.41,2.41,0,0,1-1.86-.71,2.58,2.58,0,0,1-.65-1.8V50a2.75,2.75,0,0,1,.65-1.91,2.41,2.41,0,0,1,1.86-.7h5.55A2.43,2.43,0,0,1,869.39,50V80.1h37.5V50a2.6,2.6,0,0,1,.7-1.91,2.47,2.47,0,0,1,1.8-.7H915A2.43,2.43,0,0,1,917.57,50v71.18a2.46,2.46,0,0,1-.71,1.8,2.59,2.59,0,0,1-1.91.71h-5.56a2.41,2.41,0,0,1-2.5-2.51V89.91h-37.5v31.28a2.46,2.46,0,0,1-.71,1.8,2.59,2.59,0,0,1-1.91.71Z"/><path class="cls-2" d="M966.29,123.7a2.39,2.39,0,0,1-1.85-.71,2.55,2.55,0,0,1-.66-1.8V50a2.7,2.7,0,0,1,.66-1.91,2.38,2.38,0,0,1,1.85-.7h45a2.4,2.4,0,0,1,1.85.7,2.7,2.7,0,0,1,.65,1.91v4.14a2.27,2.27,0,0,1-2.5,2.51H974.25V80.53h34.66a2.39,2.39,0,0,1,1.85.71,2.69,2.69,0,0,1,.66,1.91v4a2.53,2.53,0,0,1-.66,1.8,2.39,2.39,0,0,1-1.85.71H974.25v24.74h37.93a2.28,2.28,0,0,1,2.51,2.51v4.25a2.55,2.55,0,0,1-.66,1.8,2.39,2.39,0,0,1-1.85.71Z"/><path class="cls-2" d="M1059.59,123.7a2.4,2.4,0,0,1-1.85-.71,2.54,2.54,0,0,1-.65-1.8V50a2.7,2.7,0,0,1,.65-1.91,2.4,2.4,0,0,1,1.85-.7h26.6q12.32,0,19.51,5.77t7.19,17.12q0,8.38-4.19,13.67a21.77,21.77,0,0,1-11.39,7.36l16.78,29a2.66,2.66,0,0,1,.33,1.2,2,2,0,0,1-.71,1.52,2.26,2.26,0,0,1-1.58.66h-5.23a3.45,3.45,0,0,1-2.73-1,16.46,16.46,0,0,1-1.52-2l-15.81-27.68h-19.07v28.12a2.46,2.46,0,0,1-.71,1.8,2.59,2.59,0,0,1-1.91.71Zm8.18-39.9h18q8.18,0,12.21-3.43t4-10.19q0-6.65-4-10.14t-12.27-3.49h-18Z"/><path class="cls-2" d="M1158.24,123.7a2.43,2.43,0,0,1-1.86-.71,2.58,2.58,0,0,1-.65-1.8V50a2.75,2.75,0,0,1,.65-1.91,2.42,2.42,0,0,1,1.86-.7h45a2.42,2.42,0,0,1,1.86.7,2.75,2.75,0,0,1,.65,1.91v4.14a2.27,2.27,0,0,1-2.51,2.51h-37.06V80.53h34.67a2.4,2.4,0,0,1,1.85.71,2.68,2.68,0,0,1,.65,1.91v4a2.52,2.52,0,0,1-.65,1.8,2.4,2.4,0,0,1-1.85.71h-34.67v24.74h37.94a2.27,2.27,0,0,1,2.5,2.51v4.25a2.54,2.54,0,0,1-.65,1.8,2.4,2.4,0,0,1-1.85.71Z"/></svg>