<?xml version="1.0" encoding="UTF-8"?>
<!-- Created with Inkscape (http://www.inkscape.org/) -->
<svg width="50" height="50" version="1.1" viewBox="0 0 50 50" xmlns="http://www.w3.org/2000/svg">
 <path d="m5 0c-2.77 0-5 2.23-5 5v40c0 2.77 2.23 5 5 5h40c2.77 0 5-2.23 5-5v-40c0-2.77-2.23-5-5-5h-40zm14.945 19.129c0.0016-2e-3 0.017537 0.046772 0.035157 0.10742 0.02795 0.0961 0.033632 0.13645 0.039062 0.30859 6e-3 0.19073 0.005967 0.19785 0.029297 0.20117 0.02101 3e-3 0.024997 0.011365 0.029297 0.072265 0.0035 0.05 0.052723 0.21465 0.17188 0.57812 0.09151 0.27915 0.20762 0.63173 0.25781 0.78516 0.08601 0.26292 0.091681 0.27766 0.10742 0.25391 0.04298-0.0648 0.10976-0.12109 0.14258-0.12109 0.04115 0 0.10155 0.063832 0.16406 0.16992 0.05303 0.09 0.076908 0.17087 0.085937 0.28516l0.007813 0.087891h0.064453 0.066406l0.072266-0.082031c0.06494-0.0724 0.45398-0.51945 0.83008-0.95508 0.07211-0.083499 0.20637-0.24002 0.29883-0.3457 0.09246-0.10568 0.20346-0.23831 0.24609-0.29492l0.078125-0.10156 0.001953-0.2207c0.0023-0.20411 0.003541-0.2225 0.025391-0.25195 0.05261-0.0708 0.12351-0.067488 0.16797 0.007812 0.019639 0.0334 0.023883 0.061574 0.027343 0.21484l0.003907 0.17773h2.1016 2.1035v-0.1543c1.06e-4 -0.16836 0.010528-0.22501 0.048828-0.26953 0.05242-0.0609 0.14153-0.024493 0.16602 0.066407 0.0064 0.023699 0.010566 0.12932 0.009766 0.23437l-0.001953 0.18945 0.068359 0.08789c0.03698 0.0484 0.11922 0.1499 0.18359 0.22461 0.13582 0.15764 0.36338 0.4224 0.64648 0.75 0.1099 0.12717 0.29451 0.34178 0.41016 0.47656l0.21094 0.24414h0.070313 0.070312v-0.058594c3.17e-4 -0.0931 0.028539-0.2041 0.074219-0.29102 0.04761-0.0906 0.14684-0.20312 0.17969-0.20312 0.01228 0 0.052507 0.033119 0.091797 0.074219l0.070313 0.074219 0.13086-0.39844c0.37921-1.163 0.38867-1.1973 0.38867-1.25 0-0.0464 0.003211-0.05344 0.025391-0.05664 0.02495-4e-3 0.02537-0.007192 0.03125-0.20117 0.0053-0.17332 0.010692-0.2118 0.039062-0.30859 0.01776-0.0606 0.033706-0.10912 0.035156-0.10742 0.0015 2e-3 0.015824 0.052398 0.033204 0.11133 0.027439 0.0931 0.033462 0.13321 0.039062 0.30469 0.0063 0.19387 0.00633 0.19763 0.03125 0.20117 0.02257 3e-3 0.025391 0.008847 0.025391 0.060547 0 0.0415 0.022385 0.12554 0.078125 0.29492 0.09425 0.28642 0.38947 1.1965 0.41406 1.2754 0.0097 0.031 0.021201 0.059853 0.025391 0.064453 0.0042 5e-3 0.026911-0.017528 0.050781-0.048828 0.03943-0.0517 0.090706-0.087891 0.11914-0.08789 0.02331 0 0.080715 0.059815 0.13476 0.14062 0.06574 0.0983 0.098909 0.1967 0.10938 0.32227l0.007813 0.089844h5.7734 5.7754l0.039062-0.03125c0.02768-0.0211 0.056777-0.031956 0.097657-0.035156 0.05083-4e-3 0.0652 0.00117 0.10938 0.03125 0.04684 0.0319 0.057237 0.033003 0.14648 0.033203 0.08615 1.8e-4 0.1007-0.003191 0.12109-0.025391 0.01259-0.014 0.19088-0.25469 0.39648-0.53516l0.37305-0.50977v-0.16992c0-0.20566 0.010793-0.25758 0.064453-0.30469l0.041016-0.035156 0.042968 0.042968c0.02376 0.0232 0.044959 0.056619 0.048829 0.074219l0.007812 0.03125h0.39258 0.39258l0.013672-0.037109c0.0068-0.0206 0.029942-0.054019 0.050781-0.074219l0.03711-0.037109 0.039062 0.035156c0.05471 0.048 0.064204 0.094942 0.064454 0.29492l0.001953 0.17383 0.94141 1.293 0.005859-0.066407c0.0074-0.0755 0.045687-0.1534 0.091797-0.1875 0.04036-0.0298 0.13104-0.037825 0.17383-0.015625 0.08829 0.0459 0.11643 0.11807 0.125 0.31445 0.0055 0.12686 0.008734 0.14357 0.027344 0.14844 0.01993 5e-3 0.021484 0.025875 0.021484 0.39062 0 0.24375 0.002586 0.3862 0.009766 0.39062 0.0066 4e-3 0.011719 0.069333 0.011719 0.1582 0 0.13656-0.001125 0.15351-0.021485 0.17383-0.0223 0.0223-0.023437 0.038284-0.023437 1.3203v1.2969h0.033203c0.01793 0 0.044324 0.009484 0.058594 0.021484 0.02429 0.0197 0.025967 0.02643 0.023437 0.13086-3e-3 0.12232-0.012715 0.14062-0.072265 0.14062h-0.03125v0.51758 0.51953l0.078125 0.058594v0.33789 0.33789h0.19726 0.19727v0.10156 0.09961h-21.998-22v-0.09961-0.10156h0.19727 0.19727v-0.33789-0.33789l0.039063-0.03125 0.041016-0.029297v-0.51758-0.51758h-0.033203c-0.057478 0-0.066516-0.018521-0.072266-0.13867-0.00613-0.1281 6.231e-4 -0.1413 0.068359-0.15039l0.046875-0.007812v-1.2949c0-1.2918-3.444e-4 -1.2953-0.023438-1.3184-0.021818-0.0218-0.021872-0.032194-0.015625-0.17773 0.00365-0.085 0.0086718-0.32891 0.011719-0.54102 0.00519-0.36136 0.0079648-0.38448 0.027344-0.39062 0.018269-6e-3 0.020158-0.02449 0.025391-0.15625 0.00677-0.17051 0.024118-0.22673 0.083984-0.2793 0.04545-0.0399 0.078838-0.049015 0.13867-0.041015 0.092096 0.0124 0.15396 0.08999 0.16797 0.21289l0.0078125 0.066407 0.4707-0.64844 0.4707-0.64648v-0.17188c0-0.19846 0.01169-0.24688 0.066406-0.29492l0.037109-0.035156 0.039062 0.037109c0.020833 0.0202 0.04398 0.053619 0.050781 0.074219l0.011719 0.037109h0.38867 0.38867l0.017578-0.041016c0.0095-0.023299 0.035512-0.058371 0.056641-0.076171l0.037109-0.03125 0.037109 0.039062c0.053518 0.0567 0.064453 0.10611 0.064453 0.30078v0.17188l0.39258 0.53516 0.39258 0.5332 0.097656 0.001953c0.090347 2.5e-4 0.1019-0.002156 0.1543-0.035156 0.049108-0.0305 0.064628-0.03595 0.11328-0.03125 0.037399 4e-3 0.069654 0.015256 0.095703 0.035156l0.039062 0.03125h5.7734 5.7734l0.007813-0.091797c0.01186-0.15375 0.076575-0.30001 0.18164-0.4082 0.06041-0.0622 0.091482-0.057156 0.16797 0.027344l0.0625 0.068359 0.15234-0.47266c0.08471-0.2595 0.20326-0.61846 0.26172-0.79688 0.075859-0.23148 0.10547-0.33931 0.10547-0.37891 0-0.049 0.003011-0.055394 0.025391-0.058594 0.02495-4e-3 0.026483-0.007412 0.033203-0.20703 6e-3 -0.17694 0.010219-0.21623 0.037109-0.30469 0.01697-0.0558 0.031564-0.10377 0.033203-0.10547zm9.2969 2.3184-0.019532 0.027343c-0.03788 0.0486-0.078373 0.12331-0.095703 0.18164-0.01331 0.0448-0.015625 0.12477-0.015625 0.37109v0.31445h0.13477 0.13476v-0.27148c0-0.36977-0.015162-0.4564-0.10156-0.57422l-0.037109-0.048828zm-8.4863 0.009765-0.02539 0.027344c-0.04099 0.0471-0.089236 0.15902-0.10156 0.23633-0.01274 0.0799-0.016176 0.77098-0.003906 0.7832 0.0041 4e-3 0.066073 0.007813 0.13672 0.007813h0.12695l-0.001953-0.42188-0.003907-0.41992-0.037109-0.072266c-0.01995-0.0403-0.04743-0.088902-0.0625-0.10742l-0.027344-0.033203zm-1.6172 0.003907c-0.01962 0-0.089545 0.12131-0.11133 0.19141-0.02039 0.0656-0.023438 0.10429-0.023438 0.46484v0.39453l0.13281-0.003907 0.13281-0.001953v-0.40234c0-0.3591-0.002804-0.40562-0.021484-0.46094-0.02155-0.064-0.092097-0.18164-0.10938-0.18164zm11.721 0.005859c-0.02303 0-0.086125 0.096889-0.10938 0.16797-0.01536 0.047-0.019708 0.11618-0.023438 0.36523-0.002499 0.16942-0.001446 0.31529 0.001954 0.32422 0.0049 0.0128 0.03195 0.017578 0.13476 0.017578h0.13086v-0.31055c0-0.27762-0.003068-0.31492-0.023438-0.38086-0.02559-0.0829-0.08584-0.18359-0.11133-0.18359zm-11.471 0.27734v0.375c0 0.20678 0.003612 0.37862 0.007812 0.38281 0.0042 4e-3 0.25337 0.006859 0.55469 0.005859l0.54883-0.003906 0.001953-0.38086 0.003906-0.37891h-0.55859-0.55859zm10.105 0v0.29102c0 0.16026 0.003612 0.29464 0.007812 0.29883 0.0042 4e-3 0.25337 0.004907 0.55469 0.003907l0.54883-0.001953 0.001953-0.29688 0.003906-0.29492h-0.55859-0.55859zm-1.584 0.15234c-0.04835-6.4e-4 -0.16406 0.022904-0.16406 0.033204 0 0.001999 0.01419 0.031353 0.03125 0.064453 0.0302 0.0586 0.030033 0.064797 0.033203 0.27344 0.0018 0.11786 0.005112 0.22076 0.007812 0.22852 0.0033 9e-3 0.031465 0.013672 0.083985 0.013672h0.078125l0.003906-0.22266c0.0037-0.21641 0.004996-0.2238 0.035156-0.28516 0.01706-0.0347 0.03125-0.066812 0.03125-0.070312 0-0.013-0.085118-0.034457-0.14062-0.035157zm-1.4512 0.003907c-0.04335 0-0.14345 0.021903-0.15039 0.033203-0.0032 5e-3 0.006034 0.037112 0.021484 0.070312 0.02681 0.0576 0.027234 0.069841 0.027344 0.27539 1.06e-4 0.11838 0.005366 0.21828 0.009766 0.22266 0.004399 4e-3 0.042247 0.006859 0.085937 0.005859l0.080078-0.003906 0.005859-0.22461c0.0054-0.21455 0.007287-0.2289 0.035157-0.28516l0.029297-0.058594-0.056641-0.017578c-0.03121-9e-3 -0.070711-0.017578-0.087891-0.017578zm-21.592 0.007812c-0.021392-0.002462-0.043853 0.011869-0.060547 0.042969-0.014837 0.0276-0.020046 0.073917-0.023438 0.2168-0.00398 0.16756-0.0056976 0.18235-0.025391 0.1875-0.020421 5e-3 -0.021484 0.021144-0.021484 0.33398v0.32812h0.13086 0.12891v-0.32617-0.32422l-0.027344-0.019532c-0.027932-0.0183-0.029297-0.019531-0.029297-0.18164 0-0.11511-0.004474-0.17446-0.015625-0.20117-0.014486-0.03465-0.035248-0.054178-0.056641-0.056641zm2.3164 0c-0.02304-7.75e-4 -0.046762 0.018791-0.0625 0.056641-0.01143 0.0273-0.015625 0.086467-0.015625 0.21094v0.17383l-0.027344 0.007813-0.029297 0.007812v0.31836c0 0.17564 0.0037125 0.32203 0.0078125 0.32617 0.0041 4e-3 0.061707 0.009765 0.12891 0.009765h0.12305v-0.32812c0-0.31515-0.0016755-0.3282-0.023438-0.33984-0.020959-0.011199-0.021484-0.022438-0.021484-0.17383 0-0.12479-0.0053023-0.17351-0.019531-0.20898-0.015514-0.03875-0.037507-0.059772-0.060547-0.060547zm37.945 0c-0.022336 0.002825-0.043413 0.022291-0.05664 0.056641-0.0067 0.0173-0.013275 0.10861-0.015625 0.20117-4e-3 0.1581-0.006177 0.16822-0.029297 0.18359-0.02439 0.0162-0.025391 0.019428-0.025391 0.3418v0.32617h0.13086 0.12891v-0.32812c0-0.31197-0.001325-0.3287-0.021485-0.33398-0.01946-5e-3 -0.02104-0.02064-0.02539-0.1875-0.0037-0.14095-0.009028-0.18958-0.023438-0.2168-0.01622-0.03065-0.040163-0.045794-0.0625-0.042969zm-23.102 0.003906c-0.0339 7e-3 -0.065553 0.016685-0.070313 0.021485-0.0048 5e-3 0.001502 0.028134 0.013672 0.052734 0.03446 0.0697 0.044922 0.15154 0.044922 0.3457v0.17969l0.082031-0.003907 0.082032-0.001953 0.005859-0.22656c0.0054-0.21769 0.006146-0.22923 0.035156-0.28516l0.03125-0.058594-0.037109-0.009766c-0.06682-0.0207-0.12568-0.025472-0.1875-0.013672zm24.26 0c-0.02922 0-0.03801 0.007929-0.05664 0.048829-0.01832 0.040399-0.021275 0.073883-0.021485 0.21484-3.53e-4 0.15782-2.84e-4 0.16827-0.021484 0.17383-0.02191 6e-3 -0.023438 0.014028-0.023438 0.33594v0.33203h0.125 0.12305v-0.32812c0-0.31393-8.16e-4 -0.32857-0.021484-0.33398-0.02003-5e-3 -0.021911-0.01892-0.025391-0.19336-0.0043-0.21496-0.015265-0.25-0.078125-0.25zm-42.58 0.001953c-0.062392 6e-3 -0.076151 0.051806-0.076172 0.25977-1.69e-5 0.16683-1.394e-4 0.17606-0.021484 0.18164-0.021905 6e-3 -0.023438 0.015344-0.023438 0.33398v0.32812h0.125 0.12305v-0.33203c0-0.31672-8.962e-4 -0.33055-0.021484-0.33594-0.019845-5e-3 -0.021747-0.020657-0.025391-0.18555-0.00322-0.14554-0.0069705-0.1845-0.023438-0.21484-0.017305-0.0319-0.02586-0.038156-0.056641-0.035157zm2.3184 0c-0.028869-0.002999-0.038278 0.002644-0.054688 0.027344-0.017209 0.0262-0.022221 0.061984-0.025391 0.2207-0.0035 0.17448-0.0053116 0.18812-0.025391 0.19336-0.020689 5e-3 -0.021484 0.020094-0.021484 0.33398v0.32812h0.125 0.12305v-0.33203c0-0.32193 4.297e-4 -0.33021-0.021484-0.33594-0.021319-6e-3 -0.023418-0.016137-0.023438-0.17969-2.2e-5 -0.20434-0.014104-0.24985-0.076172-0.25586zm36.791 0c-0.03376-0.002999-0.038364 0.002326-0.058594 0.046876-0.018679 0.041199-0.021274 0.07255-0.021484 0.21289-3.52e-4 0.15428-0.002427 0.16846-0.023437 0.17969-0.02176 0.0116-0.023438 0.022361-0.023438 0.33789v0.32812l0.12695-0.003906 0.12695-0.001953 0.003907-0.32422v-0.001953l0.001953-0.32422-0.027344-0.005859-0.029297-0.007813v-0.17578c0-0.2089-0.012802-0.25367-0.076172-0.25977zm1.1348 0c-0.04183 0.0224-0.054688 0.078123-0.054688 0.25781v0.16992l-0.027343 0.009765-0.029297 0.011719v0.32031c0 0.17592 0.003712 0.32203 0.007812 0.32617 0.0041 4e-3 0.063664 0.007812 0.13086 0.007812h0.12109v-0.32812c0-0.31866 4.07e-4 -0.32825-0.021484-0.33398-0.02127-6e-3 -0.022838-0.014902-0.023437-0.17578-3.88e-4 -0.10111-0.005672-0.18773-0.013672-0.21094-0.01594-0.0464-0.057934-0.071787-0.089844-0.054688zm-20.318 0.003907c-0.064969-0.0189-0.1354-0.017441-0.20312 0.005859l-0.033204 0.011719 0.029297 0.058594c0.02792 0.0564 0.02792 0.067719 0.03125 0.28711l0.003907 0.22852h0.083984 0.083984v-0.17188c1.06e-4 -0.19504 0.011852-0.28422 0.044922-0.34766 0.0126-0.0242 0.023438-0.046128 0.023438-0.048828 0-3e-3 -0.029484-0.013237-0.064454-0.023437zm1.2461 0.003906-0.03125 0.011719 0.03125 0.066406c0.02948 0.0629 0.029493 0.07246 0.033203 0.28711l0.003907 0.22266h0.083984 0.082031l0.003907-0.22266c0.003499-0.21371 0.004473-0.22579 0.033203-0.28711l0.03125-0.0625-0.03711-0.015625c-0.04297-0.0181-0.19166-0.01794-0.23438 0zm-5.3223 0.046875h0.068359 0.068359v0.1582 0.1582h-0.068359-0.068359v-0.1582-0.1582zm0.32812 0h0.066406 0.068359v0.1582 0.1582h-0.068359-0.066406v-0.1582-0.1582zm0.31641 0h0.066406 0.06836v0.1582 0.1582h-0.06836-0.066406v-0.1582-0.1582zm9.4629 0h0.066407 0.068359v0.1582 0.1582h-0.068359-0.066407v-0.1582-0.1582zm0.33789 0 0.064453 0.001953 0.064453 0.003906 0.003907 0.1543 0.001953 0.1543h-0.066407-0.068359v-0.15625-0.1582zm0.30469 0h0.066406 0.068359v0.1582 0.1582h-0.068359-0.066406v-0.1582-0.1582zm-1.3203 0.17969-0.13867 0.003906-0.13672 0.001953-0.003907 0.11719c-0.0037 0.13366-0.017512 0.12395 0.11524 0.087891 0.03697-0.01 0.088626-0.017578 0.11523-0.017578h0.048828v-0.097656-0.095703zm-7.9746 0.001953v0.17969 0.18164l0.13867-0.003907 0.13867-0.001953 0.001954-0.17969 0.003906-0.17578h-0.14062-0.14258zm24.633 0.33594-0.13281 0.003906-0.13086 0.001954-0.003906 0.24805c-0.0017 0.13633-0.001111 0.25382 0.001953 0.26172 4e-3 0.0105 0.041784 0.015625 0.13672 0.015625h0.12891v-0.26562-0.26562zm-41.686 0.001953v0.26367 0.26562h0.13477 0.13672l-0.0039063-0.26172-0.0019531-0.26172-0.13281-0.003907-0.13281-0.001953zm1.5449 0v0.26367 0.26562h0.13477 0.13672v-0.26562-0.26367h-0.13672-0.13477zm0.76758 0v0.26367 0.26562h0.13477 0.13477v-0.26562-0.26367h-0.13477-0.13477zm0.39453 0v0.26367 0.26562h0.13477 0.13672l-0.0039062-0.26172-0.0019532-0.26172-0.13281-0.003907-0.13281-0.001953zm37.559 0v0.26367 0.26562h0.13477 0.13672l-0.003906-0.26172-0.003907-0.26172-0.13086-0.003907-0.13281-0.001953zm1.5449 0v0.26367 0.26562h0.13477 0.13476v-0.26562-0.26367h-0.13476-0.13477zm-41.422 0.00586-0.0019531 0.24805c-0.00168 0.13633-0.0011509 0.25362 0.0019531 0.26172 0.0043 0.0112 0.037549 0.014219 0.13867 0.011719l0.13281-0.003906v-0.25977-0.25781h-0.13672-0.13477zm0.76758 0-0.0039063 0.26172-0.0019531 0.26367 0.13867-0.003906 0.13672-0.003906v-0.25977-0.25781h-0.13477-0.13477zm37.953 0-0.003906 0.13867-0.001953 0.13867 0.066406 0.072266c0.03707 0.0396 0.081217 0.094987 0.097656 0.12305 0.02739 0.0467 0.033659 0.050781 0.074219 0.050781h0.044922l-0.003906-0.26172-0.003906-0.26172h-0.13477-0.13477zm0.39453 0-0.003907 0.26172-0.001953 0.26172h0.13477 0.13672l-0.003907-0.26172-0.001953-0.26172h-0.13086-0.12891zm1.1504 0-0.003906 0.24609c-0.0017 0.13633 8.12e-4 0.25557 0.003906 0.26367 0.0043 0.0112 0.037547 0.014219 0.13867 0.011719l0.13281-0.003906v-0.25977-0.25781h-0.13672-0.13477zm-23.344 0.12891c-0.01903 0-0.019531 0.008384-0.019531 0.083984v0.085938h0.054688 0.05664l-0.027344-0.054688c-0.01522-0.0295-0.031036-0.066884-0.035156-0.083984-0.0049-0.0203-0.015367-0.03125-0.029297-0.03125zm2.1914 0-0.011719 0.042969c-0.0064 0.0233-0.022677 0.057825-0.035157 0.078125-0.012479 0.0203-0.021484 0.039968-0.021484 0.042968s0.071094 0.003907 0.1582 0.003907h0.1582l-0.027343-0.046875c-0.01516-0.0264-0.030957-0.063785-0.035157-0.083985l-0.007812-0.037109h-0.089844-0.08789zm2.9004 0-0.013672 0.046875c-0.0078 0.0264-0.024799 0.065737-0.037109 0.085937l-0.021485 0.03711h0.1582 0.1582l-0.033203-0.072266c-0.01834-0.0388-0.033194-0.076184-0.033204-0.083984-7e-6 -0.0101-0.02465-0.013672-0.08789-0.013672h-0.089844zm-4.2656 0.001953c-0.08385-3e-3 -0.091797 4.31e-4 -0.091797 0.019531 0 0.0118-0.0136 0.049085-0.03125 0.083985l-0.03125 0.064453h0.15625c0.08589 0 0.15625-0.00286 0.15625-0.00586v-0.001953c0-3e-3 -0.009611-0.018103-0.019531-0.033203-0.0099-0.0151-0.02344-0.047719-0.03125-0.074219l-0.013672-0.048828-0.09375-0.003906zm5.8066 0-0.091797 0.003906-0.013672 0.048828c-0.0078 0.0265-0.023293 0.059119-0.033203 0.074219-0.0099 0.0151-0.017578 0.029903-0.017578 0.033203 0 3e-3 0.070361 0.00586 0.15625 0.00586h0.15625l-0.033203-0.0625c-0.01765-0.035-0.03125-0.072285-0.03125-0.083985 0-0.0196-0.007957-0.022531-0.091797-0.019531zm-7.9512 0.003906c-0.81859 0-1.0326 0.003325-1.0879 0.015625-0.09546 0.0212-0.095691 0.018791-0.082031 0.087891l0.011719 0.060547 1.1699-0.003907 1.168-0.001953 0.003907-0.058593c0.0028-0.0482-8e-4 -0.059754-0.017578-0.064454-0.12771-0.035199-0.14729-0.035156-1.166-0.035156zm4.959 0-0.015625 0.050782c-0.0092 0.027899-0.027122 0.064931-0.039062 0.082031l-0.021485 0.03125h0.1582c0.087269 0 0.16016-0.004766 0.16016-0.009766s-0.009322-0.020656-0.019532-0.035156c-0.010179-0.0145-0.02369-0.046666-0.03125-0.072266l-0.013671-0.046875h-0.087891-0.089844zm-5.6582 0.27734v0.083984 0.083985h0.83594 0.83398v-0.083985-0.083984h-0.83398-0.83594zm1.7949 0.011719v0.1582 0.15625h3.584 3.5859l0.005859-0.13281c0.0033-0.0729 0.009452-0.14287 0.013672-0.15625l0.007813-0.02539h-3.5996-3.5977zm-17.482 0.21289v0.072266c0 0.0576 0.0034174 0.075497 0.021484 0.091797 0.020032 0.0181 0.023438 0.034757 0.023438 0.14844v0.12695h0.10156 0.10156v-0.12695c0-0.11453 0.0028185-0.13173 0.023438-0.15039 0.019234-0.0174 0.022287-0.030791 0.019531-0.087891l-0.0039063-0.068359-0.14453-0.003907-0.14258-0.001953zm2.7285 0v0.11328c0 0.0974-0.0019254 0.11522-0.021484 0.13476-0.018549 0.0186-0.023438 0.037872-0.023438 0.10742v0.083984h0.20312 0.20312l0.0019531-0.11523 0.0039062-0.11523 0.12695-0.003906 0.12695-0.001954v-0.10156-0.10156h-0.31055-0.31055zm0.74414 0v0.06836c0 0.0527 0.0064116 0.075822 0.025391 0.10156 0.024099 0.0326 0.027952 0.033203 0.125 0.033203 0.056058 0 0.097656-0.003965 0.097656-0.009765v-0.001953c0-6e-3 0.010699-0.01935 0.023438-0.03125 0.019239-0.0179 0.022371-0.032791 0.019531-0.087891l-0.0019531-0.066406-0.14453-0.003907-0.14453-0.001953zm36.465 0c-0.19075 0-0.20327 3.32e-4 -0.19726 0.019532 0.014129 0.0445 0.027013 0.19546 0.027343 0.30469l0.001953 0.11523h0.20703 0.20898v-0.083984c0-0.0695-0.002924-0.088872-0.021484-0.10742-0.01955-0.0195-0.023438-0.037025-0.023438-0.13476v-0.11328h-0.20312zm1.8945 0v0.11914c0 0.10611-0.001224 0.11822-0.021484 0.13086-0.01941 0.0121-0.023437 0.026253-0.023438 0.10156v0.08789h0.35547 0.35547v-0.085937c0-0.0691-0.003691-0.088029-0.019531-0.099609-0.01616-0.0118-0.020288-0.037006-0.023438-0.13477l-0.003906-0.11914h-0.30859-0.31055zm-39.961 0.00586-0.30469 0.007812v0.11133c0 0.0989-0.0014074 0.11246-0.021484 0.125-0.019113 0.0119-0.023438 0.02595-0.023438 0.09375 0 0.044 0.0036925 0.083791 0.0078125 0.087891 0.00412 4e-3 0.16654 0.006859 0.35938 0.005859l0.34961-0.003906 0.0039062-0.080078c0.0028-0.0683 2.048e-4 -0.081769-0.019531-0.099609-0.020169-0.0183-0.023438-0.03407-0.023438-0.13086 0-0.0644-0.0048588-0.11295-0.011719-0.11719-0.0065-4e-3 -0.14918-0.00493-0.31641 0zm38.805 0-0.001953 0.11328c-0.0027 0.0967-0.00661 0.11777-0.02539 0.13477-0.01783 0.0161-0.023438 0.035103-0.023438 0.095703 0 0.0414 0.003713 0.077831 0.007813 0.082031 0.0041 4e-3 0.16696 0.007812 0.36133 0.007812h0.35352v-0.08789c0-0.0748-0.002524-0.089693-0.021484-0.10156-0.0193-0.012-0.022591-0.028116-0.025391-0.12891l-0.003906-0.11523h-0.31055-0.31055zm-40.27 0.005859v0.11133c0 0.0845-0.0048091 0.11614-0.017578 0.12891-0.012065 0.0121-0.017578 0.040583-0.017578 0.10156v0.085937l0.35352-0.001953 0.35156-0.003906 0.0039062-0.080078c0.00282-0.0695 1.61e-4 -0.085729-0.019531-0.10547-0.019969-0.02-0.023438-0.036026-0.023438-0.12891v-0.10742h-0.31641-0.31445zm0.75586 0v0.066406c0 0.0452 0.004096 0.070579 0.015625 0.080078 0.013198 0.011 0.017578 0.042036 0.017578 0.14063 0 0.069499 0.0034525 0.12845 0.0078125 0.13281 0.00436 4e-3 0.050493 0.006859 0.10352 0.005859l0.097656-0.003906 0.0019531-0.13281c0.00282-0.11777 0.0056837-0.13418 0.025391-0.14648 0.017904-0.0112 0.023438-0.025725 0.023437-0.078125v-0.064453h-0.14648-0.14648zm1.1504 0v0.064453c0 0.0512 0.0037254 0.068785 0.021484 0.083985 0.020129 0.0172 0.023438 0.03456 0.023438 0.15039v0.12891h0.10156 0.10156v-0.12305c0-0.10548 0.0020254-0.12571 0.021484-0.15039 0.016449-0.0209 0.023438-0.045797 0.023438-0.091797v-0.0625h-0.14648-0.14648zm37.953 0v0.0625c0 0.046 0.005025 0.070797 0.021484 0.091797 0.01941 0.0247 0.023438 0.044861 0.023438 0.15039v0.12305h0.10156 0.10156v-0.12891c0-0.11586 0.001324-0.13315 0.021484-0.15039 0.01773-0.0152 0.023438-0.032785 0.023438-0.083985v-0.064453h-0.14648-0.14648zm1.1504 0v0.064453c0 0.0528 0.003124 0.066725 0.021484 0.078125 0.0204 0.0127 0.023438 0.027058 0.023438 0.14258 0 0.0703 0.003712 0.13063 0.007812 0.13477 0.0041 4e-3 0.049874 0.007813 0.10156 0.007812h0.09375v-0.12305c0-0.10548 0.002024-0.12571 0.021484-0.15039 0.01645-0.0209 0.023437-0.045797 0.023438-0.091797v-0.0625h-0.14648-0.14648zm1.1602 0v0.064453c0 0.0516 0.005778 0.071991 0.023437 0.087891 0.02004 0.0181 0.023438 0.034767 0.023438 0.14844v0.12695h0.10156 0.09961v-0.12695c0-0.11364 0.003377-0.13031 0.023437-0.14844 0.01765-0.016 0.023438-0.036291 0.023438-0.087891v-0.064453h-0.14648-0.14844zm-26.889 0.044922v0.17969 0.18164h0.69531 0.69336v-0.13086-0.12891h0.14062 0.14062v-0.050781-0.050781h-0.83398-0.83594zm3.3828 0.1582-0.53711 0.001953-0.53906 0.003906-0.017578 0.12305c-0.01 0.068-0.021834 0.12511-0.027344 0.12695-0.0058 2e-3 -0.009813 0.43477-0.007813 1.0195l0.003907 1.0137 0.033203 0.082031c0.02869 0.0696 0.033203 0.094257 0.033203 0.18555v0.10547l0.52148-0.001953 0.52148-0.003906 0.005859-0.11914c0.0053-0.096899 0.012439-0.13086 0.037109-0.18164l0.03125-0.060547v-0.68945c1.06e-4 -0.37894 0.003713-0.81105 0.007813-0.96094l0.005859-0.27344h0.12109 0.12109l0.007812 0.96484 0.007813 0.96289 0.027344 0.06836c0.017749 0.0437 0.027343 0.090669 0.027343 0.13086v0.0625l0.060547-0.03125c0.03257-0.0166 0.093293-0.042441 0.13672-0.056641l0.080078-0.02539h-0.076172-0.076172v-0.78516c0-0.75413 4.4e-4 -0.78686 0.021485-0.82812 0.06108-0.11972 0.22728-0.18906 0.41992-0.17774 0.10974 6e-3 0.19794 0.035597 0.27148 0.091797 0.09834 0.0751 0.092253 0.02122 0.095703 0.91211l0.003906 0.78711h-0.076172-0.076171l0.10156 0.037109c0.05583 0.0204 0.11656 0.046141 0.13672 0.056641l0.037109 0.019531v-0.066406c0-0.0472 0.009257-0.085007 0.029297-0.12891l0.027344-0.0625 0.007812-0.96289 0.009766-0.96289 0.11914-0.003906 0.11914-0.001953 0.007813 0.1543c0.0041 0.0849 0.007712 0.51326 0.007812 0.95117v0.79492l0.029297 0.080078c0.01629 0.0434 0.032396 0.10415 0.035156 0.13672 0.0055 0.0652 0.003933 0.065775 0.039063 0.046875 0.01355-7e-3 0.071127-0.030481 0.12695-0.050781l0.10156-0.037109h-0.076172-0.076171v-0.76367c0-0.5225 0.003198-0.7797 0.011718-0.81055 0.01799-0.0652 0.1119-0.15228 0.19727-0.18555 0.05645-0.022 0.089067-0.026844 0.19727-0.027344 0.15452-7.2e-4 0.23938 0.024757 0.32226 0.097657 0.09653 0.085 0.088217 0.016674 0.091797 0.90234l0.003906 0.78711h-0.082031-0.082031l0.078125 0.027343c0.04342 0.0142 0.1061 0.037988 0.13867 0.054688l0.058594 0.03125v-0.052734c0-0.032 0.012483-0.080197 0.033203-0.12891l0.033203-0.078125 0.007812-0.96484 0.009766-0.96484h0.11914 0.12109l0.007813 0.24609c0.0041 0.13493 0.005859 0.56552 0.005859 0.95703v0.71094l0.035156 0.082032c0.01989 0.0482 0.033203 0.10389 0.033204 0.13281 0 0.0271 0.002459 0.048828 0.005859 0.048828s0.023109-0.008831 0.042969-0.019531c0.01985-0.0103 0.077327-0.031628 0.12695-0.048828l0.089843-0.033203h-0.076171-0.076172v-0.7832-0.78125l0.02539-0.048828c0.08878-0.1682 0.40864-0.23514 0.61914-0.12891 0.07465 0.0377 0.12275 0.082506 0.14648 0.13477 0.01944 0.0428 0.019302 0.092832 0.019532 0.82617l0.001953 0.78125h-0.076172-0.076172l0.089844 0.03125c0.04963 0.0172 0.11231 0.04294 0.13867 0.05664l0.046875 0.025391v-0.058594c0-0.0393 0.010093-0.082115 0.033203-0.13476l0.035156-0.076172v-0.62891c0-0.34635 0.003713-0.77949 0.007813-0.96094l0.005859-0.33008h0.12109 0.12109l0.007813 0.96484 0.007812 0.96484 0.027344 0.06836c0.02212 0.0544 0.027344 0.086378 0.027344 0.17383v0.10742h0.53125 0.5293v-0.10742c0-0.0874 0.005594-0.11938 0.027344-0.17188l0.02539-0.064453 0.007813-0.95312 0.005859-0.95117-0.072266-0.078125c-0.0673-0.0727-0.1587-0.22569-0.17773-0.29883l-0.005859-0.025391h-0.44141-0.43945l-0.005859 0.025391c-3e-3 0.014-0.012201 0.071496-0.019531 0.12891l-0.011719 0.10547h-0.15234c-0.08287 0-0.15019-0.005766-0.15039-0.009766-1.76e-4 -5e-3 -0.008579-0.059044-0.017579-0.12109-9e-3 -0.062-0.015505-0.11644-0.015625-0.12109-3.17e-4 -0.0118-1.0689-0.009747-1.0762 0.001953-0.003299 5e-3 -0.011018 0.045897-0.017578 0.091797-0.0066 0.0459-0.014358 0.1009-0.017578 0.12109l-0.005859 0.03711h-0.15039-0.15039l-0.013672-0.11133c-0.0076-0.0605-0.016402-0.11812-0.019532-0.12891-0.005299-0.0183-0.040393-0.020078-0.54297-0.017578l-0.53906 0.003906-0.015625 0.12695-0.015625 0.12695h-0.15039c-0.14629 0-0.1493-5.81e-4 -0.1543-0.025391-0.0028-0.014-0.013325-0.071163-0.021485-0.12695l-0.013671-0.10156-0.53711-0.003906-0.53711-0.001953-0.007813 0.037109c-0.0035 0.0202-0.012321 0.077687-0.019531 0.12891l-0.011719 0.09375h-0.15234c-0.11314 0-0.15022-0.003572-0.15039-0.013672-2.46e-4 -0.0165-0.018144-0.15574-0.027344-0.20898l-0.007812-0.037109zm-3.3828 0.31445v1.1738 1.1719l0.69141-0.001953 0.69141-0.003906v-1.166-1.168l-0.69141-0.001954-0.69141-0.003906zm-1.5332 0.019532-0.058594 0.02539c-0.08816 0.0379-0.2196 0.044472-0.31055 0.013672l-0.070312-0.023438-0.068359 0.021485c-0.09403 0.0317-0.19875 0.02984-0.29883-0.005859-0.04342-0.0154-0.091913-0.027344-0.10742-0.027344-0.01551 0-0.064003 0.012044-0.10742 0.027344-0.10008 0.035399-0.2048 0.037259-0.29883 0.005859l-0.066407-0.021485-0.068359 0.021485c-0.09252 0.0312-0.18821 0.02944-0.28711-0.005859-0.097739-0.0346-0.098027-0.034647-0.20508 0.001953-0.07421 0.025-0.10221 0.028537-0.17383 0.023437-0.04653-3e-3 -0.10458-0.013137-0.12891-0.023437-0.04218-0.018-0.046909-0.018794-0.11523 0.003906-0.09696 0.0318-0.18658 0.031494-0.29102-0.003906-0.0462-0.0155-0.092522-0.029297-0.10156-0.029297-9e-3 0-0.053408 0.013797-0.09961 0.029297-0.10426 0.035-0.19803 0.035606-0.28906 0.003906l-0.066407-0.023438-0.068359 0.023438c-0.09087 0.0306-0.20106 0.031-0.2832 0-0.07844-0.0301-0.13445-0.0301-0.21289 0-0.08172 0.0314-0.19348 0.032053-0.2832 0.001953l-0.068359-0.023438-0.066406 0.023438c-0.09403 0.0317-0.19875 0.029841-0.29883-0.005859-0.04342-0.0154-0.094673-0.029297-0.11328-0.029297-0.01861 0-0.069863 0.013997-0.11328 0.029297-0.10008 0.0354-0.2048 0.037259-0.29883 0.005859l-0.066407-0.023438-0.068359 0.023438c-0.08943 0.0301-0.19552 0.028747-0.2793-0.001953-0.09963-0.0366-0.10675-0.036659-0.19726-0.005859-0.10734 0.036999-0.20609 0.039659-0.30274 0.005859-0.06717-0.0233-0.071705-0.023306-0.11133-0.003906-0.02475 0.0121-0.076257 0.02209-0.13281 0.02539-0.08147 5e-3 -0.10417 0.00101-0.17774-0.02539-0.09742-0.0355-0.15386-0.034794-0.25586 0.003906-0.08352 0.0314-0.19101 0.031953-0.28125 0.001953l-0.066406-0.023438-0.066407 0.023438c-0.0886 0.0299-0.20108 0.028447-0.2832-0.001953-0.09807-0.0364-0.11606-0.036759-0.20703-0.005859-0.10574 0.036499-0.20555 0.039512-0.30078 0.007812l-0.068359-0.023438-0.066406 0.023438c-0.090607 0.0305-0.1959 0.029847-0.2793-0.001953-0.079958-0.0304-0.1255-0.03037-0.20508 0-0.080058 0.0306-0.17962 0.031153-0.27539 0.001953l-0.074219-0.023438-0.068359 0.023438c-0.090177 0.0304-0.19539 0.029047-0.2793-0.001953-0.098967-0.0366-0.1161-0.036806-0.20898-0.003906-0.075088 0.0267-0.10006 0.02979-0.18359 0.02539l-0.095703-0.003906v0.087891c0 0.0639 0.0052761 0.08789 0.015625 0.08789 0.026769 0 0.095463 0.066305 0.11914 0.11524 0.021779 0.045 0.023438 0.068247 0.023438 0.30469v0.25586h-0.078125-0.080078v0.20703 0.20508l0.054688 0.039062c0.031329 0.0231 0.063285 0.060444 0.078125 0.089844 0.024099 0.0478 0.025391 0.064444 0.025391 0.30859v0.25586h-0.078125-0.080078v0.1582 0.1582h5.1484 5.1504v-0.1582-0.1582h-0.24414-0.24219v-0.25976c0-0.23357 0.002155-0.26512 0.021485-0.30274 0.08615-0.16748 0.31312-0.18704 0.42773-0.037109l0.037109 0.048828v-0.27734-0.27734h-0.24414-0.24219v-0.25977c0-0.29213 0.006038-0.31499 0.085938-0.38086 0.11433-0.094199 0.29029-0.068465 0.36719 0.052735l0.033203 0.050781v-0.1543-0.1543h-0.046875c-0.02501 0-0.075175-0.010637-0.11328-0.023437l-0.070312-0.023438-0.076172 0.025391c-0.09718 0.0312-0.22272 0.024828-0.3125-0.013672l-0.058594-0.02539zm-11.594 0.001953-0.099609 0.003906-0.097656 0.003906-0.0039063 1.1445c-0.0016 0.62964-0.0010367 1.1505 0.0019531 1.1582 0.0037 0.009999 0.034965 0.013671 0.10156 0.013671h0.097656v-1.1621-1.1621zm0.12305 0v1.1621 1.1621h0.20312 0.20312v-0.15625-0.1582h-0.10742-0.10742v-0.2793c2.12e-4 -0.25086 0.0039385-0.28331 0.023438-0.32617 0.028319-0.0624 0.079004-0.096297 0.14258-0.091797l0.048828 0.003906v-0.22852-0.22852h-0.10742-0.10742v-0.2793c2.12e-4 -0.25087 0.0039385-0.28526 0.023438-0.32812 0.028319-0.0624 0.079004-0.094344 0.14258-0.089844l0.048828 0.001953v-0.082031-0.082031h-0.20312-0.20312zm26.031 0-0.058594 0.02539c-0.08843 0.0386-0.22506 0.043519-0.3125 0.011719l-0.066406-0.023438-0.068359 0.023438c-0.03741 0.0126-0.09103 0.021484-0.11914 0.021484h-0.050781v0.095704c0 0.052699 0.002559 0.097656 0.005859 0.097656s0.018586-0.010785 0.035156-0.021485c0.02164-0.0142 0.052313-0.019831 0.10938-0.019531 0.08644 3.2e-4 0.12631 0.016913 0.17969 0.070313 0.06677 0.0668 0.070349 0.076518 0.074218 0.36133l0.001954 0.26172h-0.20312-0.20312v0.22656 0.22461l0.052734-0.023437c0.11871-0.0525 0.26194-0.002029 0.32227 0.11328l0.03125 0.060547v0.25195 0.25195h-0.20312-0.20312v0.1582 0.1582l5.1465-0.001953 5.1445-0.003906 0.003907-0.15625 0.001953-0.1543h-0.125-0.125l0.003906-0.26367 0.003906-0.26172 0.03125-0.052735c0.03453-0.0587 0.10384-0.10841 0.16992-0.11914l0.041016-0.00586v-0.20117-0.20312h-0.12305-0.125v-0.23828c0-0.13185 0.005649-0.25826 0.011718-0.2793 0.02494-0.087 0.10694-0.16117 0.19336-0.17578l0.042969-0.005859v-0.076172-0.076172l-0.097657 0.005859c-0.08114 4e-3 -0.11233-0.001304-0.16797-0.021484-0.10298-0.0374-0.11673-0.036759-0.19922-0.005859-0.09672 0.036599-0.20614 0.038759-0.29883 0.005859-0.0353-0.0124-0.068196-0.023438-0.072266-0.023438-0.0041 0-0.009552 0.027947-0.013672 0.060547-0.0041 0.0326-0.010392 0.073097-0.013672 0.091797-0.0058 0.0328-0.005095 0.035128 0.052735 0.048828 0.07234 0.0172 0.12952 0.061673 0.16406 0.12695 0.02473 0.0468 0.027344 0.059881 0.027344 0.30664v0.25781h-0.25-0.24805v-0.10352-0.10352l-0.078125 0.074219c-0.14685 0.13853-0.31298 0.23113-0.51562 0.28711l-0.10938 0.03125h-2.1445c-1.7836 0-2.155-0.002925-2.2207-0.015625-0.11126-0.0221-0.25671-0.075463-0.34766-0.12695-0.04822-0.0273-0.09327-0.042968-0.11719-0.042968-0.03237 0-0.037089-0.003991-0.037109-0.025391-1.1e-5 -0.0168-0.031657-0.057578-0.091797-0.11719-0.17888-0.17722-0.30057-0.41216-0.33203-0.64453-0.007599-0.0562-0.009635-0.060547-0.041015-0.060547-0.01818 0-0.060963-0.009284-0.095703-0.021484-0.06283-0.0221-0.063359-0.0221-0.12891 0-0.09255 0.0312-0.19935 0.02914-0.29883-0.005859-0.04342-0.0154-0.089153-0.027344-0.10156-0.027344-0.01241 0-0.058143 0.012044-0.10156 0.027344-0.10008 0.035399-0.2048 0.037259-0.29883 0.005859l-0.066406-0.023438-0.068359 0.023438c-0.08879 0.0299-0.1992 0.0304-0.28125 0-0.09843-0.0368-0.12589-0.038259-0.21875-0.005859-0.10572 0.036499-0.20556 0.039512-0.30078 0.007812l-0.068359-0.023438-0.070312 0.023438c-0.09206 0.0312-0.22147 0.026181-0.30859-0.011719l-0.060547-0.02539zm11.055 0v0.080078 0.078125h0.039063c0.05227 0 0.10184 0.030378 0.13281 0.080078 0.02361 0.0379 0.025391 0.050192 0.025391 0.32617v0.28711l-0.099609 0.003906-0.097657 0.003907v0.22461 0.22461h0.03711c0.04275 0 0.10169 0.034732 0.13672 0.082032 0.02228 0.03 0.022071 0.048159 0.025391 0.32422l0.003906 0.29297h-0.10156-0.10156v0.1582 0.1582h0.20703 0.20898v-1.1621-1.1621h-0.20898-0.20703zm0.54102 0v1.1621 1.1641l0.097656-0.003906 0.09961-0.001953v-1.1582-1.1562l-0.09961-0.001953-0.097656-0.003906zm2.1875 0-0.35156 0.003906-0.35352 0.001953-0.001953 1.1445c-0.0016 0.62964-0.00104 1.1524 0.001953 1.1602 0.0041 0.010899 0.085857 0.013671 0.35547 0.013671h0.34961v-1.1621-1.1621zm0.125 0v1.1621 1.1621h0.10156 0.10156v-1.1621-1.1621h-0.10156-0.10156zm-42.578 0.001953v1.1621 1.1602h0.10156 0.10156v-1.1602-1.1621h-0.10156-0.10156zm0.32617 0v1.1621 1.1621l0.35352-0.003906 0.35156-0.001953v-1.1562-1.1562l-0.35156-0.003906-0.35352-0.001953zm40.26 0.003906-0.001953 1.1445c-0.0016 0.62964-0.001004 1.1523 0.001953 1.1602 0.0043 0.011199 0.081282 0.014018 0.35742 0.011718l0.35352-0.003906v-1.1562-1.1562h-0.35547-0.35547zm0.83594 0-0.003906 1.1445c-0.0016 0.62964-0.00107 1.1522 0.001953 1.1602 0.0041 0.010699 0.032722 0.014118 0.10547 0.011718l0.099609-0.003906v-1.1562-1.1562h-0.10156-0.10156zm-40.266 0.001953-0.0039062 1.1445c-0.0016 0.62964 8.534e-4 1.1502 0.0039062 1.1582 0.00408 0.010699 0.03077 0.014118 0.10352 0.011718l0.099609-0.001953v-1.1562-1.1562h-0.10156-0.10156zm0.32617 0-0.0019531 1.1445c-0.0016 0.62964-0.0010383 1.1504 0.0019531 1.1582 0.00425 0.011199 0.08128 0.014018 0.35742 0.011718l0.35352-0.001953v-1.1562-1.1562h-0.35547-0.35547zm-0.81641 0.15234c0.054499-1.55e-4 0.10872 0.030477 0.14062 0.091797 0.012402 0.0238 0.015625 0.092839 0.015625 0.31836v0.28906h-0.15625-0.1582v-0.2793c2.221e-4 -0.25087 0.0020234-0.28526 0.021484-0.32812 0.027911-0.06149 0.08222-0.091642 0.13672-0.091797zm1.1855 0c0.051491-0.001323 0.10344 0.024875 0.13672 0.078125 0.023599 0.0379 0.025391 0.050192 0.025391 0.32617v0.28906l-0.15625 0.001953c-0.12772 3e-3 -0.15692-1.52e-4 -0.16211-0.013671-0.0034433-0.010558-0.0039394-0.13646-0.0019531-0.2832 0.0034-0.24482 0.0062947-0.27234 0.027344-0.3125 0.028834-0.05496 0.079369-0.084615 0.13086-0.085937zm39.086 0c0.049782 0.00295 0.097484 0.029678 0.125 0.080078 0.01774 0.0325 0.020358 0.074045 0.023437 0.32812l0.003907 0.28906h-0.1582-0.16016l0.003907-0.30078c0.0031-0.28128 0.00439-0.304 0.02539-0.33203 0.03504-0.0467 0.086937-0.067403 0.13672-0.064453zm1.1406 0.001953c0.032123-0.002375 0.066678 0.003781 0.091797 0.019531 0.07289 0.0457 0.079798 0.082105 0.080078 0.39648v0.2793h-0.1582-0.1582v-0.28711c0-0.3095 0.001847-0.32212 0.060547-0.37695 0.020485-0.01915 0.051861-0.028875 0.083984-0.03125zm-35.824 0.042969c0.063676-5.5e-4 0.12932 0.025702 0.17969 0.076172 0.06677 0.0668 0.068395 0.076518 0.072265 0.36133l0.003907 0.26172h-0.25586-0.25391v-0.23242c0-0.27989 0.0074671-0.31576 0.078125-0.38867 0.049674-0.05127 0.11211-0.077575 0.17578-0.078125zm1.8555 0c0.07388 0 0.16574 0.049028 0.20898 0.11133l0.033204 0.048828 0.003906 0.26953 0.003906 0.26953h-0.25-0.24805v-0.25391c0-0.26561 0.003178-0.28189 0.054688-0.35156 0.03635-0.0492 0.12763-0.09375 0.19336-0.09375zm3.7109 0c0.074079 0 0.16569 0.048928 0.20898 0.11133l0.033203 0.048828 0.003906 0.26953 0.001953 0.26953h-0.24805-0.25l0.003906-0.26953 0.003906-0.26953 0.033203-0.048828c0.0433-0.0624 0.13491-0.11133 0.20898-0.11133zm0.92187 0c0.09671 0 0.18493 0.053322 0.23047 0.13867 0.02331 0.0437 0.025747 0.065347 0.029297 0.30469l0.003906 0.25586h-0.25391-0.25586v-0.25195c0-0.24659 0.00129-0.25238 0.029297-0.30859 0.04099-0.0823 0.12972-0.13867 0.2168-0.13867zm17.266 0c0.087721 9.87e-4 0.17507 0.048397 0.21875 0.13867 0.021789 0.045 0.023437 0.068247 0.023437 0.30469v0.25586h-0.24805-0.24805v-0.25391-0.25195l0.03125-0.060547c0.046615-0.089225 0.13494-0.1338 0.22266-0.13281zm-22.828 0.001953c0.087753-0.001155 0.17411 0.043822 0.2207 0.13281l0.03125 0.058594v0.25391 0.25195h-0.25391-0.25586l0.005859-0.25586c0.0041-0.23633 0.004834-0.25988 0.027344-0.30273 0.047435-0.09037 0.13686-0.13752 0.22461-0.13867zm1.8594 0c0.08753 0.001001 0.17428 0.046174 0.22266 0.13672 0.02331 0.0437 0.025757 0.065347 0.029297 0.30469l0.003906 0.25586h-0.25391-0.25586v-0.25195-0.25391l0.033203-0.058594c0.046785-0.08955 0.13317-0.13381 0.2207-0.13281zm1.8516 0c0.087672-0.001005 0.1741 0.043472 0.2207 0.13281l0.03125 0.060547v0.25195 0.25195h-0.25391-0.25586l0.003906-0.25586c0.0039-0.23809 0.006257-0.26122 0.029297-0.30469 0.047785-0.09032 0.13694-0.13571 0.22461-0.13672zm18.186 0c0.090251 2.31e-4 0.18138 0.044954 0.22461 0.13672 0.02235 0.0475 0.023438 0.07093 0.023438 0.30664v0.25391h-0.24805-0.24805v-0.25586c0-0.23646 0.001668-0.25969 0.023438-0.30469 0.044389-0.09169 0.13436-0.13695 0.22461-0.13672zm1.8145 0c0.074699-0.011753 0.153 0.012364 0.21484 0.074219 0.07234 0.0723 0.080078 0.10832 0.080078 0.39062v0.23047h-0.25391-0.25586l0.003906-0.26172c3e-3 -0.21822 0.007878-0.26852 0.023438-0.29688 0.04298-0.078345 0.1128-0.12497 0.1875-0.13672zm-25.615 0.003906c0.070695-0.015156 0.14705-2.94e-4 0.20898 0.050781 0.085817 0.0708 0.091413 0.097289 0.095703 0.38672l0.0039063 0.25586h-0.25391-0.25586v-0.25195c0-0.24659 0.0012919-0.25238 0.029297-0.30859 0.035904-0.07205 0.10118-0.11766 0.17188-0.13281zm4.6289 0.001953c0.041881-0.010762 0.087063-0.010393 0.13867 0.003907 0.05986 0.016599 0.14554 0.1042 0.16211 0.16406 0.0073 0.0264 0.013642 0.14282 0.013672 0.2832v0.24024h-0.25391-0.25391v-0.23242c0-0.27992 0.007466-0.31586 0.078126-0.38867 0.035634-0.03675 0.073353-0.05955 0.11523-0.070313zm3.7109 0c0.041842-0.010662 0.087277-0.010343 0.13867 0.003907 0.05986 0.016599 0.14554 0.10225 0.16211 0.16211 0.0073 0.0264 0.013642 0.14478 0.013671 0.28516v0.24024h-0.25391-0.25391v-0.23828c0-0.27814 0.005685-0.30818 0.078125-0.38281 0.035225-0.0363 0.073393-0.05965 0.11523-0.070313zm12.135 0.035157v1.0332 1.0312h0.69336 0.69336v-1.0312-1.0332l-0.33008 0.001953c-0.30453 7e-5 -0.32811-8.75e-4 -0.29688 0.015625 0.07261 0.0374 0.073948 0.039886 0.074218 0.35352v0.2832h-0.13476-0.13672v-0.28125c0-0.18562 0.005292-0.2901 0.013672-0.30859 7e-3 -0.0154 0.027535-0.035322 0.046875-0.044922 0.03247-0.016 0.011679-0.017378-0.29297-0.017578l-0.33008-0.001953zm-9.373 0.011718c0.037049 0.012013 0.068925 0.037213 0.085938 0.070313 0.0099 0.0193 0.015505 0.10616 0.015625 0.30078v0.27344h-0.14062-0.14258v-0.27734c0-0.30649 0.004612-0.32738 0.070312-0.36133 0.0328-0.01695 0.07428-0.017872 0.11133-0.00586zm10.562 0c0.0446 0 0.059187 0.006763 0.091797 0.039063l0.037109 0.037109v0.2832 0.2832h-0.13476-0.13477v-0.2832c0-0.17233 0.004609-0.28951 0.011719-0.30273 0.0175-0.0327 0.070236-0.056641 0.12891-0.056641zm-10.127 0.001953c0.05693 0 0.10964 0.022288 0.12695 0.054688 0.0071 0.0132 0.011719 0.13236 0.011719 0.30469v0.2832h-0.13477-0.13476v-0.2832-0.28516l0.039062-0.037109c0.03338-0.0315 0.049937-0.03711 0.091797-0.03711zm9.0684 0.001953c0.04953-0.012399 0.11816 0.00441 0.15234 0.03711l0.03125 0.03125v0.28516 0.28516h-0.13477-0.13476v-0.28516-0.28711l0.029297-0.029297c0.01648-0.0165 0.04172-0.03331 0.05664-0.03711zm-10.1 0.001954c0.036364-0.007525 0.078153-0.004432 0.10938 0.011718 0.06637 0.0343 0.068359 0.04639 0.068359 0.34961v0.27734h-0.13476-0.13477v-0.2832c0-0.17233 0.002656-0.29146 0.009766-0.30469 0.013615-0.02545 0.045667-0.043256 0.082031-0.050781zm2.709 0.050781c0.15863 8.27e-4 0.3187 0.062709 0.38086 0.18359 0.02057 0.04 0.021484 0.076502 0.021484 0.82617v0.78516h-0.40625-0.40625v-0.77734-0.77734l0.03125-0.060547c0.062442-0.1202 0.22028-0.18052 0.37891-0.17969zm5.8047 0.007812c0.1082 5e-4 0.14082 0.003391 0.19726 0.025391 0.08537 0.0333 0.17732 0.12233 0.19531 0.1875 0.0085 0.0308 0.013622 0.28609 0.013672 0.80859v0.76562h-0.41211-0.41211v-0.75c0-0.50586 0.003299-0.76825 0.011719-0.80859 0.01031-0.0492 0.024436-0.070388 0.072265-0.11719 0.08749-0.0856 0.16783-0.1121 0.33398-0.11133zm16.629 0.98438c0.05003-7e-5 0.10479 0.033025 0.13281 0.078125 0.02456 0.0395 0.025927 0.053002 0.029296 0.33203l0.003907 0.28906h-0.1582-0.1582v-0.28906c0-0.26991 6.25e-4 -0.29396 0.021485-0.32812 0.0274-0.0449 0.085726-0.082032 0.12891-0.082032zm-39.074 0.001954c0.052164-0.001713 0.10495 0.02418 0.13867 0.078124 0.023599 0.0379 0.025391 0.050183 0.025391 0.32617v0.28906l-0.15625 0.001953c-0.12772 3e-3 -0.15692-1.62e-4 -0.16211-0.013672-0.0034433-0.010557-0.0039394-0.13644-0.0019531-0.2832 0.0032-0.2343 0.0071316-0.27382 0.025391-0.31055 0.027889-0.056095 0.078696-0.086178 0.13086-0.08789zm4.4043 0c0.11038 0 0.21209 0.07667 0.24219 0.18164 0.0061 0.0211 0.011719 0.14547 0.011719 0.27734v0.24023h-0.24609c-0.13544 0-0.24977-0.002812-0.25391-0.007812-0.01252-0.0125-0.0091937-0.45725 0.0039063-0.50586 0.029769-0.11053 0.12853-0.18555 0.24219-0.18555zm24.656 0c0.098225-0.009996 0.19228 0.040897 0.24609 0.14062 0.02254 0.0418 0.024024 0.063172 0.027344 0.30078l0.003906 0.25781h-0.25586-0.25586l0.003906-0.26367 0.003907-0.26367 0.033203-0.054687c0.02475-0.04 0.051813-0.063038 0.095703-0.085937 0.032732-0.0171 0.064915-0.027919 0.097656-0.03125zm4.6602 0c0.10639 0.00277 0.2094 0.072137 0.24023 0.17969 0.0061 0.0211 0.009766 0.14743 0.009766 0.2793v0.24023h-0.25195-0.25391v-0.23242c0-0.13176 0.004669-0.25315 0.011719-0.28125 0.01565-0.0621 0.078961-0.13888 0.13867-0.16602 0.033829-0.015375 0.070004-0.020455 0.10547-0.019531zm6.5234 0c0.051247 0.001718 0.10152 0.032608 0.13086 0.089843 0.0243 0.0474 0.025391 0.060356 0.025391 0.32812v0.2793h-0.1582-0.1582v-0.28906c0-0.2699 0.002577-0.29396 0.023437-0.32812 0.033605-0.05511 0.085472-0.081797 0.13672-0.080078zm-41.434 0.001953c0.052602-0.002252 0.10648 0.024063 0.14062 0.080078 0.020828 0.0342 0.021445 0.056282 0.021484 0.32617v0.29102h-0.15625-0.1582v-0.2793c2.221e-4 -0.25086 0.0020234-0.28331 0.021484-0.32617 0.026604-0.05861 0.078257-0.089546 0.13086-0.091797zm7.4316 0c0.0787-5e-3 0.12634 0.010547 0.18555 0.060547 0.0732 0.061699 0.079798 0.093239 0.080078 0.38086v0.25586h-0.24805-0.25l0.003906-0.26953 0.003906-0.26758 0.03125-0.046875c0.04687-0.0708 0.1097-0.10795 0.19336-0.11328zm3.7109 0c0.0787-5e-3 0.12634 0.010547 0.18555 0.060547 0.0732 0.061699 0.079798 0.093239 0.080078 0.38086v0.25586h-0.25-0.24805l0.003906-0.26758 0.003906-0.26953 0.03125-0.046875c0.04687-0.0708 0.1097-0.10795 0.19336-0.11328zm0.91992 0c0.09154-7e-3 0.15519 0.018384 0.21289 0.083984 0.06097 0.0693 0.070146 0.1215 0.066406 0.38867l-0.003906 0.21875-0.25 0.003906-0.25195 0.001953v-0.25195-0.25195l0.03125-0.060547c0.04258-0.084 0.1047-0.12626 0.19531-0.13281zm17.258 0c0.032469-0.003186 0.0661-0.001513 0.099609 0.007812 0.05518 0.0154 0.12373 0.074526 0.14844 0.12891 0.0183 0.0403 0.021264 0.077525 0.021484 0.30274v0.25781h-0.24805-0.24805v-0.24805c0-0.15427 0.003679-0.2592 0.011719-0.2832 0.031432-0.093877 0.11744-0.15646 0.21484-0.16602zm3.752 0c0.0849 7e-3 0.14504 0.041358 0.19141 0.11133l0.03125 0.046875 0.001953 0.26953 0.003906 0.26953h-0.24805-0.25l0.003906-0.26953 0.001953-0.27148 0.035156-0.046875c0.02134-0.0303 0.056923-0.061532 0.095703-0.082032 0.05438-0.0287 0.070526-0.032143 0.13281-0.027343zm0.87109 0c0.07462-0.01048 0.15489 0.014282 0.21484 0.076171 0.07064 0.0729 0.078125 0.10878 0.078125 0.38867v0.23242h-0.25391-0.25391v-0.25391-0.25195l0.03125-0.060547c0.03964-0.07587 0.10897-0.12038 0.18359-0.13086zm1.9043 0c0.032315 0.001936 0.066224 0.008672 0.097656 0.023437 0.06632 0.0311 0.086236 0.052874 0.11719 0.12109 0.02082 0.0459 0.023208 0.072871 0.023438 0.30078v0.25195h-0.24805-0.24805v-0.25976c0-0.23633 0.001254-0.26506 0.021484-0.30469 0.046095-0.09036 0.13938-0.13862 0.23633-0.13281zm0.89844 0c0.085309-0.005089 0.17482 0.030263 0.22852 0.11133l0.03125 0.046875 0.001953 0.26953 0.003906 0.26953h-0.24805-0.25v-0.25391c0-0.23488 0.003361-0.2578 0.025391-0.30469 0.04076-0.086709 0.12172-0.13358 0.20703-0.13867zm-30.197 0.001953c0.08056 7e-3 0.14258 0.043498 0.1875 0.11133l0.03125 0.046875 0.001953 0.26758 0.003907 0.26953h-0.24805c-0.20972 0-0.25047-0.003878-0.25586-0.017578-0.003499-9e-3 -0.004353-0.12392-0.001953-0.25586 0.0039-0.21934 0.005084-0.24488 0.027344-0.28711 0.05257-0.0996 0.14066-0.14504 0.25391-0.13476zm2.7207 0c0.092721-0.012863 0.19163 0.022111 0.24805 0.11328l0.035157 0.056641 0.003906 0.26172 0.003906 0.26367h-0.25586-0.25391v-0.24023c0-0.13187 0.005699-0.25621 0.011719-0.27734 0.029575-0.10312 0.11431-0.16487 0.20703-0.17773zm3.7109 0c0.092721-0.012863 0.19163 0.022111 0.24805 0.11328l0.035156 0.056641 0.003906 0.26172 0.001953 0.26367h-0.25391-0.25391v-0.24023c0-0.13187 0.003746-0.25621 0.009766-0.27734 0.029575-0.10312 0.11626-0.16487 0.20898-0.17773zm15.469 0c0.068404 0.009337 0.13366 0.044769 0.17578 0.10547l0.033203 0.048829 0.003907 0.27148 0.003906 0.26953h-0.25-0.24805v-0.25781c2.82e-4 -0.29005 0.007164-0.31946 0.083984-0.38281 0.057216-0.04715 0.12886-0.064025 0.19727-0.054687zm-20.129 0.001953c0.05405-0.011506 0.11364-0.0064 0.16211 0.015625 0.06584 0.0299 0.12402 0.10324 0.13867 0.17383 0.0069 0.033 0.011476 0.15219 0.009766 0.27734l-0.003907 0.2207-0.25 0.003906-0.25195 0.001953v-0.24805c0-0.26645 0.0049-0.29173 0.0625-0.36719 0.029445-0.0386 0.078762-0.066619 0.13281-0.078125zm1.8535 0c0.12122-0.027629 0.25917 0.036289 0.29688 0.16211 0.0079 0.0265 0.011719 0.1369 0.011719 0.28711v0.24414h-0.24805c-0.20907 0-0.24851-0.001925-0.25391-0.015625-0.0035-9e-3 -0.006306-0.12587-0.003906-0.25781 0.0047-0.2634 0.012787-0.28994 0.085937-0.35938 0.032294-0.030648 0.070923-0.051338 0.11133-0.060547zm21.902 0c0.11789-0.022906 0.24616 0.039807 0.28711 0.16211 8e-3 0.024 0.011719 0.12893 0.011719 0.2832v0.24805h-0.24805-0.24805v-0.25781c2.81e-4 -0.29139 0.006727-0.3194 0.085937-0.38477 0.033595-0.02771 0.072031-0.043146 0.11133-0.050781zm-27.48 0.005859c0.057378-0.017448 0.12042-0.015399 0.17578 0.009766 0.065838 0.0299 0.12402 0.10324 0.13867 0.17383 0.0069 0.033 0.011476 0.15219 0.0097656 0.27734l-0.0039062 0.2207-0.25 0.001953-0.25195 0.003906 0.0039062-0.26367 0.0019531-0.26367 0.035156-0.054687c0.031509-0.05157 0.083247-0.08802 0.14062-0.10547zm26.674 0c0.057177 0.0175 0.10848 0.053619 0.14063 0.10547l0.035156 0.054687 0.003906 0.26367 0.001953 0.26367h-0.25391-0.25391v-0.23242c0-0.13176 0.004668-0.25315 0.011718-0.28125 0.01564-0.0621 0.07895-0.13888 0.13867-0.16602 0.055416-0.02515 0.1186-0.025313 0.17578-0.007813zm-6.1348 0.076172h0.13476 0.13477v0.30469 0.30469h-0.13477-0.13476v-0.30469-0.30469zm0.51758 0h0.13672 0.13476v0.30469 0.30469h-0.13476-0.13672v-0.30469-0.30469zm0.48633 0h0.13477 0.13476v0.30469 0.30469h-0.13476-0.13477v-0.30469-0.30469zm-11.109 0.001953 0.13086 0.001953 0.13281 0.003907 0.003906 0.30078 0.001953 0.30273h-0.13476-0.13477v-0.30469-0.30469zm0.99219 0h0.13476 0.13477v0.30469 0.30469h-0.13477-0.13476v-0.30469-0.30469zm-0.48047 0.00586h0.13672 0.13476l0.001953 0.30078 0.003907 0.30273h-0.14062-0.14258l0.003906-0.30273 0.001953-0.30078zm-15.998 1.0293-0.16016 0.003906c-0.1417 4e-3 -0.16268 0.005837-0.16602 0.023437-0.00272 0.0141 0.0043195 0.019532 0.023438 0.019531 0.014583 0 0.036994 0.007979 0.050781 0.017579l0.025391 0.017578v0.54688 0.54688h0.11328 0.11328v-0.58789-0.58789zm3.2695 0v0.05664 0.058594h0.10742c0.063918 0 0.10742-0.005419 0.10742-0.011719 0-0.0237 0.046599-0.054687 0.080078-0.054687 0.026539 0 0.03408-0.004332 0.03125-0.019532-0.0032-0.0167-0.024082-0.02129-0.16406-0.02539l-0.16211-0.003906zm23.652 0-0.50977 0.005859c-0.28017 4e-3 -0.58651 0.007812-0.68164 0.007812h-0.17383v0.55859 0.55664h0.68359 0.68164v-0.56445-0.56445zm-26.799 0.001953v0.58594 0.58789h0.35547 0.35547l-0.0019532-0.58398-0.0039062-0.58398-0.35156-0.001953-0.35352-0.003906zm2.1895 0-0.099609 0.001953-0.097656 0.003906-0.0039063 0.58398-0.0019531 0.58398h0.10156 0.10156v-0.58789-0.58594zm0.12305 0v0.58789 0.58594h0.20898 0.20898v-0.11328-0.11328h-0.10156-0.10156v-0.31055c0-0.35503 0.0033177-0.3757 0.072266-0.39844 0.022709-7e-3 0.061529-0.012466 0.085938-0.009766l0.044922 0.003906v-0.058593-0.060547h0.14648 0.14648v-0.056641-0.05664h-0.35547-0.35547zm13.016 0v0.56445 0.56445h0.68359 0.68164v-0.56445-0.56445h-0.68164-0.68359zm12.34 0v0.16992 0.16797l0.052734-0.027343c0.066-0.0351 0.12992-0.035854 0.19531-0.001954 0.09352 0.0478 0.11385 0.13332 0.10938 0.44336l-0.001954 0.21289-0.17773 0.003907-0.17773 0.001953v0.10156 0.10156h5.4473 5.4473v-0.26562-0.26367l-0.041016-0.011719c-0.02326-6e-3 -0.0496-0.011719-0.05664-0.011719-0.03022-1.4e-4 -0.19802-0.095655-0.24805-0.14062l-0.054688-0.048828 0.003906 0.26953 0.003907 0.26953h-0.20508-0.20508l0.003907-0.26367c0.0035-0.25505 0.005533-0.26392 0.033203-0.31836 0.03895-0.076599 0.10291-0.10906 0.19336-0.10156l0.0625 0.003906-0.027343-0.058594c-0.01488-0.031899-0.034512-0.096481-0.044922-0.14453l-0.019532-0.08789h-5.1465-5.1465zm11.723 0-0.013672 0.076171c-0.02602 0.13935-0.12779 0.31695-0.23242 0.40234l-0.041016 0.03125v0.33203 0.33203h0.35547 0.35547v-0.58594-0.58789h-0.21094-0.21289zm0.54883 0v0.58789 0.58594h0.10156 0.10156v-0.58594-0.58789h-0.10156-0.10156zm1.1504 0v0.58789 0.58594h0.10742 0.10742l-0.003906-0.58398-0.001953-0.58398-0.10547-0.001953-0.10352-0.003906zm0.32617 0v0.58789 0.58594h0.35547 0.35547v-0.58594-0.58789h-0.35547-0.35547zm0.83594 0v0.58789 0.58594h0.11133 0.11328v-0.54688-0.54492l0.025391-0.019531c0.01379-0.01 0.036651-0.017579 0.050781-0.017579 0.01817 0 0.025391-0.005884 0.025391-0.021484 0-0.0215-0.00802-0.023437-0.16406-0.023437h-0.16211zm-24.066 0.003906-0.61719 0.001953-0.003906 0.95312c-0.0016 0.52418-0.001044 0.95904 0.001953 0.9668 0.0042 0.011 0.12044 0.015625 0.52539 0.015625h0.51953v-0.15039c0-0.12241 0.002208-0.15097 0.017578-0.16797 0.01713-0.0189 0.041483-0.021485 0.29883-0.021485h0.28125l-0.003906-0.26172-0.001953-0.26172-0.22266-0.003907-0.22266-0.001953v-0.21875c0-0.25098 0.013959-0.22591-0.12695-0.23828l-0.08789-0.007813 0.007812-0.052734c0.02494-0.16732 0.10757-0.35876 0.21875-0.5 0.01779-0.0226 0.033203-0.043075 0.033203-0.046875 0-4e-3 -0.27755-0.005906-0.61719-0.003906zm-17.355 0.001953-0.0039062 0.58398-0.0019532 0.58398h0.10742 0.10742l-0.0039063-0.58398-0.0019531-0.58398h-0.10156-0.10156zm0.32617 0-0.0019531 0.58398-0.0039063 0.58398h0.36133 0.36133l-0.0019532-0.58398-0.0039062-0.58398h-0.35547-0.35547zm2.4375 0v0.050781 0.050781l0.28906 0.003907 0.29102 0.001953v0.09375c0 0.0812 0.0028785 0.096614 0.023438 0.11523 0.01307 0.0118 0.035538 0.04356 0.048828 0.06836 0.022379 0.0418 0.023884 0.06432 0.027344 0.3125l0.0039062 0.26758h-0.052734-0.050781v0.10156 0.10156h5.1426 5.1445l-0.003906-0.58398-0.001953-0.58398h-5.4316-5.4297zm36.666 0-0.001953 0.58398-0.003906 0.58398h0.36133 0.36133l-0.001953-0.58398-0.003906-0.58398h-0.35547-0.35547zm-16.902 0.003906-0.03125 0.003906 0.050781 0.070313c0.0969 0.13144 0.186 0.34701 0.19727 0.47656l0.003906 0.042968-0.10547 0.011719-0.10742 0.011719-0.003906 0.22266-0.001953 0.22266-0.2168 0.001953-0.21875 0.003907-0.001953 0.26172-0.003906 0.26172h0.2793c0.24329 0 0.28081 0.002831 0.29883 0.019531 0.01802 0.0163 0.021484 0.038322 0.021484 0.16992v0.15039l0.52148-0.003906 0.52148-0.001953 0.001953-0.96094v-0.001953l0.003906-0.96094-0.58984-0.001953c-0.32416-2e-3 -0.60238-0.0015-0.61914 0zm16.07 0.2207c0.043931-0.003025 0.090019 0.008157 0.11914 0.035157 0.04422 0.041 0.052664 0.095257 0.052734 0.3418v0.22852h-0.15234-0.15234l0.003906-0.26172c0.0032-0.23195 0.005208-0.26603 0.023437-0.29297 0.02064-0.0304 0.061539-0.047757 0.10547-0.050782zm-39.09 0.001953c0.036328-2.19e-4 0.077553 0.007326 0.09375 0.015626 0.059492 0.031799 0.064453 0.061001 0.064453 0.39453v0.30469h-0.14648-0.14648l0.0019531-0.32617 0.0039062-0.32617 0.03125-0.03125c0.026478-0.026499 0.041012-0.03095 0.097656-0.03125zm1.1973 0c0.067788 0 0.081667 0.003097 0.10742 0.029297 0.01608 0.0161 0.033442 0.048066 0.039062 0.072266 0.0056 0.0242 0.0096156 0.17344 0.0097656 0.33008l0.0019531 0.2832h-0.15234-0.15234v-0.30469c0-0.39575 0.0039829-0.41016 0.14648-0.41016zm39.107 0c0.036217 0.007563 0.067821 0.026538 0.087891 0.054688 0.02485 0.0348 0.025847 0.044466 0.029296 0.29102l0.003907 0.25781h-0.15234-0.1543v-0.24219c0-0.27772 0.009639-0.31897 0.074219-0.34961 0.035015-0.0166 0.075111-0.019281 0.11133-0.011719zm1.1406 0c0.04452 0.005038 0.088459 0.023888 0.11133 0.054688 0.0221 0.0297 0.023994 0.047233 0.027344 0.28906l0.003906 0.25977h-0.15234-0.1543v-0.23438c0-0.24541 0.007915-0.30547 0.046874-0.3418 0.026985-0.02515 0.072668-0.032381 0.11719-0.027344zm-36.764 0.050782c0.074212 0.007618 0.1441 0.056633 0.16797 0.14258 0.0064 0.0231 0.011689 0.15494 0.011719 0.29297v0.25195h-0.20312-0.20312l0.0039063-0.26172c0.0035-0.25359 0.003981-0.26383 0.03125-0.31836 0.039709-0.07942 0.11719-0.11504 0.19141-0.10742zm8.3281 0c0.030451 2.87e-4 0.062053 0.008095 0.09375 0.023437 0.03852 0.0187 0.053355 0.035238 0.078125 0.085938 0.03101 0.0634 0.03082 0.064029 0.03125 0.31836l0.001953 0.25391-0.20703 0.003907-0.20508 0.001953v-0.23438c1.41e-4 -0.12886 0.005359-0.25724 0.011719-0.28516 0.024277-0.10639 0.10396-0.16883 0.19531-0.16797zm0.85352 0c0.073601-0.00761 0.1511 0.026229 0.19141 0.10547 0.02767 0.0544 0.02763 0.06353 0.03125 0.31836l0.003906 0.26367h-0.20312c-0.17212 0-0.20541-0.003478-0.21094-0.017578-0.01127-0.0294 0.003828-0.48317 0.017578-0.52734 0.0268-0.0862 0.09632-0.13497 0.16992-0.14258zm14.525 0c0.074213-0.007619 0.15365 0.028002 0.19336 0.10742 0.02725 0.0545 0.02764 0.064939 0.03125 0.31836l0.003906 0.26172h-0.20312-0.20508v-0.25195c0-0.13803 0.005309-0.2699 0.011719-0.29297 0.02387-0.085945 0.093756-0.13496 0.16797-0.14258zm6.5156 0c0.030567 3.12e-4 0.062418 0.008037 0.09375 0.023437 0.0411 0.0199 0.053955 0.036091 0.078125 0.087891 0.02898 0.0622 0.029117 0.066666 0.029297 0.31641v0.25391l-0.20508 0.003907-0.20508 0.001953v-0.22852c0-0.3143 0.019964-0.38836 0.11914-0.4375 0.029595-0.01465 0.059277-0.021797 0.089843-0.021484zm-28.361 0.001953c0.059642 0.00935 0.11653 0.044616 0.14648 0.10352 0.02767 0.0544 0.02763 0.06343 0.03125 0.31836l0.003906 0.26367h-0.20312c-0.17346 0-0.20528-0.003278-0.21094-0.017578-0.0037-0.01-0.004853-0.12429-0.001953-0.25586 0.0054-0.25467 0.01315-0.29744 0.06836-0.35742 0.04362-0.0474 0.10637-0.064037 0.16602-0.054687zm1.8027 0c0.059815-0.009394 0.12417 0.007122 0.16797 0.054687 0.05153 0.056 0.058594 0.1084 0.058594 0.37891v0.25195h-0.20312-0.20312l0.003906-0.26172c0.0034-0.25359 0.00398-0.26383 0.03125-0.31836 0.029545-0.05909 0.084716-0.096075 0.14453-0.10547zm0.94141 0c0.035026-0.002188 0.069423 0.003981 0.10156 0.019531 0.04174 0.0202 0.058355 0.035491 0.083985 0.087891l0.03125 0.064453v0.25391 0.25391l-0.20703 0.003907-0.20508 0.001953v-0.22461c0-0.30301 0.016247-0.37391 0.097657-0.42969 0.02818-0.0193 0.06263-0.029063 0.097656-0.03125zm0.9668 0c0.059641 0.00935 0.11653 0.044616 0.14648 0.10352 0.02765 0.0544 0.02749 0.06364 0.03125 0.31836l0.003906 0.26367h-0.20312c-0.17201 0-0.20543-0.003478-0.21094-0.017578-0.0036-9e-3 -0.004653-0.12412-0.001953-0.25586 0.0051-0.25522 0.012569-0.29681 0.068359-0.35742 0.043625-0.0474 0.10637-0.064037 0.16602-0.054687zm1.8047 0c0.059698-0.00829 0.12354 0.008522 0.16602 0.054687 0.05153 0.056 0.058594 0.1084 0.058594 0.37891v0.25195h-0.20312-0.20508l0.003906-0.26758c0.0036-0.26129 0.005693-0.26885 0.033203-0.31836 0.031335-0.056405 0.086787-0.091319 0.14648-0.099609zm18.227 0c0.074002 0.007682 0.14413 0.056723 0.16797 0.14258 0.0064 0.0231 0.011689 0.15494 0.011719 0.29297v0.25h-0.20312-0.20312l0.001953-0.26172c0.0035-0.25505 0.005534-0.26587 0.033204-0.32031 0.040274-0.079184 0.1174-0.1112 0.19141-0.10352zm3.7109 0c0.074002 0.007682 0.14413 0.056723 0.16797 0.14258 0.0064 0.0231 0.011689 0.15494 0.011719 0.29297v0.25h-0.20312-0.20508l0.003906-0.26172c0.0035-0.25505 0.005533-0.26587 0.033203-0.32031 0.040275-0.079184 0.1174-0.1112 0.19141-0.10352zm-26.594 0.001953c0.10487-0.0157 0.16895 0.015663 0.21484 0.10156 0.02349 0.044 0.025787 0.063214 0.029297 0.31445l0.003906 0.26758h-0.20508-0.20312v-0.25c0-0.28094 0.005836-0.31917 0.066406-0.38281 0.03085-0.0324 0.05241-0.044581 0.09375-0.050781zm21.982 0c0.032487 0.007773 0.064289 0.023919 0.089844 0.050781 0.05853 0.0615 0.066406 0.11061 0.066406 0.39062v0.24219h-0.20312-0.20312v-0.24219c0-0.14692 0.003849-0.26552 0.011719-0.29688 0.027847-0.1106 0.14082-0.16785 0.23828-0.14453zm1.8418 0c0.040538 0.006937 0.079386 0.025844 0.10938 0.058594 0.05313 0.0581 0.058404 0.10187 0.058594 0.37109l0.001953 0.24805-0.20117 0.003907c-0.16795 3e-3 -0.2017 2.28e-4 -0.20703-0.013672-0.0035-9e-3 -0.004053-0.12566-0.001953-0.25781 0.0037-0.23649 0.004196-0.24164 0.035156-0.30469 0.02516-0.0512 0.041488-0.067238 0.080078-0.085938 0.04217-0.0204 0.084462-0.026468 0.125-0.019531zm0.92188 0c0.034288 0.004562 0.068267 0.01595 0.089844 0.03125 0.01917 0.0136 0.045424 0.047672 0.058593 0.076172 0.02181 0.0472 0.023934 0.075533 0.027344 0.31445l0.003906 0.26172h-0.20508-0.20312v-0.25c0-0.14031 0.005129-0.2711 0.011719-0.29492 0.01567-0.0564 0.070967-0.11626 0.12109-0.13281 0.027075-0.00895 0.061415-0.010421 0.095703-0.005859zm0.94727 0c0.032558 0.007894 0.064144 0.025724 0.089843 0.052734 0.05704 0.06 0.066407 0.11331 0.066407 0.39453v0.23633h-0.20312-0.20312v-0.24219c0-0.14692 0.003848-0.26356 0.011718-0.29492 0.027938-0.11096 0.1406-0.17017 0.23828-0.14648zm2.6973 0c0.09793-0.0147 0.17014 0.022599 0.21094 0.10547 0.02563 0.0521 0.0277 0.066796 0.03125 0.31641l0.003906 0.26172h-0.20508c-0.17478 0-0.20515-0.002978-0.21094-0.017578-0.0037-0.01-0.004753-0.12443-0.001953-0.25586 0.0045-0.20812 0.009437-0.24648 0.029297-0.29102 0.02967-0.0667 0.080073-0.10976 0.14258-0.11914zm-24.637 0.001953c0.093959 0 0.12675 0.019963 0.16797 0.10156 0.02729 0.054 0.029743 0.064619 0.033203 0.31836l0.003907 0.26172h-0.20508-0.20313v-0.25781-0.25781l0.03125-0.060547c0.04429-0.0866 0.076834-0.10547 0.17188-0.10547zm25.604 0c0.09005-3e-5 0.1243 0.018603 0.16797 0.095703 0.02754 0.0486 0.02763 0.05674 0.03125 0.31836l0.003906 0.26758h-0.20312-0.20508l0.003906-0.26758c4e-3 -0.30034 0.009638-0.32657 0.085938-0.38477 0.03411-0.026 0.049939-0.029197 0.11523-0.029297zm-31.23 0.003906c0.046957-0.014861 0.10089-0.011223 0.15234 0.013672 0.038619 0.0187 0.054959 0.034638 0.080078 0.085938l0.03125 0.064453v0.25391 0.25391l-0.20703 0.003907-0.20703 0.001953 0.0039062-0.26172c0.0038-0.25791 0.0041342-0.26312 0.033203-0.31836 0.026014-0.04945 0.066324-0.082795 0.11328-0.097657zm9.4961 0.001953h0.13477 0.13476v0.31445 0.31641h-0.13476-0.13477v-0.31641-0.31445zm1.002 0h0.13672 0.13477v0.31445 0.31641h-0.13477-0.13672v-0.31641-0.31445zm9.1035 0h0.13476 0.13477v0.31445 0.31641h-0.13477-0.13476v-0.31641-0.31445zm0.51758 0h0.13672 0.13476v0.31445 0.31641h-0.13476-0.13672v-0.31641-0.31445zm-10.111 0.003907h0.13672 0.13476v0.31055 0.31055l-0.13281 0.003907c-0.10072 2e-3 -0.13441-5.79e-4 -0.13867-0.011719-0.0031-8e-3 -0.003653-0.15015-0.001953-0.31445l0.001953-0.29883zm10.604 0h0.13477 0.13477v0.31055 0.31055l-0.13281 0.003907c-0.10072 2e-3 -0.13441-5.79e-4 -0.13867-0.011719-0.0031-8e-3 -0.003653-0.15015-0.001953-0.31445l0.003906-0.29883zm-8.6348 0.005859h0.30469 0.30469v0.14062 0.14258h-0.30469-0.30469v-0.14258-0.14062zm5.8203 0h0.31055 0.30859v0.14062 0.14258h-0.30859-0.31055v-0.14258-0.14062zm15.312 0.2832c-0.0016 0-0.027573 0.010185-0.058593 0.021485-0.03102 0.0117-0.077157 0.024897-0.10352 0.029296l-0.048828 0.007813v0.26367 0.26367h0.10742 0.10742v-0.29297c0-0.16128-0.002407-0.29298-0.003907-0.29297zm-15.234 0.34961h0.23633 0.23828v0.20703 0.20898h-0.23828-0.23633v-0.20898-0.20703zm-5.8301 0.009765h0.23633 0.23633v0.20312 0.20312h-0.23633-0.23633v-0.20312-0.20312zm2.1094 0.125v0.26562 0.26367h0.32227 0.32226l-0.005859-0.16016c-4e-3 -0.0884-0.007812-0.20824-0.007812-0.26562v-0.10352h-0.31641-0.31445zm1.4531 0v0.10352c0 0.0574-0.001759 0.17722-0.005859 0.26562l-0.007813 0.16016h0.32227 0.32422v-0.26367-0.26562h-0.31641-0.31641zm-6.1465 0.17969v0.34375 0.3457h0.68359 0.68164v-0.3457-0.34375h-0.68164-0.68359zm10.105 0v0.34375 0.3457h0.68359 0.68164v-0.3457-0.34375h-0.68164-0.68359zm-23.924 0.044922c-1.69 0-1.8897 0.001978-1.9121 0.017578-0.024822 0.0174-0.025391 0.020933-0.025391 0.31445 0 0.16301 0.0036725 0.30056 0.0078125 0.30469 0.00414 4e-3 0.87386 0.007813 1.9336 0.007813h1.9277v-0.31055c0-0.29472-0.0027185-0.31116-0.023438-0.32227-0.01479-8e-3 -0.62872-0.011718-1.9082-0.011718zm2.0547 0v0.32226 0.32031h5.4473 5.4492l-0.003906-0.31836-0.001953-0.31836-5.4453-0.001953-5.4453-0.003906zm24.104 0v0.32226 0.32227h5.4473 5.4473v-0.32227-0.32226h-5.4473-5.4473zm12.963 0c-1.7188 0-1.8907 0.003331-1.916 0.019531l-0.027344 0.017578v0.30273 0.30469l1.9316-0.003906 1.9316-0.001953 0.001953-0.29883c0.0027-0.26515 0.001176-0.29981-0.015625-0.31836-0.01819-0.0201-0.084703-0.021484-1.9062-0.021484zm-25.279 0.18164h0.14062 0.14062v0.11719 0.11914h-0.14062-0.14062v-0.11914-0.11719zm0.51758 0h0.14258 0.14062v0.11719 0.11914h-0.14062-0.14258v-0.11914-0.11719zm0.49609 0h0.13672 0.13477v0.11719 0.11914h-0.13477-0.13672v-0.11914-0.11719zm9.1035 0h0.13476 0.13477v0.11719 0.11914h-0.13477-0.13476v-0.11914-0.11719zm0.51758 0h0.13672 0.13476v0.11719 0.11914h-0.13476-0.13672v-0.11914-0.11719zm0.48633 0h0.14062 0.14062v0.11719 0.11914h-0.14062-0.14062v-0.11914-0.11719zm-26.303 0.011719h0.17969 0.18164v0.11719 0.11914h-0.18164-0.17969v-0.11914-0.11719zm1.1836 0h0.1875 0.18555v0.11719 0.11914h-0.18555-0.1875v-0.11914-0.11719zm1.1504 0h0.1875 0.18555v0.11719 0.11914h-0.18555-0.1875v-0.11914-0.11719zm36.758 0h0.1875 0.18555v0.11719 0.11914h-0.18555-0.1875v-0.11914-0.11719zm1.1855 0h0.18555 0.18555v0.11719 0.11914h-0.18555-0.18555v-0.11914-0.11719zm1.1504 0h0.18555 0.18555v0.11719 0.11914h-0.18555-0.18555v-0.11914-0.11719zm-22.863 0.23633v0.10742 0.10742h2.3301 2.3281v-0.10742-0.10742h-2.3281-2.3301zm-14.344 0.71875c0.016562-5.3e-5 0.032924 0.007024 0.050781 0.019531 0.031239 0.0219 0.034448 0.08829 0.0058594 0.13086-0.01082 0.0161-0.085375 0.085027-0.16602 0.1543-0.1097 0.0942-0.15453 0.12693-0.17773 0.12695-0.01706 1e-5 -0.03125-0.003813-0.03125-0.007813s0.052248-0.091199 0.11523-0.19336c0.10281-0.16674 0.15344-0.23031 0.20312-0.23047zm-0.33594 0.003906c0.013821 8.75e-4 0.027157 0.009488 0.044922 0.023438 0.032869 0.0258 0.037832 0.075027 0.013672 0.11719-0.0075 0.0132-0.068481 0.08406-0.13672 0.15625-0.099777 0.10547-0.12935 0.13085-0.1543 0.13086-0.017059 0-0.03125-0.005219-0.03125-0.011719 0-7e-3 0.040366-0.095816 0.089844-0.19727 0.072378-0.14836 0.096067-0.18918 0.12305-0.20312 0.02213-0.01145 0.03696-0.0165 0.050781-0.015625zm13.639 0.53906c0.0019 0 0.003907 0.11834 0.003906 0.26172v0.25976l-0.046874-0.068359c-0.10819-0.16201-0.25694-0.22698-0.52539-0.22852-0.15333-8.8e-4 -0.2007 0.012966-0.24414 0.072266-0.02119 0.0289-0.024134 0.052228-0.027344 0.24219l-0.003906 0.20703 0.21289-0.003907c0.23743-4e-3 0.26674-0.010603 0.35547-0.095703l0.042968-0.041015v0.23047 0.23242l-0.046875-0.044922c-0.0857-0.0815-0.1231-0.091003-0.35742-0.095703l-0.20703-0.003906 0.003906 0.25195c0.0034 0.2397 0.005257 0.25344 0.029297 0.28711 0.04085 0.0573 0.094941 0.072466 0.26562 0.072266 0.08582-1e-4 0.1807-0.008178 0.22461-0.017578 0.1489-0.0316 0.26397-0.1176 0.3457-0.25781l0.035156-0.058594v0.2793c1.41e-4 0.15354-0.005166 0.2798-0.009765 0.2793-0.0047-5.1e-4 -0.027915-0.011638-0.052735-0.023438v0.001953c-0.04235-0.02-0.078702-0.023237-0.60547-0.023437-0.31414-1.8e-4 -0.5625-0.004566-0.5625-0.009766 0-5e-3 0.007779-0.015238 0.017578-0.023438 0.0098-0.007999 0.032249-0.040865 0.048829-0.072265l0.029297-0.056641v-0.67188-0.67188l-0.025391-0.050781c-0.01464-0.0279-0.040651-0.064931-0.056641-0.082031l-0.029297-0.029297h0.54492c0.52096 0 0.54514-0.001798 0.58984-0.023438 0.02568-0.0124 0.048851-0.023437 0.050781-0.023437zm2.0684 0 0.037109 0.023437c0.03712 0.0229 0.050817 0.023538 0.58398 0.023438 0.52411-3e-5 0.54683-0.001968 0.58203-0.023438l0.037109-0.021484v0.28516 0.2832l-0.027344-0.0625c-0.01444-0.0351-0.038347-0.087354-0.054687-0.11523-0.10846-0.18508-0.37273-0.24143-0.41406-0.087891-0.0084 0.0311-0.012035 0.23607-0.009765 0.63672 0.0033 0.58609 0.003687 0.58904 0.029297 0.64453 0.014139 0.0307 0.039047 0.071197 0.054687 0.091797l0.027344 0.039063h-0.2207c-0.12128 0-0.21875-0.004813-0.21875-0.007813s0.0131-0.023975 0.03125-0.046875c0.06905-0.0871 0.069876-0.091875 0.066406-0.76562l-0.001953-0.61328-0.029297-0.029297c-0.0647-0.0647-0.20993-0.041672-0.30664 0.048828-0.0611 0.0572-0.099933 0.11592-0.14062 0.21484l-0.02539 0.064453v-0.29102-0.29102zm15.328 0 0.035156 0.021484c0.03335 0.0182 0.089863 0.020191 0.61523 0.025391l0.57617 0.005859-0.052734 0.06836c-0.07283 0.0937-0.12343 0.20308-0.21484 0.45898-0.04249 0.11894-0.11908 0.33112-0.16992 0.4707-0.14173 0.3891-0.14926 0.41278-0.14453 0.49024 0.0033 0.053899 0.011656 0.078443 0.041016 0.12109l0.037109 0.054688h-0.25c-0.13677 0-0.24805-0.003813-0.24805-0.007813s0.021718-0.0315 0.048828-0.0625c0.05688-0.065 0.13408-0.19455 0.17383-0.29297 0.04913-0.12165 0.34918-0.96148 0.35742-1 0.0101-0.0472-0.009498-0.096927-0.048828-0.12305-0.04341-0.0288-0.2222-0.033966-0.31836-0.009766-0.16129 0.0406-0.29725 0.13962-0.39258 0.28711l-0.044921 0.072266v-0.28906-0.29102zm-27.229 0.001953v0.26172 0.26172l-0.03125-0.05664c-0.01787-0.0312-0.055944-0.077686-0.083984-0.10352-0.10801-0.0996-0.23945-0.14016-0.46094-0.14062-0.11944-2.5e-4 -0.13905 0.004344-0.18164 0.027344-0.074389 0.041-0.081897 0.063639-0.085937 0.29297l-0.003906 0.20117h0.19141c0.22826 0 0.28168-0.012791 0.36523-0.087891l0.054688-0.050781v0.22852 0.22852l-0.046875-0.042969c-0.08893-0.0803-0.12472-0.08955-0.35742-0.09375l-0.20703-0.003906 0.003906 0.24609c0.0033 0.21714 0.006641 0.25027 0.025391 0.28125 0.04006 0.0662 0.074626 0.077931 0.25 0.082031 0.17838 4e-3 0.28801-0.013247 0.38476-0.060547 0.06779-0.0332 0.17228-0.14077 0.21289-0.21875l0.027344-0.052734v0.2793c2.82e-4 0.15354-0.003213 0.2798-0.007813 0.2793-0.0047-5.1e-4 -0.029867-0.011638-0.054687-0.023438v0.001953c-0.04235-0.02-0.078704-0.023237-0.60547-0.023437-0.30862-1.4e-4 -0.56055-0.004766-0.56055-0.009766s0.010368-0.01945 0.023438-0.03125c0.032899-0.0298 0.061181-0.089436 0.076171-0.16016 0.01749-0.0825 0.01749-1.1851 0-1.2676-0.01499-0.0707-0.043272-0.13041-0.076171-0.16016-0.01307-0.0118-0.023438-0.02605-0.023438-0.03125 0-5e-3 0.2409-0.009765 0.53711-0.009765 0.50759-2.5e-4 0.54271-4.85e-4 0.58789-0.021485l0.046875-0.021484zm16.314 0c0.0033 0 0.006159 0.12026 0.00586 0.26758v0.26758l-0.029297-0.054687c-0.08941-0.17183-0.26446-0.25622-0.54102-0.25781-0.15792-9.1e-4 -0.20658 0.014878-0.25 0.080078-0.02413 0.0362-0.025391 0.049865-0.025391 0.24024v0.20117h0.19141c0.2219 0 0.27902-0.014197 0.36719-0.091797l0.050781-0.046875v0.23047 0.23047l-0.042968-0.041015c-0.02391-0.0227-0.06924-0.05356-0.09961-0.06836-0.05078-0.0248-0.070461-0.02725-0.25976-0.03125l-0.20703-0.003906v0.24023c0 0.27132 0.007739 0.29977 0.080078 0.3418 0.03329 0.0193 0.063538 0.024144 0.19336 0.027344 0.30985 8e-3 0.47336-0.065679 0.58398-0.26172 0.01971-0.0349 0.038506-0.0625 0.041016-0.0625 0.0025 0 0.003906 0.12342 0.003906 0.27539 0 0.15199-0.003112 0.27589-0.007812 0.27539-0.0047-5.1e-4 -0.029868-0.009685-0.054688-0.021485-0.04238-0.0201-0.077884-0.023237-0.61133-0.023437h-0.56836l0.033203-0.03711c0.01862-0.0212 0.045554-0.068675 0.058594-0.10352 0.023059-0.0616 0.023437-0.07961 0.023437-0.69336 0-0.60033-0.002338-0.63388-0.023437-0.68945-0.01221-0.0321-0.037531-0.077842-0.056641-0.10156l-0.035156-0.042969h0.54297c0.52011 0 0.54549-0.001768 0.58789-0.023438 0.02432-0.0124 0.045478-0.021484 0.048828-0.021484zm-12.99 0.009766c0.0025 0 0.003906 0.14506 0.003906 0.32031v0.31836l-0.056641-0.095703c-0.10241-0.17214-0.17087-0.2457-0.28125-0.29883-0.06785-0.0327-0.083759-0.035256-0.19336-0.035156-0.10626 7e-5 -0.12282 0.00425-0.17383 0.03125-0.11069 0.0583-0.19813 0.18415-0.24609 0.35742-0.02026 0.0732-0.023567 0.11672-0.023437 0.28906 1.41e-4 0.18862 0.00263 0.20882 0.03125 0.30274 0.0816 0.26816 0.24244 0.38888 0.47852 0.35547 0.12738-0.017999 0.2187-0.074809 0.26367-0.16211 0.03334-0.0647 0.041565-0.25228 0.015625-0.35352-0.01792-0.07-0.072891-0.16403-0.10352-0.17578-0.0085-3e-3 -0.015626-0.011178-0.015626-0.017578 0-8e-3 0.072966-0.011719 0.20898-0.011719h0.20898l-0.015625 0.03125c-0.03903 0.0758-0.043761 0.12308-0.050781 0.50781l-0.007813 0.38867-0.021484-0.025391c-0.03002-0.0337-0.085287-0.05664-0.13867-0.056641-0.02394 0-0.12032 0.015857-0.21289 0.035157-0.17614 0.0366-0.25025 0.037912-0.39453 0.007812-0.15878-0.0328-0.30461-0.14396-0.38086-0.28906-0.13781-0.26225-0.13891-0.75208-0.003906-1.0449 0.14074-0.30534 0.41405-0.42375 0.79492-0.3457 0.1521 0.0312 0.19882 0.030493 0.25976-0.003906 0.027-0.0154 0.052218-0.029297 0.054688-0.029297zm21.195 0h0.10352 0.10156l-0.009765 0.042968c-0.0049 0.0233-0.007813 0.36585-0.007813 0.75977 0 0.79345-0.003091 0.7621 0.074219 0.85938l0.033203 0.041016h-0.2207-0.2207l0.041016-0.056641c0.067409-0.098 0.066406-0.10419 0.066406-0.63672v-0.48438h-0.10156c-0.07207 6.5e-4 -0.1107 0.007485-0.13672 0.021485l-0.037109 0.019531v-0.125-0.12305l0.046875 0.015625c0.1886 0.0665 0.31632-0.064776 0.27734-0.28516l-0.009766-0.048828zm9.1719 0.001953 0.050781 0.027344c0.06582 0.034999 0.15084 0.036559 0.30859 0.005859 0.23908-0.0464 0.35039-0.040363 0.48242 0.023437 0.13781 0.0666 0.20703 0.18304 0.20703 0.35352 0 0.10848-0.025662 0.1994-0.076171 0.26758-0.01701 0.023-0.17396 0.15626-0.34766 0.29688-0.33666 0.27252-0.35503 0.29143-0.38867 0.36133-0.03179 0.066-0.028754 0.11384 0.009766 0.15234 0.04145 0.0414 0.093617 0.047716 0.29102 0.041016 0.21337-7e-3 0.28881-0.030994 0.37695-0.12109 0.04725-0.0483 0.080232-0.09887 0.12695-0.19336l0.0625-0.12695v0.32812c0 0.18145-0.003213 0.33054-0.007813 0.33008-0.0047-4.5e-4 -0.024358-0.011538-0.042968-0.023438-0.0321-0.0206-0.059013-0.019931-0.53516-0.019531-0.41394 2.8e-4 -0.50604 0.002125-0.5293 0.015625-0.015509 9e-3 -0.033482 0.015425-0.039062 0.015625-0.01512 6e-4 0.001083-0.22998 0.021484-0.30859 0.02503-0.0964 0.097717-0.23697 0.16406-0.31836 0.0388-0.0476 0.11937-0.11708 0.25586-0.21875 0.11012-0.082 0.23804-0.18004 0.2832-0.2168 0.12675-0.10315 0.17672-0.20941 0.14844-0.31445-0.01948-0.0723-0.052419-0.10918-0.12109-0.14062-0.05458-0.025-0.072639-0.027438-0.16602-0.023438-0.09334 4e-3 -0.11377 0.007322-0.18945 0.044922-0.10485 0.0518-0.20844 0.14971-0.28906 0.27344l-0.056641 0.089844v-0.30078-0.30078zm-2.6855 0.007812c0.3199 1.1e-4 0.50959 0.11899 0.55274 0.34766 0.03311 0.17547-0.029529 0.34195-0.1582 0.41797-0.0183 0.0108-0.033204 0.023444-0.033204 0.027344 0 4e-3 0.020352 0.016244 0.044922 0.027344 0.0652 0.0294 0.13844 0.10537 0.17578 0.18164 0.02847 0.0582 0.033519 0.081077 0.037109 0.18555 0.0048 0.13862-0.013429 0.22033-0.068359 0.30664-0.06223 0.0978-0.19261 0.18102-0.33398 0.21094-0.08543 0.0181-0.27768 0.024219-0.35742 0.011719-0.33175-0.0521-0.49315-0.23363-0.47656-0.53516 9e-3 -0.16315 0.082233-0.29225 0.20508-0.35742 0.02792-0.0148 0.050781-0.030656 0.050781-0.035156 0-5e-3 -0.01419-0.014538-0.03125-0.023438-0.04323-0.0226-0.095503-0.082538-0.12695-0.14258-0.02345-0.0448-0.027344-0.067281-0.027344-0.18164 0-0.11861 0.00289-0.13376 0.03125-0.19141 0.08246-0.16788 0.25163-0.25009 0.51562-0.25zm-39.41 0.025391h0.23828 0.23633l-0.0058594 0.037109c-0.00455 0.028 0.010557 0.090065 0.0625 0.24024 0.24989 0.72261 0.31049 0.90317 0.33789 1.0137l0.03125 0.12305 0.025391-0.11133c0.014128-0.0611 0.066657-0.22746 0.11523-0.37109 0.048577-0.14363 0.13469-0.39892 0.19141-0.56641 0.071291-0.21052 0.099941-0.3145 0.095703-0.33594l-0.0058593-0.029297h0.23633 0.23633l-0.037109 0.056641c-0.070718 0.1028-0.070312 0.079513-0.070312 0.7832v0.64258l0.027344 0.05664c0.014143 0.0307 0.037097 0.071197 0.052734 0.091797l0.029297 0.03711h-0.2207-0.2207l0.039062-0.052735c0.072154-0.10069 0.072661-0.11245 0.076172-0.77539l0.0039063-0.59766-0.10352 0.31055c-0.056715 0.17059-0.15829 0.4659-0.22461 0.6582-0.066315 0.19231-0.12102 0.37247-0.12305 0.40039l-0.0039062 0.050781-0.13086 0.003906-0.13086 0.001954v-0.054688c0-0.0308-0.0049197-0.070391-0.011719-0.08789-0.016685-0.0429-0.21548-0.61952-0.33594-0.97461l-0.097656-0.28711 0.0019531 0.27148c0.00153 0.14897 0.0042894 0.42328 0.0058594 0.60938 0.00276 0.32711 0.0038829 0.34032 0.029297 0.39648 0.014459 0.032 0.039682 0.067932 0.054688 0.082032 0.015007 0.0141 0.027344 0.030056 0.027344 0.035156 0 5e-3 -0.094222 0.009766-0.20898 0.009766-0.11476 0-0.20898-0.003766-0.20898-0.009766 0-5e-3 0.0082593-0.017144 0.019531-0.027344 0.037011-0.0335 0.06982-0.11631 0.082031-0.20703 0.00764-0.0568 0.010392-0.29372 0.0078125-0.65234-0.00452-0.6292-0.0044505-0.63365-0.083984-0.72656l-0.039062-0.044922zm3.8359 0h0.22656 0.22656l-0.039062 0.052734c-0.075748 0.10572-0.076206 0.10818-0.072266 0.69141 0.0035 0.5124 0.0045379 0.52451 0.029297 0.58594 0.042529 0.10543 0.11067 0.15413 0.24023 0.16797 0.15815 0.0169 0.2975-0.02035 0.35352-0.09375 0.059388-0.0779 0.064972-0.13133 0.070312-0.63477 0.0031-0.29131 0.0014835-0.49173-0.0058594-0.53906-0.01284-0.0825-0.044396-0.1511-0.089844-0.19922l-0.029297-0.03125h0.22266 0.22266l-0.033203 0.041015c-0.075828 0.0947-0.074891 0.076477-0.082031 0.69141-0.0067 0.57515-0.010503 0.6209-0.056641 0.72852-0.040259 0.0939-0.15311 0.1773-0.28906 0.21289-0.082078 0.0215-0.26954 0.031378-0.35742 0.017578-0.17433-0.0274-0.29774-0.10357-0.35742-0.21875-0.051888-0.10011-0.056983-0.16193-0.064453-0.74609-0.0078-0.60837-0.0064733-0.59117-0.082031-0.68555l-0.033203-0.041015zm10.104 0h0.22461l-0.025391 0.052734c-0.02207 0.0452-0.024515 0.06111-0.015625 0.09961 0.0058 0.0251 0.082537 0.19174 0.16992 0.37109l0.1582 0.32617 0.025391-0.044922c0.01366-0.0248 0.090078-0.17405 0.16992-0.33203 0.1644-0.3253 0.17492-0.36141 0.12695-0.43164l-0.029297-0.041015h0.21484 0.21289l-0.058594 0.072265c-0.06299 0.0764-0.082981 0.1105-0.38086 0.67188l-0.18164 0.34375 0.003907 0.19141c0.0056 0.21225 0.012922 0.2486 0.070312 0.33203l0.039063 0.056641h-0.21875c-0.12107 0-0.2207-0.003766-0.2207-0.009766 0-5e-3 0.007778-0.015238 0.017578-0.023438 0.0098-0.007999 0.032268-0.040865 0.048828-0.072265 0.02903-0.055 0.029613-0.065382 0.033203-0.26953l0.003906-0.21094-0.18945-0.35742c-0.26586-0.50428-0.30488-0.57738-0.35156-0.63476-0.02271-0.0279-0.048191-0.059413-0.056641-0.070313-0.01453-0.0187-0.003867-0.019531 0.20898-0.019531zm13.148 0h0.23047l-0.00586 0.035156c-0.0062 0.0392-0.01376 0.01787 0.23242 0.73047 0.07608 0.22022 0.15324 0.4556 0.16992 0.52344l0.029297 0.125 0.02539-0.11328c0.02179-0.0944 0.22651-0.71166 0.36914-1.1152 0.0272-0.077 0.037183-0.12538 0.033203-0.15039l-0.005859-0.035156h0.23633c0.12988 0 0.23633 0.002812 0.23633 0.007812s-0.012334 0.020957-0.027344 0.035157c-0.01501 0.0141-0.038274 0.052084-0.052734 0.083984l-0.027344 0.058594v0.64844 0.64844l0.027344 0.054687c0.01414 0.0307 0.037094 0.07315 0.052734 0.09375l0.029297 0.03711h-0.2207-0.2207l0.035156-0.046875c0.0787-0.10828 0.073158-0.049686 0.080078-0.99024l0.003907-0.39062-0.041016 0.13086c-0.02244 0.0717-0.12387 0.3686-0.22461 0.66016-0.13055 0.37784-0.18291 0.54579-0.18359 0.58398l-0.001953 0.052735h-0.13281-0.13281v-0.054688c0-0.032-0.014627-0.095407-0.035157-0.1543-0.11648-0.33408-0.2493-0.72044-0.32422-0.94336l-0.085938-0.25781 0.001953 0.24609c0.0015 0.13493 0.00436 0.40973 0.00586 0.61133l0.003906 0.36719 0.029297 0.0625c0.01628 0.0341 0.039544 0.072237 0.052734 0.085937s0.025391 0.02795 0.025391 0.03125c0 3e-3 -0.094226 0.00586-0.20898 0.00586-0.11369 0-0.2053-0.001934-0.20703-0.00586 0.001309-0.004554 0.015354-0.026842 0.035156-0.052734 0.0691-0.0905 0.070313-0.097231 0.070313-0.77539 0-0.67817-0.001211-0.68293-0.070313-0.77344-0.02065-0.0271-0.037109-0.051688-0.037109-0.054688s0.10369-0.005859 0.23047-0.005859zm12.363 0.14844c-0.25915-0.0196-0.40879 0.12702-0.36328 0.35156 0.01644 0.0811 0.11632 0.16443 0.22461 0.1875 0.06404 0.0136 0.19239 0.005022 0.25977-0.017578 0.06945-0.0237 0.14755-0.098743 0.16406-0.1582 0.05447-0.19613-0.063001-0.34651-0.28516-0.36328zm-0.046875 0.72461c-0.1255 7e-5 -0.14106 0.002403-0.20703 0.033203-0.08193 0.0378-0.14799 0.10714-0.16797 0.17383-0.0073 0.0243-0.013802 0.078394-0.013672 0.12109 4.94e-4 0.15498 0.083197 0.25929 0.23828 0.30273 0.08082 0.0226 0.27589 0.018034 0.35352-0.009765 0.08198-0.0293 0.16848-0.11917 0.19141-0.19727 0.03792-0.1292 0.011445-0.23687-0.078125-0.32422-0.08324-0.0812-0.1433-0.099699-0.31641-0.099609z" fill="#95969a"/>
</svg>
