<?xml version="1.0" encoding="UTF-8"?>
<!-- Created with Inkscape (http://www.inkscape.org/) -->
<svg width="50" height="50" version="1.1" viewBox="0 0 50 50" xmlns="http://www.w3.org/2000/svg">
 <g transform="matrix(1.3333 0 0 -1.3333 0 910.37)">
  <path transform="scale(1,-1)" d="m3.75-682.78c-2.0775 0-3.75 1.6725-3.75 3.75v30c0 2.0774 1.6725 3.75 3.75 3.75h30c2.0775 0 3.75-1.6726 3.75-3.75v-30c0-2.0775-1.6725-3.75-3.75-3.75h-30zm9.8262 10.087h1.5762c0.61238 0 0.98639 0.13894 1.2129 0.43213 0.33431 0.40032 0.34424 1.0471 0.34424 2.0376v1.352c0 0.99087-0.009927 1.6373-0.34424 2.0376-0.2265 0.29318-0.60051 0.43213-1.2129 0.43213h-1.5762c-0.04707 0-0.076119-0.01425-0.096679-0.03515-0.02105-0.0208-0.035157-0.04958-0.035157-0.09668v-6.0264c0-0.0477 0.014117-0.07704 0.035157-0.09814 0.02055-0.0207 0.049609-0.03516 0.096679-0.03516zm3.6709 0h2.9634c0.04722 0 0.075139 0.01446 0.096679 0.03516 0.02038 0.0211 0.035157 0.05044 0.035157 0.09814v0.53027c0 0.0471-0.014777 0.07598-0.035157 0.09668-0.02154 0.0208-0.049459 0.03516-0.096679 0.03516h-0.94775v5.3643c0 0.0471-0.013966 0.07598-0.035156 0.09668-0.02073 0.0209-0.0493 0.03515-0.09668 0.03515h-0.80566c-0.04737 0-0.0758-0.01425-0.09668-0.03515-0.02104-0.0208-0.035156-0.04958-0.035156-0.09668v-5.3643h-0.94629c-0.04755 0-0.077085-0.01426-0.098145-0.03516-0.02104-0.0208-0.035156-0.04958-0.035156-0.09668v-0.53027c0-0.0477 0.014116-0.07704 0.035156-0.09814 0.02106-0.0207 0.050595-0.03516 0.098145-0.03516zm3.6519 0h0.73682c0.04753 0 0.075769 0.01446 0.096679 0.03516 0.02104 0.0211 0.035157 0.05044 0.035157 0.09814v4.4487c0 0.48129 0.043529 0.74799 0.18604 0.90527 0.10635 0.11708 0.2472 0.16846 0.43066 0.16846 0.20323 0 0.34739-0.05485 0.44971-0.16699 0.15118-0.1658 0.18604-0.44233 0.18604-0.90674v-4.4487c0-0.0477 0.014606-0.07704 0.035156-0.09814 0.02073-0.0207 0.04961-0.03516 0.09668-0.03516h0.73682c0.04692 0 0.07658 0.01446 0.09668 0.03516 0.02119 0.0211 0.035156 0.05044 0.035156 0.09814v4.4502c0 0.60178-0.070553 1.0023-0.35889 1.3374-0.24563 0.28532-0.6447 0.45117-1.2642 0.45117-0.61321 0-1.0172-0.15669-1.2847-0.45117-0.2575-0.28273-0.3457-0.68952-0.3457-1.3374v-4.4502c0-0.0477 0.014117-0.07704 0.035157-0.09814 0.02106-0.0207 0.048949-0.03516 0.096679-0.03516zm-6.4556 0.73535v4.8208h0.55664c0.24548 0 0.39132-0.03972 0.50537-0.17578 0.17496-0.21014 0.19043-0.63316 0.19043-1.4883v-1.4912c0-0.85481-0.015468-1.2785-0.19043-1.4883-0.11406-0.13608-0.2599-0.17725-0.50537-0.17725h-0.55664zm0.89502 7.3784c3.2729 1.2736 3.5497 1.2736 6.8232 0l2.5269 1.3272-2.5269 1.3257c-3.2735-1.273-3.5504-1.273-6.8232 0l-2.5269-1.3257 2.5269-1.3272zm0 3.2798c3.2729 1.2733 3.5497 1.2733 6.8232 0l2.5269 1.3272-2.5269 1.3257c-3.2735-1.273-3.5504-1.273-6.8232 0l-2.5269-1.3257 2.5269-1.3272zm0 3.2798c3.2729 1.273 3.5497 1.273 6.8232 0l2.5269 1.3257-2.5269 1.3272c-3.2735-1.273-3.5504-1.273-6.8232 0l-2.5269-1.3272 2.5269-1.3257z" fill="#95969a" stroke-width=".75"/>
 </g>
</svg>
