<?xml version="1.0" encoding="UTF-8"?>
<svg width="50" height="50" data-name="Layer 1" version="1.1" viewBox="0 0 50 50" xmlns="http://www.w3.org/2000/svg">
 <defs>
  <style>.cls-1{fill:url(#linear-gradient);}.cls-2{fill:#4e4e4e;}</style>
  <linearGradient id="linear-gradient" x1="7.99" x2="299.74" y1="161.04" y2="16.93" gradientTransform="matrix(.13586 0 0 .13586 3 13.452)" gradientUnits="userSpaceOnUse">
   <stop stop-color="#007" offset="0"/>
   <stop stop-color="#1062fe" offset="1"/>
  </linearGradient>
 </defs>
 <path d="m-57.177 22.189c-2.77 0-5 2.23-5 5v40c0 2.77 2.23 5 5 5h40c2.77 0 5-2.23 5-5v-40c0-2.77-2.23-5-5-5z" fill="#95969a"/>
 <path d="m-57.665 50.172 0.05751-0.12643h0.69275l0.0575 0.12643 0.05751 0.12643h0.38767v-0.09586l-0.54506-1.1938-0.56703-0.03036-0.55392 1.1809v0.13908h0.35556zm0.22099-0.49308 0.03504-0.11379 0.07775-0.15172 0.07775-0.15172 0.09123 0.20229 0.09123 0.20229 0.0013 0.06321 0.0013 0.06322h-0.41069zm2.5367 0.35401 0.01539-0.24022h0.69573l0.01537 0.24022 0.0154 0.24022 0.37864 0.03138v-1.3271l-0.37864 0.03138-0.0154 0.24022-0.01537 0.24022h-0.70126v-0.50572h-0.40388v1.2475l0.0721 0.07222 0.30654-0.0301zm3.787 0.10115 0.01598-0.13908h-1.0164v-0.25286h0.86527l-0.01614-0.11379-0.01614-0.11379-0.833-0.02936v-0.19454l0.98446-0.02892 0.01598-0.13908 0.01598-0.13907h-1.4203v1.3177l1.3883-0.02814zm1.5032 0.03793 0.0827-0.12643h0.64237l0.0844 0.12903 0.0844 0.12904 0.36362-0.03048-0.0164-0.10114-0.53399-1.1885h-0.57184l-0.28453 0.62365-0.28453 0.62365v0.06758h0.35107zm0.22386-0.44251 0.0013-0.06321 0.09354-0.20229 0.09353-0.20229 0.10067 0.22758 0.10067 0.22758-0.04362 0.07586h-0.34744zm3.4511 0.51181 0.12518-0.05713 0.05965-0.14425 0.05965-0.14425-0.02037-0.361-0.02038-0.361-0.23438-0.19012h-1.2509v1.3149h1.1564zm-0.8777-0.60031v-0.35401h0.6455l0.0613 0.16v0.42665l-0.06058 0.06069-0.06059 0.06069h-0.58563zm16.913 0.60383 0.32815-0.05284 0.55534-0.25269 0.43775-0.42473 0.14082-0.27815 0.14082-0.27815 0.05681-0.268 0.05681-0.26799v-4.2937h-1.0562l-0.01459 2.2378-0.01461 2.2378-0.12621 0.22499-0.12621 0.22499-0.3534 0.20746h-1.2621l-0.35339-0.20746-0.12621-0.22499-0.12621-0.22499-0.0146-2.2378-0.01459-2.2378h-1.0562v4.328l0.07548 0.29032 0.07549 0.29032 0.10589 0.20793 0.1059 0.20793 0.22329 0.23913 0.22329 0.23913 0.58839 0.26451 0.54594 0.09078 0.65631 0.011zm7.2086-0.51533 0.01443-0.49308h-3.2347v-0.05426l3.2303-4.1685 2.66e-4 -0.44251 5.32e-4 -0.44251h-4.6446v0.96088h3.2395l-0.01683 0.0492-0.01683 0.04921-3.2058 4.1443v0.86353l2.8524 0.02824 1.767-0.00156zm1.5534 0.47967 0.05331-0.03715 0.14412-0.40458 0.14412-0.40458 0.14777-0.39194 0.14777-0.39194 2.5911 0.001066 0.30291 0.82114 0.30291 0.82114 1.0854 0.02872v-0.12419l-1.119-2.9992-1.119-2.9993h-1.474l-2.1997 5.8917-0.02866 0.11379-0.02866 0.11379 0.99624-0.00156zm1.0347-2.7049 0.0026-0.06322 0.7801-2.2252 0.10614-0.01534 0.10614-0.01535 0.13168 0.36937 0.13168 0.36937 0.27832 0.80614 0.27831 0.80614v0.03132h-1.8174zm-23.024 1.3275v-1.3655h0.27874l2.0628 2.6334 0.12116 0.10072 1.2311-0.0285-2.5416-3.2236 0.39532-0.41759 2.0622-2.2252 0.13858-0.177h-1.2616l-2.1994 2.3516-0.2873 0.0317v-2.3833h-1.0602v6.0687h1.0602zm5.14 1.1 0.09873-0.26551 0.39037-1.0875 2.6155 0.02552 0.57785 1.5677 1.1231 0.02862-0.0022-0.02862-2.2467-6.0181-1.4773-0.02792-0.25772 0.68538-1.9735 5.2906v0.09534h1.0529zm0.89124-2.4528 0.0343-0.0885 0.38213-1.1 0.38213-1.1h0.23813v0.04252l0.80284 2.3344h-1.8738zm-20.672-0.26551v-0.65744h-0.3534v1.3149h0.3534zm2.4244 0.5563 0.04778-0.07586 7.79e-4 -0.29079 7.79e-4 -0.29079h-0.70679v0.25286h0.30291v0.20691l-0.68155-0.02988-0.01491-0.34136-0.01491-0.34136h0.70545l0.0624 0.10114h0.34744v-0.2832l-0.06059-0.06069-0.06058-0.06069h-1.2347l-0.15866 0.15894v0.99849l0.22718 0.16296 1.1903-0.0308zm2.4129-0.06321 0.01598-0.13908h-1.0164v-0.25286h0.86527l-0.01615-0.11379-0.01615-0.11379-0.833-0.02936v-0.19454l0.98446-0.02893 0.01598-0.13907 0.01598-0.13908h-1.4203v1.3177l1.3883-0.02814zm1.2714-0.32451v-0.48887l0.03787 0.03666 0.03786 0.03666 0.25303 0.43957 0.25303 0.43956h0.60461l0.01416-0.64794 0.01416-0.64794-0.3817 0.0316-0.05048 0.9103-0.14572-0.27744-0.14572-0.27744-0.23992-0.38071h-0.60455v1.2475l0.03365 0.03372 0.03365 0.03371h0.28608zm3.5005 0.42527 0.08682-0.06359 0.01117-0.15134 0.0112-0.15134-0.3371-0.03234-0.06005 0.08225-0.06005 0.08226-0.603-0.03102v-0.65744l0.68155-0.02988v0.15634h0.34259l0.03099-0.0809 0.031-0.0809-0.06403-0.13404-0.06404-0.13404-1.1989-0.02862-0.18832 0.17072v0.9452l0.10097 0.10114 0.10097 0.10115h1.0914zm2.4315-0.08812v-0.12643l-1.0415-0.02888 0.0159-0.11198 0.0159-0.11198 0.88999-0.02931-0.01587-0.11177-0.01587-0.11177-0.42863-0.02528-0.42862-0.02529-0.01646-0.08669-0.01649-0.0867 1.0417-0.02888 0.01611-0.14048 0.01611-0.14048-0.7229 0.01407-0.7229 0.01404-0.01436 0.57849-0.01437 0.57849 0.02596 0.06774 0.02595 0.06774 1.3904-0.02814zm-11.99-2.9332v-0.65744h-0.3534v1.3149h0.3534zm1.4136 0.177v-0.48044l0.07573 0.0026 0.50485 0.93269h0.60582l0.02826-1.2896h-0.35641v0.9103h-0.09367l-0.24279-0.45515-0.24278-0.45515h-0.6324v1.2475l0.03366 0.03371 0.03365 0.03371h0.28608zm3.0796-0.02265v-0.50308l0.53009-0.03058 0.01598-0.13908 0.01598-0.13908h-1.4708v0.30344h0.50485v0.94402l0.03366 0.03371 0.03366 0.03372h0.33656zm2.9187 0.34053 0.0158-0.13727-1.0413-0.02888v-0.20228l0.44499-0.01466 0.44499-0.01465-0.01587-0.11177-0.01587-0.11177-0.42862-0.02528-0.42862-0.02529-0.03292-0.1734 1.0417-0.02888 0.03196-0.27815h-1.4203v1.3177l1.3883-0.02814zm2.357 0.01085v-0.12643l-0.93398-0.0291v-1.0076h-0.40388v1.3178l1.3379-0.02824zm2.2878-0.01266 0.01598-0.13907h-0.96592v-1.0115h-0.40388v1.2475l0.07018 0.0703 1.2677-0.02818z" stroke-width=".050529"/>
 <path d="m5 0c-2.77 0-5 2.23-5 5v40c0 2.77 2.23 5 5 5h40c2.77 0 5-2.23 5-5v-40c0-2.77-2.23-5-5-5zm20.262 21.938 1.4766 0.02734 1.123 3.0098 1.123 3.0078 2e-3 0.01563v0.01367l-0.56055-0.01367-0.5625-0.01563-0.28906-0.7832-0.28711-0.7832-1.3086-0.01367-1.3086-0.01172-0.19531 0.54297-0.19336 0.54297-0.19922 0.53125h-1.0527v-0.09374l0.98828-2.6465 0.98633-2.6445 0.12891-0.34375zm-21.164 2e-3h0.35352v1.3145h-0.35352v-0.65625zm1.4141 0h0.63281l0.48438 0.91016h0.09374v-0.91016h0.35742l-0.01367 0.64453-0.01563 0.64453h-0.60547l-0.25195-0.46484-0.25195-0.4668-0.03906-2e-3 -0.03711-2e-3v0.96094h-0.28711l-0.0664-0.0664v-0.625zm2.5234 0h1.4707l-0.01563 0.13867-0.01563 0.14062-0.26562 0.01367-0.26367 0.01563v1.0059h-0.33788l-0.0664-0.0664v-0.94336h-0.50586v-0.15234zm2.4238 0h1.4199l-0.01563 0.13867-0.01563 0.14062-0.52148 0.01367-0.51953 0.01367 0.01563 0.08789 0.01563 0.08594 0.42969 0.02539 0.42773 0.02539 0.01758 0.11133 0.01563 0.11328-0.44531 0.01367-0.44531 0.01563v0.20117l0.52148 0.01563 0.51953 0.01367-0.01563 0.13672-0.01563 0.13672-0.69336 0.01563-0.69531 0.01367v-0.6582zm2.4238 0h0.4043v1.0078l0.4668 0.01563 0.4668 0.01367v0.25195l-0.66992 0.01563-0.66797 0.01367v-0.6582zm2.2715 0h0.4043v1.0117h0.96484l-0.03126 0.27734-0.63477 0.01563-0.63281 0.01367-0.07032-0.07032v-0.62305zm2.8281 0h1.0586v2.3828l0.14453-0.01563 0.14258-0.01563 1.1016-1.1758 1.0996-1.1758h1.2598l-0.06836 0.08984-0.06836 0.08789-1.0312 1.1113-1.0312 1.1133-0.19922 0.20898-0.19726 0.20898 2.543 3.2227-0.61719 0.01563-0.61523 0.01367-0.1211-0.10156-2.0625-2.6328h-0.2793v2.7305h-1.0586v-3.0332zm11.357 0h1.0566l0.01563 2.2383 0.01367 2.2383 0.12695 0.22461 0.125 0.22461 0.17774 0.10352 0.17578 0.10352h1.2637l0.35156-0.20703 0.12696-0.22461 0.12695-0.22461 0.01367-2.2383 0.01563-2.2383h1.0547v4.2949l-0.11328 0.53516-0.14062 0.27734-0.14063 0.2793-0.21875 0.21289-0.21875 0.21094-0.55468 0.25391-0.65625 0.10547-0.65625-0.0118-0.54688-0.08984-0.29492-0.13281-0.29297-0.13281-0.22461-0.23828-0.22266-0.24024-0.10546-0.20703-0.10547-0.20898-0.07618-0.28906-0.07617-0.29102v-2.1641zm5.5039 0h4.6445v0.88476l-1.6152 2.084-1.6152 2.0859v0.05273h3.2344l-0.01563 0.49414-0.01367 0.49219-0.88281 2e-3h-0.88477l-2.8516-0.02734v-0.86523l1.6035-2.0723 1.6016-2.0703 0.01758-0.05078 0.01562-0.04883h-3.2383v-0.48047zm7.3945 0h1.4746l1.1191 3 1.1191 2.998v0.125l-0.54297-0.01367-0.54297-0.01563-0.30273-0.82031-0.30273-0.82226h-2.5918l-0.14844 0.39062-0.14648 0.39258-0.14454 0.4043-0.14453 0.4043-0.05273 0.03711-0.05469 0.03711-0.49805 2e-3h-0.49804l0.0293-0.11328 0.02929-0.11328 1.0996-2.9473zm0.82227 1.0566-0.10547 0.01563-0.10742 0.01563-0.38868 1.1133-0.39062 1.1113-2e-3 0.06445-0.0039 0.0625h1.8184v-0.03126l-0.2793-0.80664-0.27734-0.80664-0.13086-0.36914zm-17.189 0.0059-0.38086 1.0996-0.38281 1.0996-0.03516 0.08984-0.0332 0.08789h1.873l-0.40039-1.168-0.40235-1.166v-0.04296h-0.11914zm-14.146 1.3594-0.01367 0.64844-0.01563 0.64648h-0.60352l-0.25391-0.43945-0.25195-0.43945-0.03906-0.03711-0.03711-0.03516v0.97656h-0.28516l-0.03516-0.0332-0.0332-0.0332v-1.248h0.60547l0.11914 0.19141 0.11914 0.18945 0.14648 0.27734 0.14648 0.27734 0.02539-0.45508 0.02344-0.45508 0.19141-0.01563zm1.0938 2e-3 0.59961 0.01563 0.59961 0.01367 0.06445 0.13476 0.0625 0.13281-0.0293 0.08203-0.03125 0.08008h-0.34375v-0.15626l-0.33984 0.01563-0.3418 0.01367v0.6582l0.30274 0.01563 0.30078 0.01563 0.1211-0.16406 0.33594 0.03126-0.01172 0.15234-0.0098 0.15039-0.08789 0.06445-0.08594 0.0625h-1.0918l-0.10156-0.09961-0.09961-0.10156v-0.94531l0.09375-0.08594zm3.6562 2e-3 -0.01758 0.14062-0.01563 0.14062-0.51953 0.01367-0.52148 0.01367 0.01563 0.08789 0.01758 0.08594 0.42774 0.02539 0.42969 0.02539 0.03126 0.22266-0.44531 0.01563-0.44531 0.01367-0.01563 0.11328-0.01563 0.11133 0.52148 0.01367 0.51953 0.01563v0.25195l-0.69531 0.01563-0.69531 0.01367-0.05078-0.13672 0.02734-1.1562 0.72461-0.01367zm-12.428 2e-3h0.35352v1.3145h-0.35352v-0.65625zm1.4727 0h1.2344l0.1211 0.1211v0.2832h-0.34766l-0.0625-0.10156h-0.70508l0.01563 0.3418 0.01367 0.3418 0.3418 0.01563 0.33984 0.01367v-0.20703h-0.30273v-0.25195h0.70703v0.29102l-2e-3 0.29102-0.04687 0.07617-0.04883 0.07422-0.5957 0.01563-0.59375 0.01563-0.11328-0.08203-0.11524-0.08008v-1l0.08008-0.07813zm2.3145 0h1.4199l-0.01563 0.13867-0.01563 0.14062-0.98438 0.02734v0.19532l0.41602 0.01367 0.41602 0.01563 0.01758 0.11328 0.01563 0.11328h-0.86523v0.25391h1.0156l-0.03126 0.27734-0.69531 0.01563-0.69336 0.01367v-0.66016zm-3.1816 2.4219 0.56641 0.03126 0.27344 0.5957 0.27148 0.59766v0.0957h-0.38672l-0.05859-0.12695-0.05664-0.125h-0.69336l-0.05664 0.125-0.05859 0.12695h-0.35547v-0.13867l0.27734-0.58984zm3.7363 0v1.3259l-0.37891-0.03126-0.01367-0.24023-0.01563-0.24024h-0.69531l-0.01563 0.24024-0.01563 0.24023-0.1543 0.01563-0.15234 0.01563-0.07227-0.07227v-1.248h0.4043v0.50586h0.70117l0.01563-0.24023 0.01367-0.24024 0.18945-0.01563zm1.2637 0.0059h1.4199l-0.01563 0.13867-0.01758 0.13867-0.49219 0.01563-0.49219 0.01367v0.19532l0.41797 0.01367 0.41602 0.01562 0.01563 0.11328 0.01563 0.11328h-0.86523v0.25391h1.0176l-0.01563 0.13867-0.01758 0.13867-0.69336 0.01367-0.69336 0.01563v-0.66016zm3.041 0h0.57226l0.53516 1.1875 0.0156 0.10156-0.36328 0.03126-0.08398-0.12891-0.08594-0.12891h-0.64062l-0.08399 0.125-0.08203 0.12695h-0.35156v-0.0664l0.28516-0.625zm2.2598 0h1.25l0.11719 0.0957 0.11719 0.09375 0.02148 0.36133 0.01953 0.36133-0.06055 0.14453-0.05859 0.14453-0.25 0.11328h-1.1562v-0.65625zm-10.031 0.27734-0.07617 0.15234-0.07812 0.15234-0.07032 0.22656h0.41016v-0.0625l-2e-3 -0.06445-0.0918-0.20117zm8.0488 0-0.09375 0.20312-0.09375 0.20117v0.06445l-2e-3 0.0625h0.34766l0.02148-0.03711 0.02148-0.03906-0.09961-0.22656zm2.3848 0.02539v0.70898h0.58594l0.1211-0.1211v-0.42774l-0.0293-0.08008-0.03125-0.08008h-0.32226z" fill="#95969a"/>
</svg>
