<?xml version="1.0" encoding="UTF-8"?>
<!-- Created with Inkscape (http://www.inkscape.org/) -->
<svg width="50" height="50" version="1.1" viewBox="0 0 50 50" xmlns="http://www.w3.org/2000/svg">
 <path d="m5 0c-2.77 0-5 2.23-5 5v40c0 2.77 2.23 5 5 5h40c2.77 0 5-2.23 5-5v-40c0-2.77-2.23-5-5-5h-40zm20.004 13.443c5.2231 0 5.505 0.001319 5.5352 0.011719 0.02 0.01 0.47363 0.30655 1.1855 0.78125l1.1543 0.76953h1.5859c1.7212 0 1.6465 1.57e-4 1.8262 0.035157 0.26401 0.053 0.52259 0.1736 0.74609 0.3457 0.086 0.066 0.25562 0.23963 0.32422 0.33203 0.1912 0.2575 0.30221 0.52652 0.34961 0.85742 0.010999 0.076 0.009765 0.36678 0.009765 6.4551 0 5.2254 2.34e-4 6.3873-0.009765 6.4473-0.057 0.5003-0.31003 0.94284-0.71094 1.2441-0.25501 0.1916-0.55395 0.30976-0.88086 0.34766-0.06 0.01-0.58931 0.009766-2.9141 0.009766h-2.8398l-0.037109-0.013672c-0.051-0.021-0.09609-0.063734-0.12109-0.11523-0.019-0.039-0.019531-0.047516-0.019531-0.10352 0-0.052-0.001375-0.063703 0.015625-0.095703 0.022-0.046 0.067078-0.092081 0.11328-0.11328l0.035156-0.015625h2.8516c2.7026 0 2.8532-6.25e-4 2.916-0.015625 0.30781-0.053 0.55446-0.18058 0.75976-0.39258 0.2203-0.2275 0.35035-0.51518 0.37305-0.83008 0.01-0.1201 2.34e-4 -12.656-0.009765-12.736-0.016-0.1423-0.057645-0.28598-0.12305-0.42188-0.2037-0.4206-0.6015-0.69849-1.0664-0.74609-0.045 0-0.5865-0.009766-1.6738-0.009766-1.4399 0-1.6096 2.34e-4 -1.6406-0.009765-0.027-0.01-0.29039-0.179-1.1914-0.7793l-1.1543-0.76953h-5.3965l-5.3945-0.001953-1.1582 0.77148c-0.90222 0.6012-1.1644 0.7716-1.1914 0.7793-0.031 0.009999-0.20069 0.009765-1.6406 0.009765-1.0873 0-1.6292 0.001719-1.6738 0.011719-0.45311 0.046-0.85198 0.318-1.0547 0.7207-0.057999 0.1161-0.096143 0.22968-0.12305 0.36328l-0.015625 0.070313v6.3711c0 4.5921 0.001818 6.3896 0.011718 6.4355 0.067 0.6088 0.55661 1.0965 1.1699 1.166 0.043 0 1.0703 0.011719 3.4863 0.011719h3.4258l-0.86328-1.2695c-1.0255-1.5068-1.0864-1.5958-1.1973-1.7812-0.27051-0.4522-0.48924-0.92586-0.65234-1.4102-0.58621-1.7411-0.49646-3.6144 0.25195-5.293 0.30031-0.6736 0.71009-1.3052 1.2207-1.8809 0.1047-0.1181 0.43674-0.45024 0.55664-0.55664 0.88712-0.7879 1.904-1.3322 3.0352-1.625 1.3325-0.345 2.7571-0.29869 4.0625 0.12891 1.0813 0.3541 2.0387 0.93642 2.8457 1.7324 0.37121 0.3661 0.66596 0.7243 0.95117 1.1543 0.66491 1.0024 1.0681 2.1412 1.1797 3.334 0.024 0.2603 0.029297 0.36864 0.029296 0.68164 1e-4 0.3478-0.010968 0.48588-0.042968 0.80078-0.1139 1.0388-0.46475 2.0692-1.0098 2.9648-0.095 0.157-0.17792 0.2814-0.70703 1.0586-0.25731 0.3779-1.5563 2.288-2.8867 4.2441-1.7757 2.6109-2.4279 3.5657-2.4531 3.5898-0.052 0.05-0.13227 0.072593-0.20117 0.058593v-0.009765c-0.045-0.01-0.091091-0.03536-0.12109-0.06836-0.015-0.017-0.84709-1.2369-1.8496-2.7109l-1.8242-2.6797h-3.5664c-2.2255-1e-4 -3.5948 2.35e-4 -3.6445-0.009765-0.53481-0.041-0.9998-0.29505-1.3164-0.71875-0.1897-0.2538-0.3088-0.55631-0.3457-0.87891-0.009999-0.059999-0.009765-1.2143-0.009765-6.4473 0-6.0883 0.001219-6.3792 0.011719-6.4551 0.047-0.3312 0.15605-0.59892 0.34766-0.85742 0.072-0.097 0.24769-0.2743 0.33789-0.3418 0.26081-0.1949 0.50964-0.30152 0.83984-0.35742 0.062-0.011 0.17057-0.010672 1.6875-0.013672h1.623l1.1543-0.77148c0.84902-0.5663 1.1641-0.7725 1.1875-0.7793 0.027-0.01 0.76875-0.009766 5.5352-0.009766zm-10.986 0.78516h1.2285 1.2285l0.041016 0.019531c0.083 0.041 0.12891 0.11498 0.12891 0.20898s-0.045404 0.16603-0.12891 0.20703l-0.041016 0.021485h-1.2188c-1.0683 0-1.2228 2.34e-4 -1.25-0.009766v0.001953c-0.06-0.019-0.11968-0.070406-0.14648-0.12891-0.02-0.043-0.0202-0.14225 0-0.18555 0.021-0.045 0.072937-0.095287 0.11914-0.11719l0.039062-0.017578zm10.736 2.8086c-0.33657 0.012543-0.67388 0.050157-1.0098 0.11328-0.87632 0.1646-1.7181 0.50509-2.4668 0.99609-0.32421 0.2125-0.60798 0.43533-0.89648 0.70312-1.2259 1.1379-1.988 2.6886-2.1406 4.3555-0.023 0.2482-0.02939 0.39273-0.02539 0.70703 0 0.2979 0.01125 0.36096 0.03125 0.59766 0.1031 1.0353 0.45165 2.0487 1.0098 2.9355 0.068 0.1074 0.077032 0.12224 0.082032 0.11914 0 0 0.36573-0.20081 0.80664-0.44141 0.44091-0.2407 1.0147-0.55291 1.2754-0.69531 0.26071-0.1423 0.96629-0.52777 1.5664-0.85547l1.0898-0.5957 0.25391-0.37305c0.57181-0.8414 0.59063-0.86821 0.61133-0.87891 0.049-0.025 0.10092-0.022234 0.13672 0.009766 0.011 0.01 0.20323 0.28854 0.42773 0.61914 0.22451 0.3307 0.41437 0.60578 0.42188 0.61328 0.01 0.01 0.26867 0.15257 0.58008 0.32226 0.31141 0.1697 1.3736 0.74966 2.3613 1.2891 0.98772 0.5393 1.7978 0.98047 1.8008 0.98047 0.01 0 0.1098-0.16047 0.1875-0.29297 0.55121-0.9408 0.86388-1.982 0.92578-3.0781 0.01-0.1511 0.01-0.57546 0-0.72656-0.049-0.8646-0.24921-1.6808-0.60742-2.4668-0.2511-0.5509-0.60023-1.0996-0.99414-1.5625-0.173-0.2032-0.44861-0.48725-0.63672-0.65625-0.37631-0.338-0.79352-0.63692-1.2402-0.88672-0.1308-0.073-0.45474-0.23246-0.58594-0.28906-0.9505-0.41025-1.9551-0.60013-2.9648-0.5625zm-1.7617 1.7227c0.11034 0.014125 0.21861 0.046656 0.32031 0.097656 0.1167 0.059 0.23154 0.14773 0.31055 0.24023l0.033203 0.039063h0.060547c0.068 0 0.15156 4.37e-4 0.22656 0.023437 0.063 0.016 0.17647 0.072382 0.23047 0.11328 0.056 0.041999 0.12796 0.11813 0.16406 0.17383 0.049 0.076 0.097165 0.20109 0.10547 0.27539 0 0.018 2.66e-4 0.018157 0.072266 0.035156 0.081 0.02 0.11693 0.035219 0.17773 0.074219 0.1116 0.072 0.19637 0.18706 0.23438 0.31836 0.019 0.066 0.021 0.22211 0 0.28711-0.017 0.063-0.069472 0.16499-0.10938 0.21289-0.077 0.093-0.19264 0.16425-0.30664 0.18945-0.056 0.012-0.081622 0.012718-1.377 0.011718-1.0889-2.99e-4 -1.3272 2.35e-4 -1.3633-0.009765l0.001954-0.003906c-0.145-0.029-0.27124-0.098879-0.37305-0.20508-0.057-0.059999-0.093851-0.11164-0.12695-0.18164-0.1263-0.2659-0.071985-0.58272 0.13672-0.79102 0.1151-0.1151 0.25743-0.18237 0.42774-0.20117 0.035 0 0.064406-0.008765 0.066406-0.009765 0 0 0.011484-0.026735 0.021484-0.052735 0.1186-0.3139 0.40126-0.55475 0.73047-0.62305 0.11325-0.0235 0.2256-0.027797 0.33594-0.013672zm-0.12891 0.22656c-0.34471 2e-4 -0.65154 0.23336-0.74414 0.56836-0.019 0.068999-0.025063 0.085315-0.039063 0.10352-0.026 0.033-0.043351 0.03611-0.16016 0.037109-0.1044 3e-4 -0.11016-4.68e-4 -0.16406 0.019532-0.078 0.028-0.12069 0.056634-0.17969 0.11523-0.089 0.089-0.12917 0.17909-0.13477 0.30469 0 0.087 0.010969 0.1456 0.042969 0.2168 0.069 0.1426 0.1939 0.23837 0.3457 0.26367 0.018 0 0.60698 0.009766 1.3086 0.009766 1.077 5e-4 1.2825-5.66e-4 1.3184-0.009766v-0.005859c0.023 0 0.059078-0.017344 0.080078-0.027344 0.049-0.023 0.11938-0.094278 0.14258-0.14258 0.063999-0.1336 0.038593-0.27991-0.066407-0.37891-0.071-0.067-0.12297-0.085891-0.23438-0.087891-0.09 0-0.10802-0.009922-0.13672-0.044922-0.016-0.021-0.019438-0.029462-0.023438-0.10156-0.01-0.095-0.015828-0.14424-0.048828-0.21094-0.092-0.187-0.28735-0.27963-0.50195-0.24023-0.038 0.01-0.070938 0.009766-0.085938 0.009766-0.028-0.01-0.060638-0.034229-0.11914-0.11133-0.1346-0.1749-0.3683-0.28731-0.59961-0.28711zm5.7695 2.0918c0.35831 0.061 0.64565 0.29632 0.78125 0.64062l0.019532 0.050781h0.05664c0.43371 0.032 0.73333 0.46572 0.61133 0.88672-0.062999 0.2173-0.23611 0.3967-0.44922 0.4668-0.1138 0.037-0.01875 0.034156-1.4258 0.035156-0.70852 6e-4 -1.3096 0-1.3359 0l0.001953-0.001953c-0.072-0.01-0.12531-0.021641-0.19531-0.056641-0.1138-0.056-0.1946-0.13855-0.25-0.25195-0.039-0.081-0.051641-0.12695-0.056641-0.21875 0-0.086 0.009156-0.15052 0.035156-0.22852 0.054-0.1398 0.17475-0.2587 0.31445-0.3125 0.04-0.015 0.067664-0.023157 0.13477-0.035157 0.011 0 0.016391-0.011547 0.025391-0.060546 0.043-0.2206 0.20686-0.4208 0.41406-0.5 0.095-0.037 0.12669-0.041922 0.24609-0.044922h0.11328l0.080078-0.080078c0.1487-0.1486 0.30045-0.2333 0.50195-0.2793 0.1095-0.025 0.26435-0.028766 0.37695-0.009766zm-0.16406 0.21484c-0.19806-1e-4 -0.39497 0.076969-0.54492 0.23047-0.029 0.028999-0.065984 0.073656-0.083984 0.097656-0.055 0.074-0.080443 0.0825-0.18555 0.0625-0.1045-0.02-0.2208-2.66e-4 -0.3125 0.052734-0.023 0.013-0.063797 0.048172-0.091797 0.076172-0.042 0.042-0.058031 0.061928-0.082031 0.11133-0.037 0.076-0.047782 0.12033-0.050781 0.20703 0 0.082-0.012782 0.10967-0.050782 0.13477-0.024 0.016-0.031609 0.015625-0.099609 0.015625-0.1168 0-0.18325 0.026703-0.25195 0.095703-0.076 0.076-0.11055 0.183-0.089844 0.2832 0.015 0.071 0.038844 0.11597 0.089844 0.16797 0.047 0.048 0.094441 0.075844 0.15234 0.089844 0.025999 0.01 0.31409 0.009765 1.3203 0.009765 1.1404 5e-4 1.2924-3.65e-4 1.3359-0.009765 0.029999-0.01 0.075832-0.023969 0.11523-0.042969 0.055-0.027 0.072484-0.039984 0.11719-0.083984 0.059-0.059 0.092785-0.11175 0.11719-0.18555 0.015-0.046 0.017578-0.059378 0.017578-0.14258 1e-4 -0.085 4.22e-4 -0.095479-0.017578-0.14258-0.026-0.073999-0.062438-0.13385-0.11914-0.18945-0.039-0.039-0.062772-0.055125-0.10938-0.078125-0.089-0.044-0.11792-0.049781-0.23633-0.050781-0.084-5e-4 -0.10655 2.81e-4 -0.12305-0.011719-0.027-0.015-0.044734-0.040265-0.052734-0.072265-0.043-0.1705-0.10599-0.28763-0.21289-0.39453-0.15305-0.1531-0.35273-0.23037-0.55078-0.23047zm-3.4648 2.7441c0-9e-4 -0.63735 0.92561-0.68945 1.0078l-0.011719 0.017578 0.15625 0.19531c0.1383 0.1739 0.15672 0.1951 0.16602 0.1875 0.01 0 0.092002-0.075503 0.19141-0.1582 0.1483-0.1239 0.18498-0.1521 0.20898-0.1582 0.037-0.01 0.070707-3.09e-4 0.099609 0.025391 0.013 0.012 0.078524 0.1158 0.17383 0.2793 0.084 0.1434 0.15415 0.26162 0.15625 0.26172 0 9.2e-5 0.008277-0.009153 0.009766-0.013671 0.047728-0.10488 0.25034-0.59998 0.24805-0.60547-0.01-0.014-0.70448-1.0378-0.70898-1.0391zm-0.8457 1.2383c-0.041 0.056-3.1855 4.6823-3.1855 4.6875 0 0.01 0.2914 0.43912 0.4707 0.69922l0.046875 0.06836h1.8027c1.0968-1e-4 1.8641 2.34e-4 1.9609-0.009766v0.005859c1.0251-0.040999 1.9851-0.28945 2.8848-0.74805 0.28511-0.1454 0.65533-0.36657 0.64453-0.38477-0.02-0.033-2.9051-4.2734-2.9082-4.2734 0 0-0.070388 0.15616-0.15039 0.34766-0.099 0.2366-0.15301 0.35444-0.16602 0.36914-0.045 0.051-0.12442 0.053-0.16992 0-0.01-0.01-0.094648-0.1498-0.18945-0.3125-0.095-0.1627-0.17534-0.29848-0.17774-0.30078 0 0-0.081529 0.062578-0.17773 0.14258-0.096 0.081-0.1826 0.1497-0.19141 0.1543-0.04 0.021-0.089044 0.017234-0.12305-0.009765-0.01-0.01-0.093748-0.11117-0.18945-0.23047-0.1592-0.1994-0.17354-0.21608-0.18164-0.20508zm2.0703 0.13086 0.11133 0.16406c0.061 0.091 0.25639 0.37993 0.43359 0.64063 0.1772 0.2607 0.74691 1.0978 1.2656 1.8613 0.51861 0.7635 0.94447 1.3885 0.94727 1.3887 0 1.99e-4 0.052073-0.033219 0.10938-0.074219 0.24071-0.1764 0.45211-0.35388 0.69531-0.58398 0.069-0.065 0.12022-0.12079 0.14062-0.15039 0.2684-0.3898 0.60566-0.89238 0.60156-0.89648 0 0-4.0154-2.1947-4.2383-2.3145l-0.066406-0.035156zm-2.4766 0.015625c-0.094 0.048-4.2682 2.3269-4.2754 2.334-0.009999 0.01 0.053293 0.095385 0.2168 0.33398 0.123 0.1802 0.42813 0.62734 0.67774 0.99414 0.24971 0.3667 0.45628 0.66501 0.45898 0.66211 0 0 0.1873-0.27672 0.41211-0.60742v0.003906c0.2248-0.3306 0.68488-1.0049 1.0215-1.5 0.73282-1.0779 1.4987-2.209 1.5059-2.2207 0-0.01 0.001422 0-0.017578 0zm5.6152 4.0566c-0.64202 0.4953-1.3672 0.87951-2.1367 1.1328-0.51911 0.1708-1.0579 0.28208-1.6035 0.33008-0.28151 0.025-0.28134 0.024344-2.1465 0.027344h-1.8281l1.6738 2.4609c0.92062 1.3532 1.6741 2.459 1.6758 2.459 0 0 0.96215-1.4052 2.1309-3.123 1.1704-1.7206 2.1543-3.1652 2.1855-3.2109 0.031-0.046 0.053828-0.080172 0.048829-0.076172z" fill="#95969a"/>
</svg>
