<?xml version="1.0" encoding="UTF-8" standalone="no"?>
<svg
   id="Lag_1"
   data-name="Lag 1"
   viewBox="0 0 50.000001 49.999998"
   version="1.1"
   width="50"
   height="50"
   sodipodi:docname="metriks-logo.svg"
   inkscape:version="1.2.2 (b0a8486541, 2022-12-01)"
   xmlns:inkscape="http://www.inkscape.org/namespaces/inkscape"
   xmlns:sodipodi="http://sodipodi.sourceforge.net/DTD/sodipodi-0.dtd"
   xmlns="http://www.w3.org/2000/svg"
   xmlns:svg="http://www.w3.org/2000/svg">
  <sodipodi:namedview
     id="namedview6722"
     pagecolor="#ffffff"
     bordercolor="#000000"
     borderopacity="0.25"
     inkscape:showpageshadow="2"
     inkscape:pageopacity="0.0"
     inkscape:pagecheckerboard="0"
     inkscape:deskcolor="#d1d1d1"
     showgrid="false"
     showguides="true"
     inkscape:zoom="15.456731"
     inkscape:cx="35.130325"
     inkscape:cy="30.407464"
     inkscape:window-width="2560"
     inkscape:window-height="1531"
     inkscape:window-x="0"
     inkscape:window-y="0"
     inkscape:window-maximized="1"
     inkscape:current-layer="Lag_1">
    <sodipodi:guide
       position="54.086469,55.434523"
       orientation="0,-1"
       id="guide6724"
       inkscape:locked="false" />
  </sodipodi:namedview>
  <defs
     id="defs835">
    <style
       id="style833">.cls-1{fill:#286779;}.cls-2{fill:#1787a8;}</style>
  </defs>
  <path
     id="rect6735"
     style="fill:#95969a"
     d="M 5 0 C 2.2300196 0 0 2.2300196 0 5 L 0 45 C 0 47.769979 2.2300196 50 5 50 L 45 50 C 47.769979 50 50 47.769979 50 45 L 50 5 C 50 2.2300196 47.769979 0 45 0 L 5 0 z M 32.808594 13.449219 A 2.1212938 2.1212938 0 0 1 34.929688 15.570312 A 2.1212938 2.1212938 0 0 1 32.808594 17.691406 A 2.1212938 2.1212938 0 0 1 31.902344 17.460938 L 27.085938 21.4375 A 2.1212938 2.1212938 0 0 1 27.121094 21.65625 A 2.1212938 2.1212938 0 0 1 25 23.777344 A 2.1212938 2.1212938 0 0 1 22.880859 21.667969 L 18.347656 18.644531 A 2.1212938 2.1212938 0 0 1 17.191406 19.001953 A 2.1212938 2.1212938 0 0 1 15.070312 16.880859 A 2.1212938 2.1212938 0 0 1 17.191406 14.759766 A 2.1212938 2.1212938 0 0 1 19.314453 16.880859 A 2.1212938 2.1212938 0 0 1 19.273438 17.142578 L 23.640625 20.052734 A 2.1212938 2.1212938 0 0 1 25 19.535156 A 2.1212938 2.1212938 0 0 1 26.177734 19.904297 L 30.771484 16.111328 A 2.1212938 2.1212938 0 0 1 30.685547 15.570312 A 2.1212938 2.1212938 0 0 1 32.808594 13.449219 z M 31.886719 19.535156 L 33.730469 19.535156 C 34.394975 19.535156 34.929688 20.069868 34.929688 20.734375 L 34.929688 35.351562 C 34.929688 36.016071 34.394975 36.550781 33.730469 36.550781 L 31.886719 36.550781 C 31.22221 36.550781 30.685547 36.016071 30.685547 35.351562 L 30.685547 20.734375 C 30.685547 20.069868 31.22221 19.535156 31.886719 19.535156 z M 16.269531 21.224609 L 18.113281 21.224609 C 18.77779 21.224609 19.314453 21.75932 19.314453 22.423828 L 19.314453 35.351562 C 19.314453 36.016071 18.77779 36.550781 18.113281 36.550781 L 16.269531 36.550781 C 15.605023 36.550781 15.070312 36.016071 15.070312 35.351562 L 15.070312 22.423828 C 15.070312 21.75932 15.605023 21.224609 16.269531 21.224609 z M 24.078125 25.544922 L 25.921875 25.544922 C 26.586383 25.544922 27.121094 26.079632 27.121094 26.744141 L 27.121094 35.351562 C 27.121094 36.016071 26.586383 36.550781 25.921875 36.550781 L 24.078125 36.550781 C 23.413617 36.550781 22.878906 36.016071 22.878906 35.351562 L 22.878906 26.744141 C 22.878906 26.079632 23.413617 25.544922 24.078125 25.544922 z " />
</svg>
