<?xml version="1.0" encoding="UTF-8"?>
<svg width="50" height="50" data-name="Layer 1" version="1.1" viewBox="0 0 50 50" xmlns="http://www.w3.org/2000/svg">
 <defs>
  <style>.cls-1{fill:url(#linear-gradient);}.cls-2{fill:#4e4e4e;}</style>
  <linearGradient id="linear-gradient" x1="7.99" x2="299.74" y1="161.04" y2="16.93" gradientTransform="matrix(.13586 0 0 .13586 3 13.452)" gradientUnits="userSpaceOnUse">
   <stop stop-color="#007" offset="0"/>
   <stop stop-color="#1062fe" offset="1"/>
  </linearGradient>
 </defs>
 <path d="m5 0c-2.77 0-5 2.23-5 5v40c0 2.77 2.23 5 5 5h40c2.77 0 5-2.23 5-5v-40c0-2.77-2.23-5-5-5h-40zm3.8008 13.451h2.9492a1.4836 1.4836 0 0 1 1.4297 1.0879l3.3457 11.906 2.3398-11.799a1.4822 1.4822 0 0 1 1.4551-1.1953h2.8438a1.4822 1.4822 0 0 1 1.4277 1.0879l3.3477 11.906 2.3398-11.799a1.4836 1.4836 0 0 1 1.4551-1.1953h2.873a1.4809 1.4809 0 0 1 1.4277 1.0879l3.3164 11.791 2.3184-11.684a1.4822 1.4822 0 0 1 1.4551-1.1953h3.875l-0.068359 0.3457-4.2754 21.557a1.4836 1.4836 0 0 1-1.4551 1.1953h-3.0449a1.485 1.485 0 0 1-1.4297-1.0879l-3.2168-11.438-2.2461 11.33a1.4836 1.4836 0 0 1-1.4551 1.1953h-3.0996a1.4836 1.4836 0 0 1-1.4277-1.0879l-3.1992-11.373-2.2344 11.266a1.4836 1.4836 0 0 1-1.4531 1.1953h-3.0977a1.4822 1.4822 0 0 1-1.4277-1.0879l-3.2617-11.604-2.2773 11.496a1.4822 1.4822 0 0 1-1.4551 1.1953h-3.875l4.3477-21.902a1.485 1.485 0 0 1 1.4531-1.1953z" fill="#95969a"/>
</svg>
