<?xml version="1.0" encoding="UTF-8" standalone="no"?>
<!-- Created with Inkscape (http://www.inkscape.org/) -->

<svg
   width="13.229mm"
   height="13.229mm"
   viewBox="0 0 13.229 13.229"
   version="1.1"
   id="svg1"
   xml:space="preserve"
   xmlns="http://www.w3.org/2000/svg"
   xmlns:svg="http://www.w3.org/2000/svg"><defs
     id="defs1"><style
       id="style1">.cls-1{fill:url(#linear-gradient);}.cls-2{fill:#4e4e4e;}</style></defs><g
     id="layer1"><g
       id="g1"
       transform="matrix(0.26458333,0,0,0.26458333,16.318978,0.34175869)"><path
         d="m -56.678026,-1.2916864 c -2.77,0 -5,2.23 -5,5 V 43.708314 c 0,2.77 2.23,5 5,5 h 40 c 2.77,0 5,-2.23 5,-5 V 3.7083136 c 0,-2.77 -2.23,-5 -5,-5 z"
         fill="#95969a"
         id="path4" /></g><g
       id="g2"
       transform="matrix(0.73358748,0,0,0.73354705,1.7664125,1.766453)"><path
         style="fill:#b7b8b9;fill-opacity:1;stroke-width:0.309298"
         d="M 2.1392283,12.054507 C 1.7194729,11.863977 1.4046552,11.55008 1.166844,11.084967 1.005657,10.769717 0.99845917,10.576241 1.0001834,6.605197 1.0019045,2.6413961 1.0095323,2.4402612 1.1699391,2.1289593 1.3866347,1.7084178 1.8220602,1.2936368 2.2219084,1.1268664 c 0.4049726,-0.16890746 1.1729411,-0.16920138 1.57903,-6.03e-4 0.2049975,0.085109 1.0207688,0.833087 2.3191544,2.1264238 1.1016057,1.0973229 2.0308351,1.9951322 2.0649534,1.9951322 0.034119,0 0.057887,-0.564652 0.052818,-1.2547819 C 8.2327951,3.3029073 8.2565986,2.623515 8.2907596,2.4832765 8.4042177,2.0175111 8.8372973,1.5181055 9.3417887,1.2712826 10.327821,0.78886589 11.403907,1.0960737 11.963738,2.0198129 l 0.276438,0.4561302 0.01678,3.7887972 c 0.0092,2.0838386 0.0066,3.9581227 -0.0058,4.1650747 -0.0408,0.67961 -0.504249,1.332405 -1.15924,1.632867 -0.438945,0.201355 -1.2522695,0.205585 -1.6780261,0.0087 C 9.2305976,11.98667 8.2793066,11.115352 7.1598435,10.006872 6.0945355,8.9520169 5.173063,8.0586057 5.1121267,8.0215148 5.0226569,7.9670554 5.0046898,8.2134051 5.0187728,9.3015063 5.0382647,10.807494 4.9712287,11.092508 4.4743551,11.616214 3.9057022,12.215575 2.9070326,12.403021 2.1392267,12.054509 Z"
         id="path2" /><path
         style="fill:#ffffff;fill-opacity:1;stroke-width:0.309298"
         d="M 2.3658187,12.110467 C 1.5510629,11.806956 1.0110674,11.037837 1.0144373,10.185685 1.0167911,9.5903928 1.2258453,9.1233377 1.6686181,8.7241548 2.1101813,8.3260622 2.5136702,8.1976721 3.1882021,8.2406227 c 0.6407639,0.0408 1.1088633,0.3202405 1.5219982,0.9085825 0.2331802,0.3320704 0.2573107,0.4284183 0.255036,1.0183078 -0.00275,0.714414 -0.114305,1.010438 -0.5418867,1.438016 -0.5204777,0.520473 -1.4219486,0.741702 -2.0575309,0.504938 z M 9.5608602,12.0813 C 9.1691318,11.962154 8.8277369,11.645484 5.2345196,8.0682769 2.6089743,5.4544299 1.2816167,4.0733637 1.1748863,3.8443783 1.0806121,3.6421176 1.0163054,3.314446 1.0163054,3.0363372 c 0,-1.4936796 1.5249497,-2.44975302 2.8810139,-1.8062632 0.4445027,0.2109284 7.9538927,7.690932 8.1706377,8.1386623 0.484016,0.9998357 -0.09858,2.3560617 -1.168745,2.7206997 -0.476693,0.162423 -0.783675,0.160556 -1.3383518,-0.0082 z M 9.5908184,4.9593996 C 9.1768471,4.8115112 8.8446787,4.5419171 8.5634504,4.1255655 7.7683516,2.9484415 8.5546199,1.2977319 9.9961965,1.1176199 11.196026,0.96771235 12.351916,2.0711638 12.220099,3.2406317 12.074993,4.5279972 10.770426,5.3807946 9.5908188,4.9593965 Z"
         id="path1" /></g></g></svg>
