<?xml version="1.0" encoding="UTF-8"?>
<!-- Created with Inkscape (http://www.inkscape.org/) -->
<svg width="50" height="50" version="1.1" viewBox="0 0 50 50" xmlns="http://www.w3.org/2000/svg">
 <path d="m5 0c-2.77 0-5 2.23-5 5v40c0 2.77 2.23 5 5 5h40c2.77 0 5-2.23 5-5v-40c0-2.77-2.23-5-5-5h-40zm17.828 19.73c0.56537 0 1.0663 0.015153 1.1133 0.033203 0.0716 0.02748 0.085938 0.14214 0.085938 0.70312v0.66992h-0.67578-0.67578v0.32422 0.32422h0.32422 0.32422v0.67578 0.67578h-0.32422-0.32422v2.0547 2.0527h-0.70312-0.70312v-2.0527-2.0547h-0.32422-0.32422v-0.67578-0.67578h0.32422 0.32422v-0.75781c0-1.2727 0.028324-1.2969 1.5586-1.2969zm2.6035 0c0.29243 0 0.57016 0.015153 0.61719 0.033203 0.12723 0.04882 0.12723 1.291 0 1.3398-0.04703 0.01805-0.34851 0.033203-0.66992 0.033203-0.48302 0-0.59007-0.015268-0.61719-0.085938-0.01805-0.04703-0.03125-0.34851-0.03125-0.66992 0-0.48302 0.013314-0.59007 0.083984-0.61719 0.04703-0.01805 0.32475-0.033203 0.61719-0.033203zm19.189 0h0.70312 0.70312v1c0 0.76193 0.014926 1.001 0.066406 1.0039 0.03716 0.0021 0.25788 0.002004 0.48828-0.001953l0.41797-0.007813v0.70508 0.70703h-0.48633-0.48633v1.3516 1.3516h0.48633 0.48633v0.67578 0.67578l-0.98633-0.001953c-0.94175-2.7e-4 -0.99403-0.005272-1.1367-0.12109-0.0822-0.06674-0.17189-0.20669-0.20117-0.31055-0.02991-0.10609-0.054687-0.94712-0.054687-1.9199v-1.7305h-0.31055l-0.31055 0.001953-0.015625-0.68945-0.013672-0.68945h0.32422 0.32617v-1-1zm-17.621 1.998 0.68945 0.013672 0.68945 0.015624-0.009765 0.14844c-0.0056 0.08176 0.004567 0.14844 0.023437 0.14844 0.01884 0 0.10412-0.06668 0.18945-0.14844l0.1543-0.14844h0.99609 0.99609l0.14844 0.16016c0.14423 0.15538 0.15075 0.18373 0.16797 0.85156l0.017578 0.69141h-0.70703-0.70703v-0.16211-0.16211h-0.47656c-0.4533 0-0.48244 0.007564-0.62305 0.1543l-0.14844 0.1543 0.007812 3.7461h-0.70508-0.70312v-2.7324-2.7305zm12.594 0 0.001953 0.23047c7.62e-4 0.22125 0.00374 0.22494 0.068359 0.095704 0.1452-0.2906 0.32473-0.32413 1.7305-0.32422 1.4548-1.08e-4 1.5814 0.025601 1.7305 0.33984 0.08039 0.1694 0.091797 0.46441 0.091797 2.6562v2.4648h-0.70312-0.70312v-2.041-2.041l-0.93164 0.017578c-1.0058 0.01811-1.1322 0.048881-1.2324 0.3125-0.02905 0.07649-0.052734 0.92561-0.052734 1.9434v1.8086h-0.70312-0.70312l0.015625-2.7168 0.013672-2.7168 0.68945-0.015624 0.6875-0.013672zm-5.1992 0.013672c1.2096-0.0092 2.3032-0.002855 2.4297 0.015624 0.18638 0.02723 0.25603 0.071709 0.36523 0.23242 0.13417 0.19745 0.13477 0.20446 0.13477 1.459 0 1.0384-0.014225 1.2889-0.083985 1.4238-0.15541 0.30054-0.27278 0.31836-2.2109 0.31836h-1.7598v0.32422 0.32422h2.0273 2.0273v0.67578 0.67578h-2.5723-2.5703l-0.31641-0.31641v-2.4004-2.3984l0.16602-0.16016 0.16406-0.1582 2.1992-0.015624zm-31.395 0.042968h0.70312 0.70312l0.0019531 0.23047c0.0029 0.19183 0.012014 0.2087 0.052734 0.10742 0.02682-0.0667 0.12891-0.16898 0.22656-0.22852 0.16703-0.10184 0.27135-0.10938 1.7715-0.10938 1.4881 0 1.6075 0.006722 1.7695 0.10547 0.10711 0.06531 0.19162 0.17549 0.22266 0.28516 0.06663 0.23542 0.073742 4.4079 0.0078125 4.6426-0.02812 0.10008-0.1149 0.2378-0.19141 0.30469-0.13774 0.12043-0.15409 0.12109-1.7871 0.12109-1.062 0-1.6886-0.019611-1.7578-0.056641-0.0591-0.03163-0.15318-0.13574-0.21094-0.23047l-0.10547-0.17188v1.2559 1.2578h-0.70312-0.70312v-3.7578-3.7559zm6.3789 0h0.70312 0.70117l0.003906 0.23047c0.0027 0.18189 0.012309 0.20562 0.048829 0.11523 0.025369-0.06279 0.11255-0.1669 0.19336-0.23047 0.13712-0.10786 0.20888-0.11542 1.0723-0.11524 0.82434 1.62e-4 0.94437 0.01277 1.0996 0.10742 0.2206 0.1345 0.23984 0.21419 0.2207 0.97266l-0.015625 0.62305h-0.67578-0.67578v-0.16211c0-0.16178-0.001033-0.16253-0.35156-0.17969-0.45954-0.02249-0.70798 0.053825-0.82617 0.25391-0.08394 0.1421-0.09375 0.35057-0.09375 2.002v1.8418h-0.70117-0.70312v-2.7285-2.7305zm15.352 0h0.70117 0.70312v2.7305 2.7285h-0.70312-0.70117v-2.7285-2.7305zm-7.6348 0.011719 2.334 0.015625 0.15039 0.15039 0.15039 0.14844 0.013672 2.3359c0.01025 1.5741-0.003839 2.3801-0.042969 2.4746-0.13324 0.32166-0.14346 0.32268-2.6816 0.32031-1.9384-0.0018-2.3416-0.015122-2.4648-0.082032-0.08101-0.04396-0.17069-0.12665-0.20117-0.18359-0.03539-0.066129-0.056641-0.94541-0.056641-2.4355 0-2.5564 0.002635-2.568 0.32422-2.7012 0.09446-0.03913 0.90054-0.053219 2.4746-0.042969zm18.824 1.3125-2.6504 0.03125v0.32227 0.32226h1.3242 1.3242l0.001953-0.33789v-0.33789zm-29.906 0.027344c-0.9341 5.4e-5 -1.1224 0.0131-1.2832 0.09375-0.30488 0.15291-0.32333 0.23956-0.32422 1.5137v1.1484h1.3496 1.3516v-1.377-1.3789h-1.0938zm9.6895 0v1.3789 1.377h1.3242 1.3242v-1.377-1.3789h-1.3242-1.3242zm17.705 4.8652c0.17295 0 0.16806 0.075855-0.015625 0.20312-0.16697 0.11569-0.33789 0.18675-0.33789 0.14062 0-0.11026 0.23988-0.34375 0.35352-0.34375zm12.994 0h0.13867l-0.17383 0.16211c-0.19411 0.18194-0.46345 0.23502-0.33594 0.066407 0.12526-0.16565 0.229-0.22877 0.37109-0.22852zm0.34375 0.009766c0.0803-0.0094 0.14648 0.00473 0.14648 0.03125 0 0.07715-0.2319 0.26409-0.36719 0.29688l-0.125 0.03125 0.099609-0.17188c0.06596-0.11338 0.14943-0.17618 0.24609-0.1875zm-25.391 0.042969c0.11312 0 0.13516 0.023994 0.12109 0.12305-0.012599 0.08875-0.059921 0.12567-0.17383 0.13867-0.12687 0.01449-0.1491 7.25e-4 -0.12109-0.072265 0.01895-0.04939 0.035156-0.11137 0.035156-0.13867 0-0.0273 0.062277-0.050782 0.13867-0.050781zm0.78516 0c0.16469 0 0.16799 0.004622 0.13281 0.20312-0.01976 0.11149-0.048494 0.2466-0.064454 0.30078-0.02736 0.09284-0.020147 0.093782 0.13477 0.013672 0.2324-0.12018 0.37049-0.10608 0.53125 0.054687 0.12582 0.12582 0.13653 0.17045 0.10938 0.43359-0.06089 0.58999-0.5495 0.92422-0.88672 0.60742l-0.125-0.11719v0.11719c0 0.11958-0.009305 0.12359-0.17578 0.080078-0.11888-0.03107-0.11988-0.010993 0.041016-0.87695 0.07404-0.39851 0.13476-0.74439 0.13476-0.76953s0.075471-0.046874 0.16797-0.046874zm1.3105 0h0.15234c0.16526 0 0.17216 0.018758 0.10547 0.36328l-0.044922 0.22656 0.15234-0.078125c0.21974-0.11363 0.3592-0.097823 0.51758 0.060547 0.12534 0.12534 0.13602 0.16959 0.10938 0.42774-0.03419 0.33122-0.15107 0.54058-0.36719 0.65234-0.20234 0.10463-0.38329 0.099455-0.50391-0.015625-0.07262-0.06928-0.1047-0.076833-0.12305-0.027344-0.03155 0.08509-0.28711 0.088437-0.28711 0.003907 0-0.03442 0.064793-0.4115 0.14453-0.83789l0.14453-0.77539zm4.418 0c0.14115 0 0.16313 0.019584 0.14844 0.12305-0.01237 0.08708-0.059584 0.12643-0.16602 0.13867-0.12799 0.01473-0.14844-0.003626-0.14844-0.12305 0-0.1188 0.023925-0.13867 0.16602-0.13867zm7.6934 0h0.15039c0.17608 0 0.18204 0.033897 0.076171 0.52734-0.039859 0.18581-0.057319 0.33789-0.037109 0.33789s0.11985-0.085404 0.2207-0.18945c0.14277-0.1473 0.22544-0.18855 0.375-0.1875l0.19336 0.001953-0.22852 0.21484-0.23047 0.2168 0.13477 0.35742c0.07384 0.19616 0.13476 0.37187 0.13476 0.39062 0 0.01876-0.072843 0.033203-0.16211 0.033203-0.14562 0-0.17153-0.025493-0.24805-0.25586-0.0469-0.14122-0.10716-0.25781-0.13281-0.25781-0.07762 0-0.21484 0.23205-0.21484 0.36328 0 0.07024-0.032432 0.12305-0.076172 0.12305-0.04216 0-0.11508 0.015153-0.16211 0.033203-0.05117 0.01964-0.085938 0.00534-0.085938-0.03711 0-0.038979 0.066168-0.43121 0.14648-0.87109l0.14648-0.80078zm2.1797 0c0.10102 0 0.12609 0.022027 0.10156 0.085937-0.01805 0.04703-0.033203 0.10747-0.033203 0.13477 0 0.0273-0.060441 0.050781-0.13477 0.050781-0.07433 0-0.13476-0.023481-0.13476-0.050781 0-0.13408 0.079167-0.2207 0.20117-0.2207zm0.62891 0h0.1582c0.14467 0 0.15774 0.013248 0.13086 0.14844-0.01626 0.08176-0.085599 0.45884-0.1543 0.83789-0.12447 0.68676-0.12633 0.68945-0.27539 0.68945-0.08227 0-0.14844-0.02808-0.14844-0.0625s0.064794-0.4115 0.14453-0.83789l0.14453-0.77539zm3.6387 0c0.19514 0 0.15605 0.23668-0.042969 0.25976-0.1257 0.01458-0.13864 0.00136-0.11524-0.12109 0.01976-0.10334 0.05895-0.13867 0.1582-0.13867zm0.48047 0c0.1186 0 0.13572 0.021018 0.12109 0.14453-0.01248 0.10542-0.049927 0.14798-0.13867 0.1543-0.09954 0.0071-0.12109-0.0192-0.12109-0.14453 0-0.12836 0.022386-0.1543 0.13867-0.1543zm-21.631 0.009765c0.12687-0.01449 0.14911-7.24e-4 0.12109 0.072266-0.01895 0.0494-0.035156 0.11137-0.035157 0.13867 0 0.0273-0.062276 0.050781-0.13867 0.050781-0.11312 0-0.13516-0.023996-0.12109-0.12305 0.0126-0.08875 0.05992-0.12567 0.17383-0.13867zm16.363 0.001953c0.1257-0.01458 0.13864-0.00136 0.11524 0.12109-0.01976 0.10335-0.05895 0.13867-0.1582 0.13867-0.10659 0-0.12912-0.025276-0.11524-0.12305 0.01212-0.08536 0.058739-0.12518 0.1582-0.13672zm-7.0723 0.046875c0.02785-0.002131 0.027118 0.020804 0.013671 0.064453-0.089439 0.29033-0.084452 0.36328 0.023438 0.36328 0.0731 0 0.10938 0.036967 0.10938 0.10938 0 0.07747-0.035849 0.10742-0.12695 0.10742-0.1148 0-0.13359 0.036009-0.1875 0.36133-0.06372 0.38456-0.046482 0.47435 0.080078 0.42578 0.05773-0.02215 0.07504 0.003487 0.0625 0.091797-0.01376 0.09685-0.056044 0.12246-0.20703 0.13086-0.10406 0.0058-0.2187-0.001858-0.25586-0.017578-0.08562-0.03617-0.083967-0.22646 0.007813-0.6543 0.06133-0.28585 0.06294-0.33789 0-0.33789-0.11642 0-0.087827-0.20077 0.033203-0.23242 0.06414-0.01677 0.10742-0.072351 0.10742-0.13867 0-0.06911 0.061558-0.14432 0.16016-0.19531 0.096736-0.050023 0.15184-0.075993 0.17969-0.078125zm-10.092 0.009766c0.01159 0.01159-0.00326 0.10147-0.03125 0.19922-0.04433 0.15457-0.03551 0.18098 0.05664 0.20508 0.15757 0.0412 0.13643 0.23047-0.02539 0.23047-0.11854 0-0.13374 0.029433-0.17383 0.33789-0.05942 0.45712-0.059639 0.44656 0.050781 0.4375 0.07077-0.0058 0.092078 0.025197 0.080078 0.10938-0.01288 0.09033-0.058207 0.11822-0.20898 0.13086-0.12537 0.010509-0.21869-0.012217-0.26367-0.066407-0.05681-0.06845-0.056188-0.16236 0.007812-0.51562 0.06446-0.35598 0.066843-0.43359 0.007813-0.43359-0.11386 0-0.084374-0.16991 0.035156-0.20117 0.06955-0.01819 0.10938-0.072313 0.10938-0.1543 0-0.08778 0.050861-0.15529 0.16602-0.21484 0.09195-0.04755 0.17786-0.076053 0.18945-0.064453zm1 0.36523c0.11619 0.012785 0.22934 0.063329 0.32422 0.1582 0.38552 0.38551-0.019094 1.1387-0.61133 1.1387-0.16471 0-0.24902-0.038079-0.37695-0.16602-0.14994-0.14994-0.16138-0.18549-0.13086-0.4082 0.06303-0.45985 0.44636-0.76101 0.79492-0.72266zm7.9941 0c0.15991 0 0.33317 0.19287 0.30274 0.33789-0.01394 0.06644-0.055937 0.29813-0.091797 0.51367-0.06378 0.3833-0.068465 0.39062-0.22461 0.39062h-0.16016l0.044922-0.25586c0.02431-0.14122 0.045505-0.36622 0.046875-0.5 0.0023-0.22771-0.006262-0.24355-0.13281-0.23047-0.20169 0.02085-0.29677 0.17474-0.37305 0.60156-0.0666 0.37268-0.074111 0.38477-0.22656 0.38477-0.08649 0-0.15625-0.020325-0.15625-0.046875 0-0.04252 0.12017-0.68467 0.19141-1.0195 0.018399-0.086489 0.064789-0.12305 0.16016-0.12305 0.07376 0 0.13476 0.024524 0.13476 0.052734s0.084397 0.015736 0.1875-0.027344c0.1031-0.04308 0.23646-0.078125 0.29688-0.078125zm13.121 0c0.3208-0.014118 0.53328 0.22581 0.48828 0.625-0.04182 0.37104-0.30569 0.6231-0.69141 0.66016-0.2025 0.019459-0.27307 0.008483-0.24609-0.035157 0.0231-0.03738 0.009984-0.04858-0.035156-0.03125-0.13343 0.0512-0.27344-0.17294-0.26953-0.43164 0.0046-0.30754 0.14891-0.55543 0.40234-0.68555 0.12543-0.064398 0.24463-0.096857 0.35156-0.10156zm-16.002 0.003907c0.074659-3.02e-4 0.14374 0.024991 0.2168 0.076171 0.10172 0.07125 0.13154 0.070965 0.26758 0 0.29977-0.15635 0.56055-0.065253 0.56055 0.19531 0 0.28064-0.12109 0.91186-0.18359 0.95703-0.03281 0.02371-0.11094 0.033798-0.17383 0.023438-0.11128-0.01833-0.11294-0.027446-0.042969-0.35352 0.1318-0.61419 0.064275-0.79377-0.21484-0.57422-0.10724 0.08435-0.14732 0.18804-0.19922 0.50977-0.06431 0.39863-0.069023 0.4043-0.22852 0.4043-0.15738 0-0.16018-0.006022-0.125-0.20312 0.09972-0.5588 0.10292-0.75136 0.009766-0.78711-0.16818-0.06454-0.33665 0.18129-0.41211 0.60352-0.0667 0.37324-0.074738 0.38672-0.22266 0.38672-0.17985 0-0.17448 0.034041-0.072266-0.51367 0.12835-0.68773 0.12332-0.67578 0.27148-0.67578 0.07376 0 0.13281 0.02615 0.13281 0.05664 0 0.03178 0.068739 0.019926 0.16016-0.027344 0.10031-0.051874 0.1812-0.077823 0.25586-0.078124zm11.254 0c0.11354 0.007028 0.22246 0.047785 0.31445 0.12695 0.1294 0.11136 0.15165 0.16922 0.14844 0.39648-0.0082 0.57911-0.5811 0.94781-1.0645 0.68555-0.17084-0.0927-0.22935-0.27079-0.18359-0.55273 0.065227-0.40195 0.44454-0.67734 0.78516-0.65625zm8.8438 0c0.12279 0.00489 0.24561 0.049827 0.35352 0.14062 0.16205 0.13635 0.17118 0.16131 0.14844 0.43555-0.02037 0.24562-0.054321 0.3219-0.2168 0.48438-0.15544 0.15544-0.24486 0.19818-0.45898 0.21875-0.22692 0.0218-0.28833 0.005265-0.42383-0.11133-0.13346-0.11482-0.15853-0.17384-0.1543-0.37695 0.009765-0.46864 0.38358-0.80569 0.75195-0.79102zm-11.527 0.001953c0.082398 0.007976 0.15592 0.050447 0.23242 0.12695 0.16416 0.16416 0.17596 0.44455 0.029297 0.76758-0.15595 0.34349-0.47563 0.469-0.82031 0.32031-0.07152-0.03085-0.095287 0.010368-0.125 0.23438-0.03469 0.26151-0.043232 0.27344-0.20312 0.27344-0.15338 0-0.16386-0.01196-0.13672-0.14844 0.01626-0.08176 0.085598-0.45884 0.1543-0.83789 0.12446-0.68676 0.12633-0.68945 0.27539-0.68945 0.082269 0 0.14844 0.02615 0.14844 0.05664 0 0.03178 0.068738 0.019926 0.16016-0.027344 0.11255-0.058203 0.20276-0.084148 0.28516-0.076171zm5.9902 0.003906c0.093758-0.002363 0.18486 0.009179 0.26172 0.041015 0.16223 0.0672 0.2462 0.18869 0.19141 0.27734-0.04925 0.07968-0.27868 0.05688-0.3125-0.03125-0.03535-0.09212-0.23812-0.10652-0.35938-0.02539-0.07018 0.04696-0.067373 0.065478 0.023437 0.13476 0.05771 0.04403 0.14311 0.079968 0.18945 0.080078 0.04634 1.08e-4 0.16314 0.048508 0.25977 0.10742 0.51098 0.31155-0.18302 0.88889-0.7793 0.64844-0.06428-0.02592-0.13215-0.09848-0.15234-0.16211-0.043-0.13549-0.042554-0.13536 0.14258-0.17969 0.11303-0.02706 0.1476-0.013094 0.16992 0.072266 0.046139 0.17644 0.4707 0.12014 0.4707-0.0625 0-0.02264-0.10412-0.068266-0.23047-0.10156-0.33097-0.08722-0.47266-0.19339-0.47266-0.35352 0-0.07656 0.024847-0.12391 0.054687-0.10547 0.02939 0.01816 0.039008 0.001535 0.023438-0.039063-0.05847-0.15237 0.23826-0.29369 0.51953-0.30078zm-1.2793 0.003906c0.18773-0.008173 0.36379 0.056683 0.4375 0.19922 0.07698 0.14886 0.075143 0.1554-0.060547 0.18945-0.10331 0.02593-0.16824 0.005318-0.24414-0.076172-0.12376-0.13284-0.14953-0.13466-0.30274-0.027344-0.13231 0.09267-0.25137 0.46098-0.20117 0.61914 0.06473 0.20396 0.45898 0.17369 0.45898-0.035156 0-0.06576 0.03357-0.075705 0.14844-0.046875 0.19243 0.0483 0.19414 0.053331 0.11524 0.17969-0.15097 0.24174-0.54231 0.3466-0.83984 0.22656-0.26481-0.10684-0.27454-0.66162-0.017578-0.98828 0.11871-0.15092 0.31813-0.23206 0.50586-0.24024zm-6.3535 0.001953c0.19179-0.02572 0.24041-0.009542 0.38477 0.13477 0.15943 0.15943 0.20248 0.3329 0.13086 0.51953-0.02582 0.0673-0.1171 0.085938-0.43164 0.085938-0.3612 0-0.40039 0.011425-0.40039 0.10742 0 0.14633 0.18366 0.23929 0.32422 0.16406 0.05946-0.03182 0.10938-0.078024 0.10938-0.10156 0-0.023529 0.071675-0.032511 0.16016-0.019531 0.13831 0.0203 0.15417 0.037656 0.10742 0.125-0.14658 0.27389-0.673 0.3524-0.89258 0.13281-0.33884-0.33884-0.011695-1.0788 0.50781-1.1484zm-1.3555 0.001953c0.052345 0.00872 0.10151 0.027864 0.14844 0.058594 0.07419 0.04861 0.13477 0.063613 0.13477 0.033203 0-0.03042 0.071705-0.05664 0.16016-0.05664 0.15204 0 0.15955 0.009706 0.12891 0.17578-0.14284 0.77422-0.24524 1.1951-0.31836 1.3066-0.14892 0.22727-0.60965 0.31917-0.89062 0.17773-0.08472-0.04265-0.14162-0.12244-0.15234-0.21484-0.01973-0.17 0.05059-0.18671 0.28125-0.066406 0.32729 0.1707 0.57422 0.065393 0.57422-0.24414 0-0.10502-0.006745-0.10652-0.083985-0.029297-0.13208 0.13208-0.42169 0.12869-0.57226-0.005859-0.31098-0.27788-0.028398-1.0475 0.41602-1.1309 0.064759-0.01215 0.12148-0.012627 0.17383-0.003907zm11.967 0c0.11452-0.014656 0.23126 0.010762 0.31445 0.078125 0.12902 0.10447 0.12877 0.10861 0.060547 0.50391-0.11309 0.65526-0.1076 0.64258-0.28125 0.64258-0.08597 0-0.15628-0.006262-0.15625-0.013672 3.5e-5 -0.0074 0.034231-0.19218 0.076171-0.41211 0.04194-0.21993 0.065332-0.43084 0.050782-0.46875-0.0407-0.10607-0.15307-0.12834-0.29297-0.058594-0.12139 0.06052-0.16605 0.18836-0.29688 0.83203-0.01921 0.09453-0.061672 0.12109-0.19141 0.12109-0.11117 0-0.15965-0.021407-0.14258-0.066407 0.0141-0.037159 0.069049-0.30584 0.12109-0.5957 0.09302-0.51803 0.095999-0.52734 0.24414-0.52734 0.12925 0 0.14711 0.018745 0.12109 0.12305l-0.03125 0.12109 0.10352-0.12305c0.072961-0.087346 0.18626-0.14159 0.30078-0.15625zm1.2344 0.035157c0.61783 0 0.6253 0.046919 0.095704 0.58008l-0.39062 0.39453h0.34375c0.28989 0 0.33638 0.011564 0.30859 0.083984-0.01805 0.04703-0.033103 0.10318-0.033203 0.12305-1.08e-4 0.01987-0.24187 0.035137-0.53906 0.035156-0.50469 2.9e-5 -0.54188-0.006413-0.54102-0.10742 5.4e-4 -0.0611 0.1667-0.27254 0.38086-0.48633l0.37891-0.37891-0.27734-0.015625c-0.22184-0.01324-0.26955-0.033389-0.24414-0.099609 0.01741-0.04538 0.03125-0.093037 0.03125-0.10547 0-0.01243 0.21876-0.023437 0.48633-0.023437zm-17.074 0.007812c0.069119 0.021323 0.046561 0.14477-0.044922 0.6543-0.09282 0.51696-0.097354 0.52734-0.24414 0.52734-0.10771 0-0.14881-0.02566-0.14648-0.09375 0.0018-0.05203 0.044983-0.31446 0.095703-0.58203 0.08781-0.46329 0.099476-0.48762 0.24023-0.50391 0.044441-0.005142 0.07657-0.00906 0.09961-0.001953zm9.4531 0.16211c-0.04955 0.00118-0.10218 0.040183-0.18945 0.11523-0.18276 0.1572-0.24318 0.51853-0.10938 0.65234 0.12182 0.12182 0.21303 0.11393 0.375-0.03125 0.19362-0.17356 0.2388-0.48386 0.091797-0.63086-0.071275-0.071274-0.11842-0.10665-0.16797-0.10547zm8.8789 0.015624c-0.13256 0.006723-0.27678 0.12285-0.32031 0.3418-0.050669 0.25486-0.032614 0.34825 0.078126 0.43359 0.10569 0.08145 0.085176 0.081083 0.24609 0.007813 0.15113-0.06886 0.25315-0.25899 0.25195-0.4707-0.00125-0.21668-0.12329-0.31922-0.25586-0.3125zm-22.291 0.003907c-0.11415 0.004228-0.22331 0.10204-0.29492 0.27344-0.09916 0.23732-0.097328 0.37529 0.007812 0.48047 0.0987 0.09871 0.15484 0.10413 0.29102 0.03125 0.21359-0.11431 0.29407-0.66001 0.11133-0.75781-0.037729-0.020192-0.077185-0.028753-0.11524-0.027343zm18.236 0c-0.041552-5e-5 -0.088214 0.010213-0.13867 0.033203-0.34074 0.15525-0.33334 0.89853 0.007812 0.77734 0.03959-0.01407 0.094561-0.025391 0.12109-0.025391 0.08314 0 0.21289-0.31129 0.21289-0.50977 0-0.17604-0.07847-0.27524-0.20312-0.27539zm-10.473 0.003906c-0.034114 0.005884-0.070948 0.021697-0.10938 0.046875-0.16219 0.10627-0.27095 0.46907-0.1875 0.625 0.08235 0.15386 0.29313 0.13791 0.42774-0.033203 0.22452-0.28543 0.10794-0.67986-0.13086-0.63867zm2.8379 0.007813c-0.23912 0.067897-0.43326 0.54916-0.24609 0.73633 0.12174 0.12174 0.2201 0.11377 0.35156-0.027344 0.21012-0.22554 0.20863-0.65391-0.001953-0.70898-0.035068-0.00917-0.069356-0.0097-0.10352 0zm-13.527 0.001953c-0.12082-0.018666-0.23603 0.062111-0.32422 0.23438-0.11717 0.22888-0.12043 0.39523-0.009765 0.50586 0.11582 0.11582 0.20812 0.10643 0.375-0.037109 0.09422-0.08105 0.15202-0.19572 0.17188-0.34375 0.02518-0.18774 0.009963-0.23537-0.091797-0.30664-0.040915-0.028658-0.08082-0.046513-0.12109-0.052734zm1.4355 0c-0.24358 0.050196-0.45492 0.54117-0.26172 0.73438 0.11848 0.11848 0.22072 0.11327 0.34961-0.015625 0.10798-0.10798 0.19106-0.40567 0.1582-0.57227-0.01018-0.05164-0.074119-0.11412-0.14062-0.13867-0.035022-0.012929-0.070672-0.014983-0.10547-0.007812zm10.746 0c-0.086759-0.013758-0.18984 0.020691-0.26172 0.11133-0.11167 0.1408-0.079174 0.17188 0.17578 0.17188 0.20576 0 0.24219-0.015633 0.24219-0.10547 0-0.10203-0.069491-0.16398-0.15625-0.17773z" fill="#95969a"/>
</svg>
