<?xml version="1.0" encoding="UTF-8" standalone="no"?>
<!-- Created with Inkscape (http://www.inkscape.org/) -->

<svg
   width="50"
   height="50"
   version="1.1"
   viewBox="0 0 50 50"
   id="svg4"
   sodipodi:docname="robotizalunk-logo.svg"
   inkscape:version="1.2.2 (b0a8486541, 2022-12-01)"
   xmlns:inkscape="http://www.inkscape.org/namespaces/inkscape"
   xmlns:sodipodi="http://sodipodi.sourceforge.net/DTD/sodipodi-0.dtd"
   xmlns="http://www.w3.org/2000/svg"
   xmlns:svg="http://www.w3.org/2000/svg">
  <defs
     id="defs8" />
  <sodipodi:namedview
     id="namedview6"
     pagecolor="#ffffff"
     bordercolor="#000000"
     borderopacity="0.25"
     inkscape:showpageshadow="2"
     inkscape:pageopacity="0.0"
     inkscape:pagecheckerboard="0"
     inkscape:deskcolor="#d1d1d1"
     showgrid="false"
     inkscape:zoom="18.88"
     inkscape:cx="23.78178"
     inkscape:cy="27.17161"
     inkscape:window-width="2560"
     inkscape:window-height="1531"
     inkscape:window-x="0"
     inkscape:window-y="0"
     inkscape:window-maximized="1"
     inkscape:current-layer="svg4" />
  <path
     id="rect2382"
     style="display:none;fill:#95969a"
     d="M 2.1601562,0 C 0.9635174,0 0,1.6747225 0,3.7539062 V 46.246094 C 0,48.325277 0.9635174,50 2.1601562,50 H 47.839844 C 49.036483,50 50,48.325277 50,46.246094 V 3.7539062 C 50,1.6747225 49.036483,0 47.839844,0 Z"
     sodipodi:insensitive="true" />
  <path
     id="path2-3"
     style="display:inline;fill:#95969a;fill-opacity:1;stroke-width:0.522727"
     d="M 5,0 C 2.2300028,0 0,2.2300028 0,5 v 40 c 0,2.769997 2.2300028,5 5,5 h 40 c 2.769997,0 5,-2.230003 5,-5 V 5 C 50,2.2300028 47.769997,0 45,0 Z m 20.458984,13.382812 0.06055,0.962891 c 0.03309,0.530463 0.03636,1.016567 0.0059,1.080078 -0.03052,0.06354 -2.338329,0.117188 -5.128907,0.117188 h -5.074218 v 9.394531 9.396484 h 9.08789 9.085938 V 31.787109 29.240234 L 36.5,29.328125 v 3.619141 3.621093 l -11.441406,0.03906 c -9.0714,0.03132 -11.455126,-8.85e-4 -11.513672,-0.154297 -0.04064,-0.106438 -0.05707,-5.322735 -0.03516,-11.591797 l 0.04101,-11.398437 5.955078,-0.04102 z m 2.169922,0.0039 h 2.589844 c 2.335387,0 2.649454,0.03174 3.203125,0.324219 1.437761,0.759522 2.100234,1.761569 2.201172,3.333984 0.08941,1.393275 -0.197273,2.223382 -1.0625,3.080078 -0.628631,0.622411 -0.958059,0.834682 -1.716797,1.109375 l -0.423828,0.152344 1.99414,2.80664 c 1.095949,1.543038 1.956613,2.860793 1.914063,2.929688 -0.04257,0.06888 -0.685586,0.125 -1.429687,0.125 h -1.353516 l -0.792969,-1.269531 c -0.435817,-0.698886 -0.862604,-1.374931 -0.949219,-1.501954 -0.08664,-0.127074 -0.569892,-0.87263 -1.074218,-1.65625 l -0.917969,-1.425781 h -1.089844 -1.091797 l 0.04687,-1.039062 0.04492,-1.039063 2.078125,-0.03711 c 2.451275,-0.04425 2.644799,-0.08033 3.138672,-0.574219 0.703747,-0.703747 0.703747,-1.925159 0,-2.628906 -0.493863,-0.493867 -0.685444,-0.527991 -3.136719,-0.572266 l -2.080078,-0.03906 -0.04492,-1.039063 z" />
</svg>
