<?xml version="1.0" encoding="UTF-8"?>
<!-- Created with Inkscape (http://www.inkscape.org/) -->
<svg width="50" height="50" version="1.1" viewBox="0 0 50 50" xmlns="http://www.w3.org/2000/svg">
 <rect width="50" height="50" rx="5" ry="5" display="none" fill="#95969a"/>
 <path d="m5 0c-2.77 0-5 2.23-5 5v40c0 2.77 2.23 5 5 5h40c2.77 0 5-2.23 5-5v-40c0-2.77-2.23-5-5-5zm8.5449 19.117c0.0734 0 0.12891 0.06084 0.12891 0.13867 0 0.05708-0.02013 0.07968-0.44922 0.50977l-0.44922 0.45117 0.16602 0.16797c0.0917 0.09197 0.17293 0.16602 0.18164 0.16602 9e-3 0 0.21701-0.19999 0.46289-0.44531 0.40208-0.40118 0.45336-0.44531 0.5-0.44531 0.0733 0 0.13086 0.05893 0.13086 0.13672 0 0.05708-0.02198 0.08154-0.45117 0.51172l-0.44922 0.45117 0.20312 0.20117 0.20312 0.20312 0.44922-0.44922c0.43018-0.42921 0.45464-0.44922 0.51172-0.44922 0.078 0 0.13672 0.05522 0.13672 0.12891 0 0.04733-0.04841 0.10115-0.52148 0.57422-0.48175 0.48175-0.52591 0.52344-0.57617 0.52344-0.0492 0-0.08034-0.0271-0.32617-0.27148l-0.27344-0.26953-0.14844 0.15039-0.15039 0.15039 0.09766 0.10156c0.10387 0.10816 0.1156 0.14048 0.07617 0.2168-0.0262 0.05063-0.05341 0.06445-0.12305 0.06445-0.0368 0-0.07049-0.02269-0.14648-0.0957l-0.09961-0.09375-0.32031 0.32227-0.32227 0.32227 0.87109 2.1016 0.91211 0.0078v-0.14062c0-0.13923 8.28e-4 -0.14321 0.04883-0.18359 0.0642-0.05404 0.11803-0.05382 0.17578 0.0039 0.0442 0.04423 0.04687 0.05382 0.04687 0.18359v0.13672h0.42969v-0.3418c0-0.33174 3.56e-4 -0.34187 0.03516-0.38086 0.0197-0.02208 0.05427-0.0413 0.07617-0.04297 0.0219-0.0017 0.35457-0.0033 0.73828-2e-3l0.69727 0.0039 0.03906 0.03906c0.0506 0.05063 0.05023 0.11932 0 0.17774l-0.03711 0.04492-0.63867 0.0059-0.63867 0.0039v0.49219h1.2754l0.03906 0.03906c0.0536 0.05365 0.05285 0.13406-2e-3 0.18555l-0.04102 0.03906-1.2715 0.0078v0.57227h0.62109c0.63586 0 0.66702 0.0028 0.71289 0.0625 0.0334 0.04355 0.02347 0.12694-0.01953 0.16992l-0.03906 0.03906h-1.4688l-0.07812-0.07812v-0.76562h-0.42969v0.11914c0 0.12548-0.02507 0.2026-0.07227 0.2207-0.0554 0.02126-0.12168 0.0092-0.16016-0.0293-0.0354-0.03541-0.03906-0.05054-0.03906-0.17383v-0.13666h-0.91597l-0.13867 0.33789c-0.0762 0.18607-0.2724 0.66106-0.43555 1.0547l-0.29492 0.71484 0.31836 0.32031 0.31836 0.31836 0.09375-0.08984c0.0519-0.04948 0.11435-0.094 0.13672-0.09961 0.0856-0.02147 0.185 0.07282 0.16406 0.15625-5e-3 0.01942-0.04926 0.0752-0.09766 0.12305-0.0484 0.04784-0.08779 0.09458-0.08789 0.10352-4e-5 0.0089 0.06724 0.08127 0.14844 0.16211l0.14648 0.14844 0.26367-0.26562c0.14444-0.14524 0.27716-0.2695 0.29688-0.27734 0.0221-0.0088 0.05318-8e-3 0.08008 2e-3 0.0502 0.01864 0.99852 0.95619 1.0332 1.0215 0.0342 0.06435 0.02826 0.10654-0.02344 0.1582-0.0911 0.09116-0.09111 0.09141-0.5918-0.4082l-0.45508-0.45312-0.20508 0.20703-0.20703 0.20703 0.44922 0.44922c0.41919 0.42015 0.45117 0.45532 0.45117 0.50781 0 0.09139-0.10392 0.16345-0.17969 0.125-0.02-0.01017-0.23356-0.21502-0.47461-0.45508l-0.4375-0.4375-0.17578 0.17578-0.17383 0.17578 0.44922 0.45117c0.39374 0.39464 0.44922 0.45516 0.44922 0.49805 0 0.10176-0.10297 0.17165-0.1875 0.12695-0.024-0.0127-0.26722-0.24674-0.54102-0.52148-0.46444-0.46606-0.49805-0.50426-0.49805-0.55664 0-0.05121 0.02251-0.07635 0.24414-0.29688l0.24219-0.24219-0.15625-0.15625-0.15625-0.1543-0.04297 0.04688c-0.14304 0.15619-0.22451 0.18565-0.29883 0.11133-0.0691-0.06914-0.05376-0.13394 0.05664-0.25195l0.09375-0.09961-0.32227-0.32031-0.32031-0.32031-0.08008 0.03516c-0.0438 0.01956-0.51805 0.21742-1.0547 0.43945l-0.97656 0.40234v0.9043h0.12305c0.0679 1.49e-4 0.14242 0.0086 0.16406 0.01953 0.0875 0.0443 0.10193 0.15112 0.029297 0.21875-0.0294 0.02738-0.056751 0.03125-0.17578 0.03125h-0.14062v0.43159h0.32617c0.17904 0 0.3433 0.0053 0.36524 0.01367 0.0219 0.0083 0.04684 0.03054 0.05664 0.04883 0.0124 0.02322 0.01848 0.25397 0.01758 0.76172-1e-3 0.66489-0.0045 0.72994-0.0293 0.75781-0.0705 0.0783-0.19126 0.05856-0.22461-0.03711-0.0123-0.03522-0.01758-0.24932-0.01758-0.66406v-0.61133h-0.49414v1.2852l-0.035156 0.0332c-0.051 0.04588-0.084905 0.05261-0.14062 0.0332-0.0939-0.03275-0.095703-0.04388-0.095703-0.72852v-0.62304h-0.57227v1.2734l-0.037109 0.03906c-0.0411 0.04485-0.098938 0.06043-0.14844 0.04102l-0.00195 2e-3c-0.086-0.03373-0.084584-0.0282-0.083984-0.8125 4e-4 -0.54499 0.00463-0.73101 0.019531-0.75 0.0436-0.05681 0.084712-0.0625 0.45703-0.0625h0.36718v-0.43169h-0.13672c-0.12329 0-0.13841-0.0037-0.17383-0.03906-0.026-0.02605-0.039362-0.05486-0.039063-0.08984 9.9e-4 -0.10295 0.060746-0.14062 0.22852-0.14062h0.12109l-0.0039063-0.45508-0.0039062-0.45508-1.0332-0.42969c-0.56895-0.2359-1.0433-0.42773-1.0527-0.42773-9e-3 0-0.1596 0.14185-0.33398 0.31641l-0.31641 0.31641 0.089844 0.091797c0.0498 0.05018 0.096032 0.11064 0.10156 0.13281 0.021 0.08376-0.076609 0.17576-0.16211 0.1543-0.0246-0.0062-0.085006-0.05022-0.13477-0.09766l-0.089844-0.08594-0.15039 0.15039-0.15039 0.15039 0.24219 0.24414c0.21749 0.21914 0.24219 0.25009 0.24219 0.29883 0 0.05009-0.039032 0.09442-0.51367 0.56836-0.50451 0.50378-0.51744 0.51562-0.58008 0.51562-0.0843 0-0.13281-0.05108-0.13281-0.13672 0-0.05928 0.017686-0.07655 0.44727-0.50781l0.44531-0.44921-0.17188-0.16992-0.16992-0.16992-0.44727 0.44531c-0.43667 0.43494-0.44952 0.44531-0.51172 0.44531-0.0836 0-0.13281-0.04861-0.13281-0.13281 0-0.05761 0.019836-0.07974 0.44727-0.50781l0.44727-0.44727-0.20508-0.20508-0.20312-0.20508-0.44727 0.44726c-0.49213 0.49169-0.50223 0.49888-0.59375 0.42188-0.0398-0.03351-0.050781-0.05419-0.050781-0.09961 0-0.05465 0.028042-0.08639 0.51367-0.57227 0.41106-0.41131 0.52435-0.51714 0.56641-0.52539 0.0509-0.01 0.060142-7.77e-4 0.32617 0.26367 0.15102 0.15013 0.27964 0.27344 0.28516 0.27344 6e-3 0 0.074867-0.06611 0.1543-0.14648l0.14453-0.14648-0.085937-0.0918c-0.0476-0.04993-0.091456-0.11016-0.097656-0.13476-0.0216-0.08608 0.07158-0.1814 0.15625-0.16016 0.0227 0.0057 0.080123 0.04949 0.12695 0.09766 0.0468 0.04817 0.090103 0.08784 0.095703 0.08789 6e-3 4.6e-5 0.15324-0.14304 0.32812-0.31836l0.31641-0.32031-0.86719-2.0938-0.91211-0.0078v0.11914c0 0.12572-0.025066 0.20258-0.072266 0.2207-0.0554 0.02126-0.11973 0.0092-0.1582-0.0293-0.0354-0.03541-0.039063-0.05054-0.039063-0.17383v-0.13673h-0.43164v0.76562l-0.078126 0.07812h-0.73047c-0.71576 0-0.73236-8.9e-4 -0.77344-0.0332-0.0522-0.04108-0.058119-0.13417-0.011719-0.19141l0.03125-0.03711 0.64648-0.0059 0.64648-0.0039v-0.57227h-0.62305c-0.73544 0-0.73047-1.46e-4 -0.73047-0.15234 0-0.0386 0.010616-0.06203 0.041016-0.08594 0.0409-0.03215 0.059415-0.0332 0.67773-0.0332h0.63477v-0.4941h-0.62305c-0.73423 0-0.73047 0.0019-0.73047-0.14844 0-0.03342 0.011256-0.06549 0.035156-0.08789 0.0368-0.03453 0.039218-0.0332 0.77344-0.0332h0.73633l0.039063 0.03906c0.0391 0.0391 0.039063 0.03769 0.039063 0.38086v0.34375h0.43164v-0.13672c0-0.13097 4.751e-4 -0.13717 0.046875-0.18359 0.0405-0.04049 0.056809-0.04726 0.099609-0.03906 0.0281 0.0054 0.068191 0.02838 0.087891 0.05078 0.0311 0.03537 0.035156 0.05702 0.035156 0.17383v0.13477h0.9043l0.042969-0.09961c0.023-0.05476 0.21947-0.529 0.4375-1.0547l0.39648-0.95508-0.64062-0.64453-0.097656 0.09375c-0.0838 0.08044-0.10921 0.0957-0.1582 0.0957-0.0747 0-0.13477-0.05854-0.13477-0.12891 0-0.03947 0.019556-0.07105 0.097656-0.15234l0.099609-0.10156-0.30078-0.30078-0.27148 0.26953c-0.25874 0.25722-0.2751 0.27148-0.33398 0.27148-0.0601 0-0.079105-0.01657-0.57812-0.51563-0.49219-0.49225-0.51367-0.51713-0.51367-0.57422 0-0.08124 0.055729-0.13672 0.13672-0.13672 0.0564 0 0.082459 0.02169 0.51172 0.44922l0.45117 0.44922 0.20312-0.20312 0.20312-0.20117-0.45117-0.45117c-0.42921-0.43018-0.44922-0.45464-0.44922-0.51172 0-0.07779 0.057599-0.13672 0.13086-0.13672 0.0467 0 0.09645 0.04459 0.50586 0.45312l0.45508 0.45508 0.17383-0.17578 0.17578-0.17578-0.44141-0.44141c-0.24261-0.24309-0.44846-0.4613-0.45703-0.48438-0.0331-0.08917 0.065366-0.19207 0.16016-0.16797 0.021 0.0053 0.26718 0.24116 0.55078 0.52539 0.47218 0.47322 0.51367 0.5187 0.51367 0.56836 0 0.04835-0.025258 0.08023-0.24219 0.29883l-0.24219 0.24414 0.15039 0.15039 0.15039 0.15039 0.095703-0.09375c0.11801-0.11595 0.18293-0.12957 0.25586-0.05664 0.0677 0.06767 0.055006 0.12195-0.058594 0.24024l-0.099609 0.10352 0.64062 0.64062 0.44531-0.18555c0.24562-0.10184 0.45486-0.18555 0.46484-0.18555 0.0434 0 0.11128 0.05073 0.12695 0.0957 0.0191 0.05483 0.00404 0.10874-0.039063 0.14453-0.0153 0.0127-0.22835 0.10518-0.47461 0.20703l-0.44922 0.18555-0.44922 1.0879-0.45117 1.0879 0.33789 0.81445c0.1856 0.44791 0.38734 0.93607 0.44922 1.0859l0.11328 0.27344 1.0859 0.44922 1.0879 0.44922 0.71289-0.29492c1.2743-0.52741 1.4448-0.59852 1.457-0.61133 7e-3 -0.0069 0.21161-0.49718 0.45703-1.0898l0.44727-1.0781-0.90234-2.1719-0.44531-0.18555c-0.24583-0.10202-0.46211-0.20011-0.48047-0.2168-0.0769-0.06989-0.01526-0.22106 0.08984-0.2207 0.0242 8e-5 0.23896 0.08058 0.47852 0.17969l0.43555 0.17969 0.64062-0.64062-0.09766-0.10352c-0.11244-0.1171-0.12685-0.16741-0.0625-0.24219 0.0284-0.033 0.05396-0.04492 0.09766-0.04492 0.0499 0 0.0707 0.01483 0.15625 0.09961l0.09961 0.09766 0.15039-0.15039 0.15039-0.15039-0.24219-0.24414c-0.21851-0.22016-0.24219-0.25128-0.24219-0.30078 0-0.05089 0.03948-0.09307 0.52344-0.57617 0.47195-0.47116 0.52729-0.52148 0.57422-0.52148zm-4.373 1.3477c0.02748-0.0035 0.054604 0.0033 0.083984 0.02148 0.035 0.02163 0.054047 0.04784 0.060547 0.08398 5e-3 0.02889 0.00786 0.56787 0.00586 1.1973l-0.00586 1.1445-0.044922 0.03906c-0.0484 0.04166-0.096424 0.04632-0.14648 0.01758v2e-3c-0.0726-0.04162-0.069812-0.0095-0.070312-1.25v-1.1797l0.035156-0.0332c0.0271-0.02527 0.054551-0.0395 0.082031-0.04297zm0.70508 0c0.0473-0.01432 0.12936 0.02989 0.14844 0.08008 9e-3 0.02419 0.01563 0.49836 0.01563 1.1953v1.1562l-0.046875 0.04687c-0.0489 0.04889-0.098994 0.05598-0.15234 0.02539v2e-3c-0.0726-0.04162-0.069813-0.0095-0.070312-1.25v-1.1797l0.035156-0.0332c0.0197-0.01804 0.051013-0.03713 0.070312-0.04297zm10.893 1.2012c0.0533 0 0.12109 0.06888 0.12109 0.12305 0 0.02473-0.03327 0.19171-0.07227 0.37109-0.0389 0.17939-0.34379 1.5991-0.67773 3.1543-0.33393 1.5552-0.6136 2.8587-0.62305 2.8965-0.0253 0.10121-0.11012 0.14676-0.20117 0.10742-0.0285-0.01233-0.05871-0.04008-0.06641-0.06055-8e-3 -0.02047-0.11503-0.50656-0.23828-1.0801s-0.42916-1.9968-0.67969-3.1621c-0.25053-1.1653-0.45982-2.1504-0.46484-2.1914-8e-3 -0.06685-0.0049-0.0804 0.03516-0.11719 0.0663-0.06146 0.17552-0.04628 0.21484 0.0293 0.0158 0.03038 0.22792 1.0089 1.0156 4.6855 0.12764 0.59578 0.23657 1.0877 0.24219 1.0938 6e-3 0.0061 0.09273-0.38018 0.19531-0.85938 0.70936-3.3127 1.0482-4.8764 1.0645-4.9121 0.0205-0.04503 0.07708-0.07813 0.13476-0.07813zm1.2305 0c0.0586 0 0.0961 0.0378 1.4102 1.3516l1.3516 1.3496v1.9434l-2e-3 1.9414-0.0332 0.03711c-0.0343 0.0365-0.10769 0.04896-0.16406 0.02734-0.0696-0.02671-0.07227-0.05965-0.07227-0.85352v-0.75391l-2.3574-2.3574v1.9316c0 2.0567 0.0021 2.0047-0.07227 2.0332-0.0563 0.02161-0.12982 0.0091-0.16406-0.02734l-0.03516-0.03711v-2.1172c-1.9e-4 -1.1648-5e-5 -2.6293 0-3.2539v-1.1367l0.03906-0.03906c0.0277-0.02773 0.05681-0.03906 0.09961-0.03906zm10.043 0c0.03201 0.0013 0.06405 0.01715 0.09375 0.04687l0.04687 0.04687v3.2285c0 2.4237-0.0041 3.2356-0.01758 3.2617-0.0448 0.08415-0.14911 0.10284-0.21484 0.03711l-0.03906-0.03906v-3.0605h-2.2285v1.5137c0 1.6083-8.19e-4 1.5871-0.07422 1.6152-0.0592 0.02271-0.12763 0.0097-0.16602-0.03125l-0.03906-0.04102-0.0059-3.1973c-3e-3 -1.7582 6.09e-4 -3.2205 0.0059-3.25 0.0224-0.1251 0.14626-0.17015 0.23242-0.08398l0.04492 0.04687v1.5156h2.2305v-1.5312l0.03906-0.03906c0.0274-0.02741 0.05979-0.04036 0.0918-0.03906zm8.6777 2e-3c0.03114-1.15e-4 0.06259 0.01199 0.0918 0.03711l0.04492 0.03906 0.0078 1.4609 0.0078 1.4629 0.10352-0.13477c1.2166-1.5886 2.1803-2.8204 2.2109-2.8281 0.0886-0.02223 0.17969 0.04255 0.17969 0.12891 0 0.05109-0.061 0.13108-1.9805 2.6172-0.24705 0.31999-0.39227 0.52264-0.38672 0.53711 5e-3 0.01279 0.50216 0.69271 1.1055 1.5098 0.6033 0.81706 1.1187 1.5161 1.1465 1.5547 0.0645 0.08936 0.06551 0.14935 0.0039 0.21094-0.0616 0.06165-0.11407 0.05947-0.18164-0.0059-0.0294-0.02847-0.53666-0.70697-1.127-1.5078l-1.0742-1.457-0.0078 1.4727c-6e-3 1.1183-0.01254 1.4801-0.02734 1.5059-0.0382 0.06663-0.14346 0.07528-0.20312 0.01563l-0.03906-0.03906v-6.5039l0.03906-0.03906c0.0253-0.02532 0.0548-0.037 0.08594-0.03711zm-14.939 2e-3c0.03793-0.0081 0.07923-2.26e-4 0.11328 0.02734l0.03711 0.03125 0.0078 3.0449 0.0078 3.0449 1.1074-1.2871c1.5742-1.8309 1.4229-1.6621 1.498-1.6621 0.0995 0 0.17039 0.09671 0.13086 0.17969-9e-3 0.01907-0.2929 0.35426-0.62891 0.74414-0.33601 0.38988-0.96185 1.1187-1.3926 1.6191-0.54162 0.62929-0.79467 0.91161-0.82031 0.91602-0.0204 0.0035-0.05277 3e-3 -0.07227 0-0.0195-0.0029-0.05066-0.02242-0.06836-0.04492-0.032-0.04074-0.0332-0.05426-0.0332-3.2734 0-2.4272 6e-3 -3.2415 0.01953-3.2676 0.02095-0.03932 0.05582-0.06416 0.09375-0.07227zm13.838 0.02148c0.10644 0 0.166 0.12487 0.10352 0.21484-0.015 0.02166-0.57372 0.73398-1.2422 1.582-0.66847 0.84805-1.2167 1.5462-1.2188 1.5527-2e-3 0.0065 0.23604 0.31742 0.5293 0.68945 0.4891 0.62048 0.69728 0.88343 1.5371 1.9492 0.35054 0.44485 0.34243 0.43454 0.3418 0.49414-5.7e-4 0.05443-0.02332 0.09004-0.07422 0.11719-0.0605 0.03219-0.10242 0.02043-0.16211-0.04297-0.10365-0.11009-2.4614-3.1116-2.4824-3.1602-0.0177-0.04087-0.01679-0.05495 0.0078-0.10156 0.0157-0.02977 0.43977-0.57538 0.94336-1.2129 0.5036-0.63751 1.0713-1.3559 1.2617-1.5977 0.19044-0.2418 0.35878-0.45105 0.37305-0.46289 0.0143-0.01184 0.05103-0.02148 0.08203-0.02148zm-6.2598 0.0078c0.0576 0 0.08952 0.03121 0.9668 0.91211 0.49956 0.50159 1.0791 1.0842 1.2871 1.2949l0.37695 0.38281v1.9629c0 1.4623-0.0041 1.9721-0.01758 1.998-0.0448 0.08415-0.14716 0.10284-0.21289 0.03711l-0.03906-0.03906v-1.8281l-1.1152-1.123-1.1133-1.1211-2e-3 2.041v2.0391l-0.03711 0.03516c-0.0467 0.04387-0.13601 0.04559-0.1875 0.0039l-0.03906-0.03125-0.0039-3.2148c-2e-3 -1.7684-5.43e-4 -3.232 0.0039-3.252 0.0147-0.06048 0.06744-0.09766 0.13281-0.09766zm13.48 0.0059c0.07865-0.02068 0.1582 0.03032 0.1582 0.12695 0 0.06123 0.09207-0.05783-1.5547 2.0488l-0.7793 0.99609 0.39844 0.0098c0.2192 0.0053 0.69264 0.01048 1.0527 0.01172 0.43239 0.0015 0.67358 0.0078 0.70703 0.01953 0.0601 0.02097 0.10407 0.09573 0.08984 0.15234-0.0108 0.04311-2.3977 3.0836-2.4961 3.1797-0.0755 0.07375-0.12533 0.07779-0.18945 0.01367-0.077-0.07699-0.06571-0.11743 0.08789-0.31445 0.074-0.0949 0.59252-0.75321 1.1523-1.4629l1.0176-1.291-0.10547-0.0098c-0.0578-0.0055-0.36576-0.01062-0.68555-0.01172-0.31979-0.0011-0.76177-0.0079-0.98047-0.01367-0.3862-0.01027-0.39818-0.01147-0.43359-0.04687-0.0238-0.02383-0.03711-0.05412-0.03711-0.08984 0-0.04724 0.05578-0.12473 0.4043-0.57031 0.22177-0.28356 0.77805-0.99697 1.2363-1.584 0.45829-0.58702 0.85586-1.0907 0.88281-1.1191 0.02287-0.02417 0.048-0.03803 0.07422-0.04492zm-24.707 0.41602v1.8477l2.3496 2.3496 0.0039-0.91992 0.0039-0.91992-1.1797-1.1797zm11.365 0.05469c-5e-3 0-0.0078 0.36117-0.0078 0.80274v0.80469l1.1094 1.1152c0.60984 0.61419 1.1118 1.1172 1.1152 1.1172 3e-3 0 0.0059-0.36395 0.0059-0.80859l-2e-3 -0.80859-1.1055-1.1113c-0.60845-0.61123-1.1107-1.1114-1.1152-1.1114zm-3.8145 1.3866v1.3379h2.2305v-1.3379h-1.1152z" fill="#95969a"/>
 <path d="m8.6454 30.874c-0.086-0.03373-0.0854-0.02743-0.0848-0.81173 4e-4 -0.54499 5e-3 -0.73153 0.0199-0.75052 0.0436-0.05681 0.0841-0.06234 0.45642-0.06234h0.36744v-0.43011h-0.13614c-0.12329 0-0.13981-0.0037-0.17523-0.0391-0.026-0.02605-0.0389-0.05662-0.0386-0.0916 9.9e-4 -0.10295 0.0619-0.14011 0.22967-0.14011h0.12077l-4e-3 -0.4552-4e-3 -0.4552-1.0344-0.42892c-0.56895-0.2359-1.0421-0.42892-1.0515-0.42892-9e-3 0-0.15974 0.14281-0.33412 0.31736l-0.31707 0.31736 0.0905 0.09124c0.0498 0.05018 0.0951 0.10938 0.10063 0.13155 0.021 0.08376-0.0757 0.17714-0.1612 0.15567-0.0246-0.0062-0.0854-0.05004-0.13516-0.09748l-0.0904-0.08625-0.14998 0.15061-0.14998 0.1506 0.24244 0.24427c0.21749 0.21914 0.24243 0.24986 0.24243 0.2986 0 0.05009-0.0401 0.0944-0.51474 0.56834-0.50451 0.50378-0.51602 0.51401-0.57866 0.51401-0.0843 0-0.13319-0.04962-0.13319-0.13526 0-0.05928 0.0162-0.07782 0.44578-0.50908l0.44577-0.44756-0.34127-0.34127-0.44756 0.44578c-0.43667 0.43494-0.44911 0.44578-0.51131 0.44578-0.0836 0-0.13302-0.04976-0.13302-0.13396 0-0.05761 0.0194-0.07963 0.44683-0.5077l0.44684-0.44748-0.40748-0.40839-0.4462 0.4458c-0.49213 0.49169-0.50312 0.4995-0.59464 0.4225-0.0398-0.03351-0.0507-0.05505-0.0507-0.10047 0-0.05465 0.0281-0.08599 0.51373-0.57187 0.41106-0.41131 0.52424-0.51611 0.5663-0.52436 0.0509-0.01 0.0611-0.0018 0.32713 0.26265 0.15102 0.15013 0.2791 0.27296 0.28462 0.27296 6e-3 0 0.0751-0.06576 0.15453-0.14614l0.14448-0.14614-0.0866-0.09077c-0.0476-0.04993-0.0916-0.11091-0.0978-0.13551-0.0216-0.08608 0.0719-0.18222 0.15657-0.16098 0.0227 0.0057 0.0795 0.04976 0.12633 0.09793 0.0468 0.04817 0.0897 0.08763 0.0953 0.08768 6e-3 4.7e-5 0.15327-0.14335 0.32816-0.31867l0.31799-0.31877-0.86704-2.0944-0.91234-0.0084v0.12051c0 0.12572-0.0252 0.20242-0.0724 0.22054-0.0554 0.02126-0.12083 0.0093-0.1593-0.0292-0.0354-0.03541-0.0391-0.05194-0.0391-0.17523v-0.13618h-0.43011v0.76609l-0.0782 0.0782h-0.73135c-0.71576 0-0.73224-7.07e-4 -0.77332-0.03302-0.0522-0.04108-0.0579-0.13499-0.0115-0.19222l0.0304-0.03761 1.2932-9e-3v-0.57244h-0.62205c-0.73544 0-0.73198 7.17e-4 -0.73198-0.15148 0-0.0386 0.0116-0.0624 0.042-0.08631 0.0409-0.03215 0.0587-0.03302 0.67702-0.03302h0.63504v-0.49383h-0.62205c-0.73423 0-0.73198 4.48e-4 -0.73198-0.14986 0-0.03342 0.013-0.06391 0.0369-0.08631 0.0368-0.03453 0.0391-0.03464 0.77332-0.03464h0.73645l0.0391 0.0391c0.0391 0.0391 0.0391 0.03915 0.0391 0.38232v0.34322h0.4301v-0.13663c0-0.13097 2e-3 -0.13864 0.0484-0.18506 0.0405-0.04049 0.0568-0.04682 0.0996-0.03862 0.0281 0.0054 0.0673 0.02814 0.087 0.05054 0.0311 0.03537 0.0358 0.05844 0.0358 0.17525v0.13452h0.90441l0.0419-0.09956c0.023-0.05476 0.22028-0.52967 0.43831-1.0554l0.39642-0.9558-0.3203-0.32199-0.32029-0.32199-0.0989 0.09499c-0.0838 0.08044-0.10779 0.09499-0.15678 0.09499-0.0747 0-0.13606-0.05773-0.13606-0.12809 0-0.03947 0.0206-0.07135 0.0987-0.15264l0.0987-0.10275-0.14999-0.15062-0.14999-0.15062-0.27229 0.27068c-0.25874 0.25722-0.27536 0.27068-0.33424 0.27068-0.0601 0-0.0774-0.01548-0.57642-0.51453-0.49219-0.49226-0.51447-0.51712-0.51447-0.5742 0-0.08124 0.0565-0.13787 0.13749-0.13787 0.0564 0 0.0815 0.02214 0.51076 0.44967l0.45146 0.44967 0.2026-0.20261 0.20261-0.20261-0.44979-0.45081c-0.42921-0.43018-0.44979-0.45355-0.44979-0.51063 0-0.07779 0.0568-0.13802 0.13006-0.13802 0.0467 0 0.0974 0.04542 0.50681 0.45396l0.45495 0.45396 0.34944-0.35054-0.44111-0.44197c-0.24261-0.24309-0.44812-0.46085-0.45669-0.48392-0.0331-0.08917 0.0644-0.1921 0.15919-0.168 0.021 0.0053 0.26822 0.24033 0.55182 0.52456 0.47218 0.47323 0.51373 0.51925 0.51373 0.56891 0 0.04835-0.0255 0.0797-0.24243 0.2983l-0.24244 0.24427 0.30094 0.3022 0.096-0.09427c0.11801-0.11595 0.18304-0.1306 0.25597-0.05767 0.0677 0.06767 0.0539 0.12349-0.0597 0.24177l-0.0988 0.10288 0.31985 0.31985 0.31984 0.31985 0.44658-0.18516c0.24562-0.10184 0.45475-0.18516 0.46473-0.18516 0.0434 0 0.11004 0.05072 0.12571 0.09569 0.0191 0.05483 5e-3 0.10798-0.0381 0.14377-0.0153 0.0127-0.22931 0.10642-0.47557 0.20827l-0.44774 0.18518-0.45073 1.0874-0.45074 1.0874 0.33744 0.81438c0.1856 0.44791 0.38808 0.937 0.44996 1.0869l0.11252 0.27249 2.1737 0.90019 0.71401-0.29552c1.2743-0.52741 1.4437-0.59853 1.4559-0.61134 7e-3 -0.0069 0.21287-0.49752 0.45829-1.0902l0.4462-1.0776-0.90078-2.1732-0.44695-0.18548c-0.24583-0.10202-0.46198-0.19914-0.48034-0.21583-0.0769-0.06989-0.0151-0.22209 0.09-0.22173 0.0242 8e-5 0.23993 0.08124 0.47949 0.18034l0.43556 0.18019 0.64068-0.64068-0.0988-0.10288c-0.11244-0.1171-0.12535-0.16857-0.061-0.24334 0.0284-0.033 0.0522-0.0439 0.0959-0.0439 0.0499 0 0.0722 0.01393 0.15775 0.09871l0.0996 0.09871 0.30094-0.3022-0.24244-0.24427c-0.21851-0.22016-0.24243-0.24969-0.24243-0.29919 0-0.05089 0.0383-0.0932 0.52226-0.5763 0.47195-0.47116 0.52726-0.52138 0.57419-0.52138 0.0734 0 0.13014 0.06019 0.13014 0.13802 0 0.05708-0.0206 0.08044-0.44969 0.51053l-0.44969 0.45071 0.16665 0.16722c0.0917 0.09197 0.17379 0.16722 0.1825 0.16722 9e-3 0 0.21702-0.20072 0.4629-0.44604 0.40208-0.40118 0.45225-0.44604 0.49889-0.44604 0.0733 0 0.13005 0.06023 0.13005 0.13802 0 0.05708-0.0206 0.08045-0.44979 0.51063l-0.44979 0.45081 0.40547 0.40547 0.4508-0.4498c0.43018-0.42921 0.45355-0.4498 0.51063-0.4498 0.078 0 0.13802 0.05674 0.13802 0.13043 0 0.04733-0.0489 0.10114-0.52197 0.5742-0.48175 0.48175-0.52617 0.52198-0.57643 0.52198-0.0492 0-0.0809-0.02629-0.32673-0.27068l-0.27229-0.27068-0.14999 0.15062-0.14999 0.15062 0.0987 0.10275c0.10387 0.10816 0.11483 0.13956 0.0754 0.21588-0.0262 0.05063-0.0531 0.06486-0.12274 0.06486-0.0368 0-0.0708-0.02198-0.14679-0.09499l-0.0989-0.09499-0.6432 0.64398 0.43541 1.0514 0.4354 1.0514 0.91284 0.0084v-0.1422c0-0.13923 1e-3 -0.14306 0.049-0.18344 0.0642-0.05404 0.11748-0.05243 0.17523 0.0053 0.0442 0.04423 0.0466 0.05342 0.0466 0.18319v0.13663h0.4301v-0.3416c0-0.33174 1e-3 -0.34276 0.0358-0.38176 0.0197-0.02208 0.0538-0.04152 0.0757-0.04319 0.0219-0.0017 0.35377-0.0019 0.73748-5.62e-4l0.69765 0.0025 0.0391 0.0391c0.0506 0.05063 0.0509 0.12064 6.7e-4 0.17905l-0.0384 0.0447-1.2772 9e-3v0.49278h1.2758l0.0391 0.0391c0.0536 0.05365 0.0528 0.13364-2e-3 0.18512l-0.0411 0.03862-1.2718 9e-3v0.57243h0.62231c0.63586 0 0.66543 0.0026 0.7113 0.06234 0.0334 0.04355 0.0243 0.12639-0.0187 0.16937l-0.0391 0.0391h-1.4684l-0.0782-0.0782v-0.76602h-0.4301v0.12027c0 0.12548-0.0252 0.20219-0.0724 0.2203-0.0554 0.02126-0.12083 0.0093-0.15931-0.02921-0.0354-0.03541-0.0391-0.05194-0.0391-0.17523v-0.13612l-0.91596 3.98e-4 -0.13856 0.3383c-0.0762 0.18607-0.27205 0.66036-0.4352 1.054l-0.29665 0.71568 0.63788 0.63789 0.0943-0.08996c0.0519-0.04948 0.11263-0.09456 0.135-0.10017 0.0856-0.02147 0.18542 0.07431 0.16448 0.15774-5e-3 0.01942-0.0485 0.07444-0.0969 0.12228-0.0484 0.04784-0.0881 0.09429-0.0882 0.10322-4e-5 0.0089 0.0663 0.08238 0.1475 0.16322l0.14759 0.14698 0.2626-0.26406c0.14444-0.14524 0.27873-0.27048 0.29845-0.27832 0.0221-0.0088 0.0527-8e-3 0.0796 2e-3 0.0502 0.01864 0.99782 0.95628 1.0325 1.0216 0.0342 0.06435 0.028 0.10567-0.0237 0.15733-0.0911 0.09116-0.0896 0.09224-0.59029-0.40738l-0.45492-0.45394-0.20649 0.20695-0.2065 0.20695 0.44972 0.45074c0.41919 0.42015 0.44971 0.45456 0.44971 0.50706 0 0.09139-0.10283 0.16324-0.1786 0.12479-0.02-0.01017-0.23366-0.21491-0.47471-0.45497l-0.43825-0.43648-0.17472 0.17526-0.17472 0.17526 0.4497 0.45072c0.39374 0.39464 0.44969 0.45681 0.44969 0.4997 0 0.10176-0.10278 0.17114-0.18731 0.12644-0.024-0.0127-0.26768-0.24788-0.54148-0.52263-0.46444-0.46606-0.4978-0.5033-0.4978-0.55568 0-0.05121 0.0213-0.07737 0.24293-0.29789l0.24293-0.24176-0.15606-0.15553-0.15605-0.15552-0.0438 0.04779c-0.14304 0.15619-0.22366 0.18656-0.29798 0.11223-0.0691-0.06914-0.0548-0.13408 0.0556-0.25209l0.0947-0.1012-0.64333-0.64042-0.0797 0.03556c-0.0438 0.01956-0.51871 0.21722-1.0554 0.43925l-0.9757 0.40369v0.90302l0.12346 2.49e-4c0.0679 1.49e-4 0.14116 0.0092 0.1628 0.02014 0.0875 0.0443 0.10173 0.1505 0.0291 0.21813-0.0294 0.02738-0.056 0.0323-0.17503 0.0323h-0.14037v0.43011h0.32553c0.17904 0 0.34347 0.0068 0.36541 0.01517 0.0219 0.0083 0.0479 0.03013 0.0577 0.04842 0.0124 0.02322 0.0174 0.25288 0.0165 0.76063-1e-3 0.6649-4e-3 0.73-0.0288 0.75787-0.0705 0.0783-0.19107 0.05812-0.22442-0.03755-0.0123-0.03522-0.0181-0.24806-0.0181-0.66281v-0.61093h-0.49383v1.2848l-0.0358 0.03226c-0.051 0.04588-0.0837 0.05402-0.13942 0.03461-0.0939-0.03275-0.0955-0.04495-0.0955-0.72958v-0.62206h-0.57348v1.2726l-0.0358 0.03913c-0.0411 0.04485-0.10013 0.06144-0.14963 0.04203zm10.671-2.5565c-0.0285-0.01233-0.0583-0.03917-0.066-0.05964-8e-3 -0.02047-0.115-0.50646-0.23825-1.08-0.12325-0.57352-0.42907-1.9962-0.6796-3.1614-0.25053-1.1653-0.45961-2.1522-0.46463-2.1932-8e-3 -0.06685-5e-3 -0.0787 0.0351-0.11549 0.0663-0.06146 0.17379-0.04711 0.21311 0.02847 0.0158 0.03038 0.22791 1.0089 1.0156 4.6856 0.12764 0.59578 0.23667 1.0882 0.24229 1.0943 6e-3 0.0061 0.0942-0.38102 0.19678-0.86022 0.70936-3.3127 1.0483-4.8768 1.0646-4.9125 0.0205-0.04503 0.0755-0.07666 0.13319-0.07666 0.0533 0 0.12105 0.06893 0.12105 0.1231 0 0.02473-0.0318 0.19174-0.0708 0.37113-0.0389 0.17939-0.34398 1.5986-0.67792 3.1537-0.33393 1.5552-0.61489 2.8585-0.62434 2.8963-0.0253 0.10121-0.10912 0.14579-0.20017 0.10645zm6.452 0.01122c-0.0195-0.0029-0.05-0.02376-0.0677-0.04626-0.032-0.04074-0.0322-0.0544-0.0322-3.2736 0-2.4272 5e-3 -3.2413 0.0185-3.2675 0.0419-0.07864 0.13861-0.09931 0.20671-0.04417l0.0376 0.03045 8e-3 3.0457 8e-3 3.0457 1.1071-1.2876c1.5742-1.8309 1.4228-1.6628 1.498-1.6628 0.0995 0 0.16985 0.09741 0.13032 0.18039-9e-3 0.01907-0.29144 0.35366-0.62745 0.74355s-0.96333 1.1183-1.3941 1.6188c-0.54162 0.62929-0.79456 0.91186-0.8202 0.91627-0.0204 0.0035-0.0531 4e-3 -0.0726 1e-3zm-3.8723-0.03991-0.0345-0.03669-3.5e-4 -2.1178c-1.9e-4 -1.1648-2.4e-4 -2.6289-1.9e-4 -3.2536l1.9e-4 -1.1357 0.0391-0.0391c0.0277-0.02773 0.0566-0.0391 0.0994-0.0391 0.0586 0 0.0967 0.03647 1.4108 1.3502l1.3505 1.3502-3.5e-4 1.9424-3.5e-4 1.9424-0.0345 0.03674c-0.0343 0.0365-0.10729 0.04847-0.16366 0.02685-0.0696-0.02671-0.0724-0.05969-0.0724-0.85355v-0.75352l-1.1788-1.1787-1.1788-1.1787v1.9323c0 2.0567 2e-3 2.0038-0.0724 2.0323-0.0563 0.02161-0.12936 0.0097-0.1636-0.02679zm1.4149-4.9891-1.1789-1.1789v1.8478l2.3496 2.3498 4e-3 -0.91985 4e-3 -0.91985zm6.1316 4.9846-0.0386-0.04111-5e-3 -3.1967c-3e-3 -1.7582-2.5e-4 -3.2208 5e-3 -3.2502 0.0224-0.1251 0.14557-0.16924 0.23173-0.08308l0.0466 0.04656v1.5158h2.2302v-1.5307l0.0391-0.0391c0.0548-0.05481 0.12573-0.05195 0.18514 0.0075l0.0466 0.04656v3.2281c0 2.4237-5e-3 3.2368-0.0185 3.2629-0.0448 0.08415-0.14744 0.10125-0.21317 0.03552l-0.0391-0.0391v-3.06h-2.2302v1.5141c0 1.6083 1e-3 1.586-0.0724 1.6142-0.0592 0.02271-0.12936 0.0097-0.16775-0.03121zm2.4703-4.0529v-0.66906h-2.2302v1.3381h2.2302zm1.3518 4.0635-0.0376-0.03045-4e-3 -3.2153c-2e-3 -1.7684-4.5e-4 -3.2316 4e-3 -3.2515 0.0147-0.06048 0.0659-0.09916 0.13127-0.09916 0.0576 0 0.0906 0.03109 0.96788 0.91199 0.49956 0.50159 1.0785 1.0844 1.2865 1.2951l0.37819 0.38308v1.9637c0 1.4624-5e-3 1.9725-0.0185 1.9984-0.0448 0.08415-0.14744 0.10125-0.21317 0.03552l-0.0391-0.0391v-1.8274l-2.2285-2.2442-8.5e-4 2.0402-8.4e-4 2.0402-0.0369 0.03464c-0.0467 0.04387-0.13688 0.04588-0.18837 0.0042zm2.4548-3.0878-6.1e-4 -0.80844-1.1062-1.1111c-0.60844-0.61111-1.11-1.1111-1.1145-1.1111-5e-3 0-8e-3 0.36128-8e-3 0.80285v0.80285l1.1088 1.1167c0.60984 0.61419 1.1116 1.1167 1.1151 1.1167 3e-3 0 6e-3 -0.3638 6e-3 -0.80844zm4.9142 3.0792-0.0391-0.0391v-6.5023l0.0391-0.0391c0.0506-0.05064 0.12064-0.0509 0.17905-6.57e-4l0.0447 0.03844 8e-3 1.462 8e-3 1.462 0.10355-0.13521c1.2166-1.5887 2.179-2.8205 2.2096-2.8282 0.0886-0.02223 0.17983 0.04383 0.17983 0.13019 0 0.05109-0.06 0.13046-1.9795 2.6166-0.24705 0.31999-0.39369 0.52307-0.38814 0.53754 5e-3 0.01279 0.50254 0.69176 1.1058 1.5088 0.6033 0.81706 1.1197 1.5171 1.1475 1.5556 0.0645 0.08936 0.0656 0.14832 4e-3 0.20991-0.0616 0.06165-0.1151 0.06013-0.18267-0.0052-0.0294-0.02847-0.53651-0.70701-1.1268-1.5078l-1.0733-1.4561-8e-3 1.472c-6e-3 1.1183-0.0126 1.4802-0.0274 1.506-0.0382 0.06663-0.14462 0.0742-0.20428 0.01454zm-1.2004-0.03766c-0.10365-0.11009-2.4622-3.1117-2.4832-3.1602-0.0177-0.04087-0.0166-0.05496 8e-3 -0.10157 0.0157-0.02977 0.44054-0.57572 0.94413-1.2132 0.5036-0.63751 1.0714-1.3569 1.2619-1.5988 0.19044-0.2418 0.35793-0.44933 0.3722-0.46117 0.0143-0.01184 0.0513-0.02153 0.0823-0.02153 0.10644 0 0.16699 0.12393 0.1045 0.2139-0.015 0.02166-0.57428 0.73324-1.2428 1.5813s-1.2171 1.5472-1.2192 1.5538c-2e-3 0.0065 0.23618 0.31626 0.52944 0.68829 0.4891 0.62049 0.69759 0.88502 1.5374 1.9508 0.35054 0.44485 0.34287 0.4338 0.34224 0.49339-5.7e-4 0.05443-0.0232 0.09016-0.0741 0.11731-0.0605 0.03219-0.10312 0.0211-0.16281-0.0423zm4.7921 0.01427c-0.077-0.07699-0.0656-0.11752 0.088-0.31454 0.074-0.0949 0.59259-0.75319 1.1524-1.4629l1.0178-1.2903-0.10503-0.01c-0.0578-0.0055-0.36667-0.01088-0.68646-0.01198s-0.76037-0.0068-0.97907-0.01258c-0.3862-0.01027-0.39867-0.01162-0.43408-0.04703-0.0238-0.02383-0.0365-0.0554-0.0365-0.09112 0-0.04724 0.0547-0.12463 0.40322-0.57022 0.22177-0.28356 0.77819-0.99585 1.2365-1.5829 0.45829-0.58702 0.8553-1.0906 0.88225-1.1191 0.0915-0.09668 0.23391-0.04666 0.23391 0.08218 0 0.06123 0.0907-0.05821-1.5561 2.0485l-0.77828 0.99562 0.39856 0.0097c0.2192 0.0053 0.69318 0.01071 1.0533 0.01195 0.43239 0.0015 0.67193 0.0082 0.70538 0.01991 0.0601 0.02097 0.10443 0.09579 0.0902 0.1524-0.0108 0.04311-2.3966 3.0831-2.495 3.1792-0.0755 0.07375-0.12696 0.07729-0.19108 0.01317zm-35.1-5.2933c-0.0726-0.04162-0.0707-0.0079-0.0712-1.2484l-5.1e-4 -1.18 0.0358-0.03346c0.0542-0.05055 0.10764-0.0573 0.1664-0.021 0.035 0.02163 0.0539 0.04784 0.0604 0.08398 5e-3 0.02889 7e-3 0.56749 5e-3 1.1969l-5e-3 1.1444-0.0447 0.03844c-0.0484 0.04166-0.0964 0.04794-0.14646 0.0192zm0.71684 0c-0.0726-0.04162-0.0707-0.0079-0.0712-1.2484l-5.1e-4 -1.18 0.0358-0.03281c0.0197-0.01804 0.0516-0.03758 0.0709-0.04342 0.0473-0.01432 0.12975 0.03025 0.14883 0.08044 9e-3 0.02419 0.0153 0.49826 0.0153 1.1952v1.1551l-0.0466 0.04656c-0.0489 0.04889-0.0992 0.05791-0.15255 0.02732z" display="none" stroke-width=".01593"/>
</svg>
