<?xml version="1.0" encoding="UTF-8"?>
<!-- Created with Inkscape (http://www.inkscape.org/) -->
<svg width="50" height="50" version="1.1" viewBox="0 0 50 50" xmlns="http://www.w3.org/2000/svg">
 <g fill="#95969a">
  <path d="m5 0c-2.77 0-5 2.23-5 5v40c0 2.77 2.23 5 5 5h40c2.77 0 5-2.23 5-5v-40c0-2.77-2.23-5-5-5h-40zm27.848 13.449c0.14414 0 0.25391 0.11865 0.25391 0.27148 0 0.11209-0.040209 0.15739-0.88281 1.002l-0.88281 0.88477 0.32812 0.32812c0.18007 0.1806 0.34032 0.33008 0.35742 0.33008 0.01767 0 0.42732-0.39522 0.91016-0.87695 0.78956-0.7878 0.88693-0.875 0.97852-0.875 0.14394 0 0.25586 0.11678 0.25586 0.26953 0 0.11209-0.040014 0.15916-0.88281 1.0039l-0.88281 0.88477 0.39648 0.39844 0.39844 0.39844 0.88477-0.88281c0.84474-0.84284 0.89182-0.88477 1.0039-0.88477 0.15317 0 0.27148 0.11116 0.27148 0.25586 0 0.09294-0.096422 0.19995-1.0254 1.1289-0.94601 0.94601-1.0341 1.0254-1.1328 1.0254-0.09661 0-0.15789-0.0533-0.64062-0.5332l-0.53516-0.53125-0.29492 0.29688-0.29492 0.29492 0.19531 0.20117c0.20397 0.2124 0.22391 0.27397 0.14648 0.42383-0.05145 0.09942-0.10348 0.12891-0.24024 0.12891-0.07226 0-0.13984-0.044128-0.28906-0.1875l-0.19336-0.18555-1.2637 1.2637 1.7109 4.1289 0.89648 0.009766 0.89648 0.007813v-0.2793c0-0.2734 0.001483-0.28204 0.095703-0.36133 0.12607-0.10612 0.23035-0.10165 0.34375 0.011719 0.0868 0.08685 0.091797 0.10454 0.091797 0.35938v0.26758h0.42188 0.42188v-0.66992c0-0.65144 0.002012-0.67344 0.070312-0.75 0.03869-0.043359 0.10543-0.082657 0.14844-0.085937 0.04301-0.0033 0.69573-0.0026 1.4492 0l1.3691 0.003906 0.078125 0.078125c0.09936 0.09942 0.09865 0.23686 0 0.35156l-0.074219 0.08789-1.2539 0.007813-1.2539 0.009766v0.48242 0.48438h1.252 1.252l0.078125 0.076172c0.10525 0.10535 0.10368 0.26413-0.003906 0.36524l-0.082032 0.074218-1.248 0.009766-1.248 0.007813v0.5625 0.5625h1.2207c1.2486 0 1.3064 0.005729 1.3965 0.12305 0.06559 0.08552 0.049284 0.24764-0.035156 0.33203l-0.078125 0.076172h-1.4414-1.4414l-0.076171-0.076172-0.078125-0.076172v-0.75195-0.75391h-0.42188-0.42188v0.23633c0 0.2464-0.049898 0.39804-0.14258 0.43359-0.10879 0.04175-0.23694 0.01898-0.3125-0.05664-0.06951-0.06954-0.076172-0.1036-0.076172-0.3457v-0.26758l-0.90039 0.001954h-0.89844l-0.27344 0.66406c-0.14963 0.36538-0.53314 1.2974-0.85352 2.0703l-0.58203 1.4043 0.625 0.62695 0.62695 0.62695 0.18555-0.17774c0.10192-0.09716 0.21974-0.18624 0.26367-0.19726 0.16809-0.04216 0.36534 0.14671 0.32422 0.31055-0.0098 0.03813-0.096365 0.14628-0.19141 0.24024-0.09504 0.09394-0.17168 0.18558-0.17188 0.20312-7.8e-5 0.01748 0.12961 0.16156 0.28906 0.32031l0.28906 0.28906 0.51562-0.51953c0.28364-0.2852 0.54917-0.53148 0.58789-0.54688 0.0434-0.01728 0.10343-0.015704 0.15625 0.003906 0.09858 0.0366 1.9592 1.8776 2.0273 2.0059 0.06716 0.12636 0.054645 0.20909-0.046875 0.31055-0.17889 0.17901-0.17696 0.18031-1.1602-0.80078l-0.89258-0.89062-0.40625 0.40625-0.4043 0.40625 0.88281 0.88476c0.82316 0.82505 0.88281 0.89301 0.88281 0.99609 0 0.17946-0.20277 0.31964-0.35156 0.24414-0.03927-0.01997-0.45829-0.42116-0.93164-0.89258l-0.85937-0.85742-0.6875 0.6875 0.88281 0.88672c0.77318 0.77495 0.88281 0.89625 0.88281 0.98047 0 0.19982-0.2012 0.33582-0.36719 0.24805-0.04713-0.02494-0.52484-0.48587-1.0625-1.0254-0.91202-0.9152-0.97852-0.98895-0.97852-1.0918 0-0.10056 0.041353-0.1529 0.47656-0.58594l0.47852-0.47461-0.61328-0.60938-0.085937 0.09375c-0.28089 0.30672-0.44 0.3647-0.58594 0.21875-0.13569-0.13577-0.10742-0.2624 0.10938-0.49414l0.18555-0.19922-1.2617-1.2578-0.1582 0.070312c-0.08601 0.03841-1.0185 0.42728-2.0723 0.86328l-1.916 0.79297v0.88672 0.88672h0.24414c0.13333 2.93e-4 0.27587 0.017583 0.31836 0.039062 0.17182 0.08699 0.19927 0.29493 0.056641 0.42774-0.05773 0.05377-0.10806 0.064453-0.3418 0.064453h-0.27734v0.42188 0.42188h0.64062c0.35158 0 0.67371 0.01481 0.7168 0.03125 0.043 0.0163 0.094035 0.05784 0.11328 0.09375 0.02435 0.0456 0.034973 0.49707 0.033203 1.4941-2e-3 1.3057-0.00799 1.4336-0.05664 1.4883-0.13844 0.15376-0.37592 0.11365-0.44141-0.074219-0.02415-0.06916-0.035156-0.48635-0.035156-1.3008v-1.1992h-0.48438-0.48633v1.2617 1.2598l-0.070312 0.064453c-0.10015 0.0901-0.16402 0.10648-0.27344 0.068359-0.18439-0.06431-0.1875-0.089177-0.1875-1.4336v-1.2207h-0.5625-0.5625v1.248 1.25l-0.070312 0.078125c-0.08071 0.08807-0.19772 0.12014-0.29492 0.082031h-0.001954c-0.16888-0.06624-0.16719-0.053612-0.16602-1.5938 7.85e-4 -1.0702 0.009782-1.4373 0.039062-1.4746 0.08562-0.11156 0.16536-0.12305 0.89648-0.12305h0.7207v-0.42188-0.42188h-0.26562c-0.2421 0-0.27615-0.006692-0.3457-0.076172-0.05106-0.05116-0.074809-0.111-0.074219-0.17969 0.0019-0.20216 0.12172-0.27539 0.45117-0.27539h0.23633l-0.007812-0.89453-0.007813-0.89453-2.0312-0.8418c-1.1172-0.46325-2.046-0.8418-2.0645-0.8418-0.01767 0-0.31382 0.28028-0.65625 0.62305l-0.62305 0.62305 0.17773 0.17969c0.09779 0.09854 0.18641 0.21427 0.19727 0.25781 0.04124 0.16448-0.14851 0.3488-0.31641 0.30664-0.04831-0.01217-0.16791-0.098245-0.26562-0.19141l-0.17774-0.16992-0.29492 0.29492-0.29297 0.29688 0.47461 0.47852c0.42708 0.43032 0.47656 0.49218 0.47656 0.58789 0 0.09836-0.077715 0.18456-1.0098 1.1152-0.9907 0.98927-1.0137 1.0098-1.1367 1.0098-0.16554 0-0.26172-0.09746-0.26172-0.26562 0-0.11641 0.031434-0.15313 0.875-1l0.875-0.87891-0.33398-0.33594-0.33594-0.33398-0.87891 0.875c-0.85749 0.85409-0.88176 0.875-1.0039 0.875-0.16416 0-0.26172-0.096362-0.26172-0.26172 0-0.11313 0.039569-0.15744 0.87891-0.99805l0.87695-0.87891-0.80078-0.80078-0.875 0.875c-0.96639 0.96553-0.98825 0.98129-1.168 0.83008-0.07816-0.0658-0.09961-0.10807-0.09961-0.19727 0-0.10732 0.054186-0.16893 1.0078-1.123 0.8072-0.8077 1.0307-1.0151 1.1133-1.0312 0.09995-0.019639 0.12018-0.003639 0.64258 0.51563 0.29656 0.2948 0.54775 0.53711 0.55859 0.53711 0.01178 0 0.14676-0.12927 0.30273-0.28711l0.2832-0.28711-0.16992-0.17773c-0.09347-0.09805-0.17923-0.2173-0.19141-0.26562-0.04242-0.16904 0.14038-0.35813 0.30664-0.31641 0.04458 0.01119 0.15609 0.096811 0.24805 0.19141 0.0919 0.09459 0.1765 0.17178 0.1875 0.17188 0.01178 9.2e-5 0.3011-0.28072 0.64453-0.625l0.625-0.62695-0.85156-2.0566-0.85156-2.0547-0.89648-0.009765-0.89453-0.007813v0.23633c0 0.24688-0.049897 0.39801-0.14258 0.43359-0.10879 0.04175-0.23696 0.01896-0.3125-0.05664-0.06951-0.06954-0.076171-0.10165-0.076171-0.34375v-0.26758h-0.42383-0.42188v0.75195 0.75195l-0.076172 0.076172-0.078124 0.076172h-1.4355c-1.4055 0-1.4369-0.001014-1.5176-0.064454-0.1025-0.08067-0.11456-0.26456-0.023437-0.37695l0.060547-0.074219 1.2695-0.007812 1.2695-0.009766v-0.5625-0.56055h-1.2227c-1.4442 0-1.4375 3.4e-5 -1.4375-0.29883 0-0.0758 0.024285-0.12102 0.083984-0.16797 0.08032-0.06313 0.11394-0.066407 1.3281-0.066407h1.248v-0.48438-0.48438h-1.2227c-1.4418 0-1.4355 2.38e-4 -1.4355-0.29492 0-0.065629 0.025336-0.12593 0.072266-0.16992 0.07226-0.06781 0.075795-0.066407 1.5176-0.066407h1.4473l0.076171 0.076172c0.07678 0.07678 0.076172 0.07612 0.076172 0.75v0.67383h0.42188 0.42383v-0.26758c0-0.25718 0.00261-0.27212 0.09375-0.36328 0.079529-0.07951 0.11127-0.092272 0.19531-0.076172 0.05518 0.0106 0.13319 0.05563 0.17188 0.099609 0.06107 0.06946 0.070312 0.11438 0.070313 0.34375v0.26367h0.88867 0.88672l0.082031-0.19531c0.04516-0.10753 0.43318-1.04 0.86133-2.0723l0.7793-1.877-0.62891-0.63281-0.63086-0.63086-0.19336 0.18555c-0.16456 0.15796-0.21239 0.1875-0.30859 0.1875-0.14669 0-0.26562-0.11378-0.26562-0.25195 0-0.07751 0.039992-0.14114 0.19336-0.30078l0.19336-0.20117-0.29492-0.29492-0.29492-0.29688-0.5332 0.53125c-0.50808 0.50511-0.54063 0.5332-0.65625 0.5332-0.11802 0-0.15289-0.031728-1.1328-1.0117-0.96651-0.96664-1.0098-1.0149-1.0098-1.127 0-0.15953 0.11049-0.27148 0.26953-0.27148 0.11075 0 0.16097 0.043276 1.0039 0.88281l0.88672 0.88477 0.39648-0.39844 0.39844-0.39844-0.88281-0.88477c-0.84284-0.84475-0.88281-0.89182-0.88281-1.0039 0-0.15276 0.11005-0.26953 0.25391-0.26953 0.0917 0 0.19214 0.088373 0.99609 0.89062l0.89258 0.89258 0.34375-0.3457 0.34375-0.34375-0.86719-0.86719c-0.47641-0.47735-0.87966-0.90586-0.89648-0.95117-0.065-0.1751 0.12636-0.37741 0.3125-0.33008 0.04124 0.01041 0.52708 0.47311 1.084 1.0312 0.92722 0.92927 1.0078 1.0197 1.0078 1.1172 0 0.09494-0.048622 0.15668-0.47461 0.58594l-0.47656 0.47852 0.58984 0.59375 0.18945-0.18555c0.23174-0.22769 0.35874-0.25649 0.50195-0.11328 0.13294 0.13288 0.10589 0.24234-0.11719 0.47461l-0.19336 0.20312 1.2559 1.2559 0.87695-0.36328c0.48232-0.19998 0.89251-0.36328 0.91211-0.36328 0.08522 0 0.21728 0.099194 0.24805 0.1875 0.03751 0.10767 0.008448 0.21098-0.076172 0.28125-0.03004 0.02494-0.45001 0.21016-0.93359 0.41016l-0.87891 0.36328-0.88477 2.1348-0.88476 2.1367 0.66211 1.5977c0.36446 0.87956 0.7613 1.8405 0.88281 2.1348l0.2207 0.53516 2.1348 0.88477 2.1348 0.88281 1.4023-0.58008c2.5023-1.0357 2.8353-1.176 2.8594-1.2012 0.01375-0.01355 0.41651-0.97682 0.89844-2.1406l0.87695-2.1152-0.88476-2.1348-0.88477-2.1328-0.87695-0.36524c-0.48273-0.20033-0.90731-0.39105-0.94336-0.42383-0.15101-0.13724-0.0306-0.43626 0.17578-0.43555 0.04752 1.57e-4 0.47294 0.16086 0.94336 0.35547l0.85352 0.35352 0.63086-0.62891 0.62891-0.62891-0.19531-0.20312c-0.2208-0.22995-0.2455-0.32972-0.11914-0.47656 0.05577-0.0648 0.10169-0.085938 0.1875-0.085938 0.09799 0 0.14255 0.026882 0.31055 0.19336l0.19531 0.19336 0.29492-0.29688 0.29688-0.29688-0.47656-0.47852c-0.42909-0.43234-0.47656-0.49069-0.47656-0.58789 0-0.09993 0.075043-0.18414 1.0254-1.1328 0.92676-0.92521 1.0368-1.0234 1.1289-1.0234zm-8.5879 2.6445c0.053962-0.006811 0.10832 0.007328 0.16602 0.042969 0.06873 0.04247 0.10638 0.095043 0.11914 0.16602 0.0098 0.05673 0.013715 1.1137 0.009766 2.3496l-0.009766 2.248-0.087891 0.074218c-0.09504 0.08181-0.18881 0.095503-0.28711 0.039063-0.14256-0.08173-0.13769-0.015208-0.13867-2.4512l-0.001953-2.3184 0.070312-0.064453c0.053216-0.049635 0.10619-0.079127 0.16016-0.085938zm1.3867 0.001953c0.09288-0.02812 0.2555 0.05769 0.29297 0.15625 0.01767 0.0475 0.029297 0.97905 0.029297 2.3477v2.2676l-0.091797 0.091796c-0.09602 0.09601-0.19406 0.11476-0.29883 0.054688-0.14256-0.08173-0.13964-0.015208-0.14062-2.4512v-2.3184l0.070312-0.064453c0.03868-0.03543 0.10077-0.072525 0.13867-0.083985z"/>
  <path d="m5 0c-2.77 0-5 2.23-5 5v40c0 2.77 2.23 5 5 5h40c2.77 0 5-2.23 5-5v-40c0-2.77-2.23-5-5-5zm8.5449 19.117c0.0734 0 0.12891 0.06084 0.12891 0.13867 0 0.05708-0.02013 0.07968-0.44922 0.50977l-0.44922 0.45117 0.16602 0.16797c0.0917 0.09197 0.17293 0.16602 0.18164 0.16602 9e-3 0 0.21701-0.19999 0.46289-0.44531 0.40208-0.40118 0.45336-0.44531 0.5-0.44531 0.0733 0 0.13086 0.05893 0.13086 0.13672 0 0.05708-0.02198 0.08154-0.45117 0.51172l-0.44922 0.45117 0.20312 0.20117 0.20312 0.20312 0.44922-0.44922c0.43018-0.42921 0.45464-0.44922 0.51172-0.44922 0.078 0 0.13672 0.05522 0.13672 0.12891 0 0.04733-0.04841 0.10115-0.52148 0.57422-0.48175 0.48175-0.52591 0.52344-0.57617 0.52344-0.0492 0-0.08034-0.0271-0.32617-0.27148l-0.27344-0.26953-0.14844 0.15039-0.15039 0.15039 0.09766 0.10156c0.10387 0.10816 0.1156 0.14048 0.07617 0.2168-0.0262 0.05063-0.05341 0.06445-0.12305 0.06445-0.0368 0-0.07049-0.02269-0.14648-0.0957l-0.09961-0.09375-0.32031 0.32227-0.32227 0.32227 0.87109 2.1016 0.91211 0.0078v-0.14062c0-0.13923 8.28e-4 -0.14321 0.04883-0.18359 0.0642-0.05404 0.11803-0.05382 0.17578 0.0039 0.0442 0.04423 0.04687 0.05382 0.04687 0.18359v0.13672h0.42969v-0.3418c0-0.33174 3.56e-4 -0.34187 0.03516-0.38086 0.0197-0.02208 0.05427-0.0413 0.07617-0.04297 0.0219-0.0017 0.35457-0.0033 0.73828-2e-3l0.69727 0.0039 0.03906 0.03906c0.0506 0.05063 0.05023 0.11932 0 0.17774l-0.03711 0.04492-0.63867 0.0059-0.63867 0.0039v0.49219h1.2754l0.03906 0.03906c0.0536 0.05365 0.05285 0.13406-2e-3 0.18555l-0.04102 0.03906-1.2715 0.0078v0.57227h0.62109c0.63586 0 0.66702 0.0028 0.71289 0.0625 0.0334 0.04355 0.02347 0.12694-0.01953 0.16992l-0.03906 0.03906h-1.4688l-0.07812-0.07812v-0.76562h-0.42969v0.11914c0 0.12548-0.02507 0.2026-0.07227 0.2207-0.0554 0.02126-0.12168 0.0092-0.16016-0.0293-0.0354-0.03541-0.03906-0.05054-0.03906-0.17383v-0.13666h-0.91597l-0.13867 0.33789c-0.0762 0.18607-0.2724 0.66106-0.43555 1.0547l-0.29492 0.71484 0.31836 0.32031 0.31836 0.31836 0.09375-0.08984c0.0519-0.04948 0.11435-0.094 0.13672-0.09961 0.0856-0.02147 0.185 0.07282 0.16406 0.15625-5e-3 0.01942-0.04926 0.0752-0.09766 0.12305-0.0484 0.04784-0.08779 0.09458-0.08789 0.10352-4e-5 0.0089 0.06724 0.08127 0.14844 0.16211l0.14648 0.14844 0.26367-0.26562c0.14444-0.14524 0.27716-0.2695 0.29688-0.27734 0.0221-0.0088 0.05318-8e-3 0.08008 2e-3 0.0502 0.01864 0.99852 0.95619 1.0332 1.0215 0.0342 0.06435 0.02826 0.10654-0.02344 0.1582-0.0911 0.09116-0.09111 0.09141-0.5918-0.4082l-0.45508-0.45312-0.20508 0.20703-0.20703 0.20703 0.44922 0.44922c0.41919 0.42015 0.45117 0.45532 0.45117 0.50781 0 0.09139-0.10392 0.16345-0.17969 0.125-0.02-0.01017-0.23356-0.21502-0.47461-0.45508l-0.4375-0.4375-0.17578 0.17578-0.17383 0.17578 0.44922 0.45117c0.39374 0.39464 0.44922 0.45516 0.44922 0.49805 0 0.10176-0.10297 0.17165-0.1875 0.12695-0.024-0.0127-0.26722-0.24674-0.54102-0.52148-0.46444-0.46606-0.49805-0.50426-0.49805-0.55664 0-0.05121 0.02251-0.07635 0.24414-0.29688l0.24219-0.24219-0.15625-0.15625-0.15625-0.1543-0.04297 0.04688c-0.14304 0.15619-0.22451 0.18565-0.29883 0.11133-0.0691-0.06914-0.05376-0.13394 0.05664-0.25195l0.09375-0.09961-0.32227-0.32031-0.32031-0.32031-0.08008 0.03516c-0.0438 0.01956-0.51805 0.21742-1.0547 0.43945l-0.97656 0.40234v0.9043h0.12305c0.0679 1.49e-4 0.14242 0.0086 0.16406 0.01953 0.0875 0.0443 0.10193 0.15112 0.029297 0.21875-0.0294 0.02738-0.056751 0.03125-0.17578 0.03125h-0.14062v0.43159h0.32617c0.17904 0 0.3433 0.0053 0.36524 0.01367 0.0219 0.0083 0.04684 0.03054 0.05664 0.04883 0.0124 0.02322 0.01848 0.25397 0.01758 0.76172-1e-3 0.66489-0.0045 0.72994-0.0293 0.75781-0.0705 0.0783-0.19126 0.05856-0.22461-0.03711-0.0123-0.03522-0.01758-0.24932-0.01758-0.66406v-0.61133h-0.49414v1.2852l-0.035156 0.0332c-0.051 0.04588-0.084905 0.05261-0.14062 0.0332-0.0939-0.03275-0.095703-0.04388-0.095703-0.72852v-0.62304h-0.57227v1.2734l-0.037109 0.03906c-0.0411 0.04485-0.098938 0.06043-0.14844 0.04102l-0.00195 2e-3c-0.086-0.03373-0.084584-0.0282-0.083984-0.8125 4e-4 -0.54499 0.00463-0.73101 0.019531-0.75 0.0436-0.05681 0.084712-0.0625 0.45703-0.0625h0.36718v-0.43169h-0.13672c-0.12329 0-0.13841-0.0037-0.17383-0.03906-0.026-0.02605-0.039362-0.05486-0.039063-0.08984 9.9e-4 -0.10295 0.060746-0.14062 0.22852-0.14062h0.12109l-0.0039063-0.45508-0.0039062-0.45508-1.0332-0.42969c-0.56895-0.2359-1.0433-0.42773-1.0527-0.42773-9e-3 0-0.1596 0.14185-0.33398 0.31641l-0.31641 0.31641 0.089844 0.091797c0.0498 0.05018 0.096032 0.11064 0.10156 0.13281 0.021 0.08376-0.076609 0.17576-0.16211 0.1543-0.0246-0.0062-0.085006-0.05022-0.13477-0.09766l-0.089844-0.08594-0.15039 0.15039-0.15039 0.15039 0.24219 0.24414c0.21749 0.21914 0.24219 0.25009 0.24219 0.29883 0 0.05009-0.039032 0.09442-0.51367 0.56836-0.50451 0.50378-0.51744 0.51562-0.58008 0.51562-0.0843 0-0.13281-0.05108-0.13281-0.13672 0-0.05928 0.017686-0.07655 0.44727-0.50781l0.44531-0.44921-0.17188-0.16992-0.16992-0.16992-0.44727 0.44531c-0.43667 0.43494-0.44952 0.44531-0.51172 0.44531-0.0836 0-0.13281-0.04861-0.13281-0.13281 0-0.05761 0.019836-0.07974 0.44727-0.50781l0.44727-0.44727-0.20508-0.20508-0.20312-0.20508-0.44727 0.44726c-0.49213 0.49169-0.50223 0.49888-0.59375 0.42188-0.0398-0.03351-0.050781-0.05419-0.050781-0.09961 0-0.05465 0.028042-0.08639 0.51367-0.57227 0.41106-0.41131 0.52435-0.51714 0.56641-0.52539 0.0509-0.01 0.060142-7.77e-4 0.32617 0.26367 0.15102 0.15013 0.27964 0.27344 0.28516 0.27344 6e-3 0 0.074867-0.06611 0.1543-0.14648l0.14453-0.14648-0.085937-0.0918c-0.0476-0.04993-0.091456-0.11016-0.097656-0.13476-0.0216-0.08608 0.07158-0.1814 0.15625-0.16016 0.0227 0.0057 0.080123 0.04949 0.12695 0.09766 0.0468 0.04817 0.090103 0.08784 0.095703 0.08789 6e-3 4.6e-5 0.15324-0.14304 0.32812-0.31836l0.31641-0.32031-0.86719-2.0938-0.91211-0.0078v0.11914c0 0.12572-0.025066 0.20258-0.072266 0.2207-0.0554 0.02126-0.11973 0.0092-0.1582-0.0293-0.0354-0.03541-0.039063-0.05054-0.039063-0.17383v-0.13673h-0.43164v0.76562l-0.078126 0.07812h-0.73047c-0.71576 0-0.73236-8.9e-4 -0.77344-0.0332-0.0522-0.04108-0.058119-0.13417-0.011719-0.19141l0.03125-0.03711 0.64648-0.0059 0.64648-0.0039v-0.57227h-0.62305c-0.73544 0-0.73047-1.46e-4 -0.73047-0.15234 0-0.0386 0.010616-0.06203 0.041016-0.08594 0.0409-0.03215 0.059415-0.0332 0.67773-0.0332h0.63477v-0.4941h-0.62305c-0.73423 0-0.73047 0.0019-0.73047-0.14844 0-0.03342 0.011256-0.06549 0.035156-0.08789 0.0368-0.03453 0.039218-0.0332 0.77344-0.0332h0.73633l0.039063 0.03906c0.0391 0.0391 0.039063 0.03769 0.039063 0.38086v0.34375h0.43164v-0.13672c0-0.13097 4.751e-4 -0.13717 0.046875-0.18359 0.0405-0.04049 0.056809-0.04726 0.099609-0.03906 0.0281 0.0054 0.068191 0.02838 0.087891 0.05078 0.0311 0.03537 0.035156 0.05702 0.035156 0.17383v0.13477h0.9043l0.042969-0.09961c0.023-0.05476 0.21947-0.529 0.4375-1.0547l0.39648-0.95508-0.64062-0.64453-0.097656 0.09375c-0.0838 0.08044-0.10921 0.0957-0.1582 0.0957-0.0747 0-0.13477-0.05854-0.13477-0.12891 0-0.03947 0.019556-0.07105 0.097656-0.15234l0.099609-0.10156-0.30078-0.30078-0.27148 0.26953c-0.25874 0.25722-0.2751 0.27148-0.33398 0.27148-0.0601 0-0.079105-0.01657-0.57812-0.51563-0.49219-0.49225-0.51367-0.51713-0.51367-0.57422 0-0.08124 0.055729-0.13672 0.13672-0.13672 0.0564 0 0.082459 0.02169 0.51172 0.44922l0.45117 0.44922 0.20312-0.20312 0.20312-0.20117-0.45117-0.45117c-0.42921-0.43018-0.44922-0.45464-0.44922-0.51172 0-0.07779 0.057599-0.13672 0.13086-0.13672 0.0467 0 0.09645 0.04459 0.50586 0.45312l0.45508 0.45508 0.17383-0.17578 0.17578-0.17578-0.44141-0.44141c-0.24261-0.24309-0.44846-0.4613-0.45703-0.48438-0.0331-0.08917 0.065366-0.19207 0.16016-0.16797 0.021 0.0053 0.26718 0.24116 0.55078 0.52539 0.47218 0.47322 0.51367 0.5187 0.51367 0.56836 0 0.04835-0.025258 0.08023-0.24219 0.29883l-0.24219 0.24414 0.15039 0.15039 0.15039 0.15039 0.095703-0.09375c0.11801-0.11595 0.18293-0.12957 0.25586-0.05664 0.0677 0.06767 0.055006 0.12195-0.058594 0.24024l-0.099609 0.10352 0.64062 0.64062 0.44531-0.18555c0.24562-0.10184 0.45486-0.18555 0.46484-0.18555 0.0434 0 0.11128 0.05073 0.12695 0.0957 0.0191 0.05483 0.00404 0.10874-0.039063 0.14453-0.0153 0.0127-0.22835 0.10518-0.47461 0.20703l-0.44922 0.18555-0.44922 1.0879-0.45117 1.0879 0.33789 0.81445c0.1856 0.44791 0.38734 0.93607 0.44922 1.0859l0.11328 0.27344 1.0859 0.44922 1.0879 0.44922 0.71289-0.29492c1.2743-0.52741 1.4448-0.59852 1.457-0.61133 7e-3 -0.0069 0.21161-0.49718 0.45703-1.0898l0.44727-1.0781-0.90234-2.1719-0.44531-0.18555c-0.24583-0.10202-0.46211-0.20011-0.48047-0.2168-0.0769-0.06989-0.01526-0.22106 0.08984-0.2207 0.0242 8e-5 0.23896 0.08058 0.47852 0.17969l0.43555 0.17969 0.64062-0.64062-0.09766-0.10352c-0.11244-0.1171-0.12685-0.16741-0.0625-0.24219 0.0284-0.033 0.05396-0.04492 0.09766-0.04492 0.0499 0 0.0707 0.01483 0.15625 0.09961l0.09961 0.09766 0.15039-0.15039 0.15039-0.15039-0.24219-0.24414c-0.21851-0.22016-0.24219-0.25128-0.24219-0.30078 0-0.05089 0.03948-0.09307 0.52344-0.57617 0.47195-0.47116 0.52729-0.52148 0.57422-0.52148zm-4.373 1.3477c0.02748-0.0035 0.054604 0.0033 0.083984 0.02148 0.035 0.02163 0.054047 0.04784 0.060547 0.08398 5e-3 0.02889 0.00786 0.56787 0.00586 1.1973l-0.00586 1.1445-0.044922 0.03906c-0.0484 0.04166-0.096424 0.04632-0.14648 0.01758v2e-3c-0.0726-0.04162-0.069812-0.0095-0.070312-1.25v-1.1797l0.035156-0.0332c0.0271-0.02527 0.054551-0.0395 0.082031-0.04297zm0.70508 0c0.0473-0.01432 0.12936 0.02989 0.14844 0.08008 9e-3 0.02419 0.01563 0.49836 0.01563 1.1953v1.1562l-0.046875 0.04687c-0.0489 0.04889-0.098994 0.05598-0.15234 0.02539v2e-3c-0.0726-0.04162-0.069813-0.0095-0.070312-1.25v-1.1797l0.035156-0.0332c0.0197-0.01804 0.051013-0.03713 0.070312-0.04297zm10.893 1.2012c0.0533 0 0.12109 0.06888 0.12109 0.12305 0 0.02473-0.03327 0.19171-0.07227 0.37109-0.0389 0.17939-0.34379 1.5991-0.67773 3.1543-0.33393 1.5552-0.6136 2.8587-0.62305 2.8965-0.0253 0.10121-0.11012 0.14676-0.20117 0.10742-0.0285-0.01233-0.05871-0.04008-0.06641-0.06055-8e-3 -0.02047-0.11503-0.50656-0.23828-1.0801s-0.42916-1.9968-0.67969-3.1621c-0.25053-1.1653-0.45982-2.1504-0.46484-2.1914-8e-3 -0.06685-0.0049-0.0804 0.03516-0.11719 0.0663-0.06146 0.17552-0.04628 0.21484 0.0293 0.0158 0.03038 0.22792 1.0089 1.0156 4.6855 0.12764 0.59578 0.23657 1.0877 0.24219 1.0938 6e-3 0.0061 0.09273-0.38018 0.19531-0.85938 0.70936-3.3127 1.0482-4.8764 1.0645-4.9121 0.0205-0.04503 0.07708-0.07813 0.13476-0.07813zm1.2305 0c0.0586 0 0.0961 0.0378 1.4102 1.3516l1.3516 1.3496v1.9434l-2e-3 1.9414-0.0332 0.03711c-0.0343 0.0365-0.10769 0.04896-0.16406 0.02734-0.0696-0.02671-0.07227-0.05965-0.07227-0.85352v-0.75391l-2.3574-2.3574v1.9316c0 2.0567 0.0021 2.0047-0.07227 2.0332-0.0563 0.02161-0.12982 0.0091-0.16406-0.02734l-0.03516-0.03711v-2.1172c-1.9e-4 -1.1648-5e-5 -2.6293 0-3.2539v-1.1367l0.03906-0.03906c0.0277-0.02773 0.05681-0.03906 0.09961-0.03906zm10.043 0c0.03201 0.0013 0.06405 0.01715 0.09375 0.04687l0.04687 0.04687v3.2285c0 2.4237-0.0041 3.2356-0.01758 3.2617-0.0448 0.08415-0.14911 0.10284-0.21484 0.03711l-0.03906-0.03906v-3.0605h-2.2285v1.5137c0 1.6083-8.19e-4 1.5871-0.07422 1.6152-0.0592 0.02271-0.12763 0.0097-0.16602-0.03125l-0.03906-0.04102-0.0059-3.1973c-3e-3 -1.7582 6.09e-4 -3.2205 0.0059-3.25 0.0224-0.1251 0.14626-0.17015 0.23242-0.08398l0.04492 0.04687v1.5156h2.2305v-1.5312l0.03906-0.03906c0.0274-0.02741 0.05979-0.04036 0.0918-0.03906zm8.6777 2e-3c0.03114-1.15e-4 0.06259 0.01199 0.0918 0.03711l0.04492 0.03906 0.0078 1.4609 0.0078 1.4629 0.10352-0.13477c1.2166-1.5886 2.1803-2.8204 2.2109-2.8281 0.0886-0.02223 0.17969 0.04255 0.17969 0.12891 0 0.05109-0.061 0.13108-1.9805 2.6172-0.24705 0.31999-0.39227 0.52264-0.38672 0.53711 5e-3 0.01279 0.50216 0.69271 1.1055 1.5098 0.6033 0.81706 1.1187 1.5161 1.1465 1.5547 0.0645 0.08936 0.06551 0.14935 0.0039 0.21094-0.0616 0.06165-0.11407 0.05947-0.18164-0.0059-0.0294-0.02847-0.53666-0.70697-1.127-1.5078l-1.0742-1.457-0.0078 1.4727c-6e-3 1.1183-0.01254 1.4801-0.02734 1.5059-0.0382 0.06663-0.14346 0.07528-0.20312 0.01563l-0.03906-0.03906v-6.5039l0.03906-0.03906c0.0253-0.02532 0.0548-0.037 0.08594-0.03711zm-14.939 2e-3c0.03793-0.0081 0.07923-2.26e-4 0.11328 0.02734l0.03711 0.03125 0.0078 3.0449 0.0078 3.0449 1.1074-1.2871c1.5742-1.8309 1.4229-1.6621 1.498-1.6621 0.0995 0 0.17039 0.09671 0.13086 0.17969-9e-3 0.01907-0.2929 0.35426-0.62891 0.74414-0.33601 0.38988-0.96185 1.1187-1.3926 1.6191-0.54162 0.62929-0.79467 0.91161-0.82031 0.91602-0.0204 0.0035-0.05277 3e-3 -0.07227 0-0.0195-0.0029-0.05066-0.02242-0.06836-0.04492-0.032-0.04074-0.0332-0.05426-0.0332-3.2734 0-2.4272 6e-3 -3.2415 0.01953-3.2676 0.02095-0.03932 0.05582-0.06416 0.09375-0.07227zm13.838 0.02148c0.10644 0 0.166 0.12487 0.10352 0.21484-0.015 0.02166-0.57372 0.73398-1.2422 1.582-0.66847 0.84805-1.2167 1.5462-1.2188 1.5527-2e-3 0.0065 0.23604 0.31742 0.5293 0.68945 0.4891 0.62048 0.69728 0.88343 1.5371 1.9492 0.35054 0.44485 0.34243 0.43454 0.3418 0.49414-5.7e-4 0.05443-0.02332 0.09004-0.07422 0.11719-0.0605 0.03219-0.10242 0.02043-0.16211-0.04297-0.10365-0.11009-2.4614-3.1116-2.4824-3.1602-0.0177-0.04087-0.01679-0.05495 0.0078-0.10156 0.0157-0.02977 0.43977-0.57538 0.94336-1.2129 0.5036-0.63751 1.0713-1.3559 1.2617-1.5977 0.19044-0.2418 0.35878-0.45105 0.37305-0.46289 0.0143-0.01184 0.05103-0.02148 0.08203-0.02148zm-6.2598 0.0078c0.0576 0 0.08952 0.03121 0.9668 0.91211 0.49956 0.50159 1.0791 1.0842 1.2871 1.2949l0.37695 0.38281v1.9629c0 1.4623-0.0041 1.9721-0.01758 1.998-0.0448 0.08415-0.14716 0.10284-0.21289 0.03711l-0.03906-0.03906v-1.8281l-1.1152-1.123-1.1133-1.1211-2e-3 2.041v2.0391l-0.03711 0.03516c-0.0467 0.04387-0.13601 0.04559-0.1875 0.0039l-0.03906-0.03125-0.0039-3.2148c-2e-3 -1.7684-5.43e-4 -3.232 0.0039-3.252 0.0147-0.06048 0.06744-0.09766 0.13281-0.09766zm13.48 0.0059c0.07865-0.02068 0.1582 0.03032 0.1582 0.12695 0 0.06123 0.09207-0.05783-1.5547 2.0488l-0.7793 0.99609 0.39844 0.0098c0.2192 0.0053 0.69264 0.01048 1.0527 0.01172 0.43239 0.0015 0.67358 0.0078 0.70703 0.01953 0.0601 0.02097 0.10407 0.09573 0.08984 0.15234-0.0108 0.04311-2.3977 3.0836-2.4961 3.1797-0.0755 0.07375-0.12533 0.07779-0.18945 0.01367-0.077-0.07699-0.06571-0.11743 0.08789-0.31445 0.074-0.0949 0.59252-0.75321 1.1523-1.4629l1.0176-1.291-0.10547-0.0098c-0.0578-0.0055-0.36576-0.01062-0.68555-0.01172-0.31979-0.0011-0.76177-0.0079-0.98047-0.01367-0.3862-0.01027-0.39818-0.01147-0.43359-0.04687-0.0238-0.02383-0.03711-0.05412-0.03711-0.08984 0-0.04724 0.05578-0.12473 0.4043-0.57031 0.22177-0.28356 0.77805-0.99697 1.2363-1.584 0.45829-0.58702 0.85586-1.0907 0.88281-1.1191 0.02287-0.02417 0.048-0.03803 0.07422-0.04492zm-24.707 0.41602v1.8477l2.3496 2.3496 0.0039-0.91992 0.0039-0.91992-1.1797-1.1797zm11.365 0.05469c-5e-3 0-0.0078 0.36117-0.0078 0.80274v0.80469l1.1094 1.1152c0.60984 0.61419 1.1118 1.1172 1.1152 1.1172 3e-3 0 0.0059-0.36395 0.0059-0.80859l-2e-3 -0.80859-1.1055-1.1113c-0.60845-0.61123-1.1107-1.1114-1.1152-1.1114zm-3.8145 1.3866v1.3379h2.2305v-1.3379h-1.1152z" display="none"/>
 </g>
</svg>
